{
.appVersion = "1075";
copyright = "Copyright © 2018 by Cadson Demak Co.,Ltd.. All rights reserved.";
customParameters = (
{
name = vendorID;
value = CDK;
},
{
name = description;
value = "Copyright (c) 2018, Cadson Demak (info@cadsondemak.com)";
},
{
name = license;

glyphs = (
{
glyphname = A;
layers = (
{
anchors = (
{
name = bottom;
position = "{254, 0}";
},
{
name = ogonek;
position = "{480, 11}";
},
{
name = top;
position = "{375, 700}";
}
);
layerId = "E15D9244-BBAC-404B-AB85-99F8751F40D3";
paths = (
{
closed = 1;
nodes = (
"-5 -5 OFFCURVE",
"11 -8 OFFCURVE",
"24 -8 CURVE SMOOTH",
"54 -8 OFFCURVE",
"74 8 OFFCURVE",
"92 43 CURVE SMOOTH",
"169 195 LINE",
"422 195 LINE",
"461 -6 LINE",
"508 -6 OFFCURVE",
"539 21 OFFCURVE",
"526 85 CURVE SMOOTH",
"406 700 LINE",
"398 704 OFFCURVE",
"390 706 OFFCURVE",
"382 706 CURVE SMOOTH",
"357 706 OFFCURVE",
"335 686 OFFCURVE",
"313 644 CURVE SMOOTH",
"-14 0 LINE"
);
},
{
closed = 1;
nodes = (
"356 581 LINE",
"409 269 LINE",
"205 269 LINE"
);
}
);
width = 587;
}
);
leftKerningGroup = A;
note = A;
rightKerningGroup = A;
unicode = 0041;
},
{
glyphname = Aacute;
layers = (
{
anchors = (
{
name = bottom;
position = "{254, 0}";
},
{
name = ogonek;
position = "{480, 11}";
},
{
name = top;
position = "{452, 910}";
}
);
layerId = "E15D9244-BBAC-404B-AB85-99F8751F40D3";
paths = (
{
closed = 1;
nodes = (
"-5 -5 OFFCURVE",
"11 -8 OFFCURVE",
"24 -8 CURVE SMOOTH",
"54 -8 OFFCURVE",
"74 8 OFFCURVE",
"92 43 CURVE SMOOTH",
"169 195 LINE",
"422 195 LINE",
"461 -6 LINE",
"508 -6 OFFCURVE",
"539 21 OFFCURVE",
"526 85 CURVE SMOOTH",
"406 700 LINE",
"398 704 OFFCURVE",
"390 706 OFFCURVE",
"382 706 CURVE SMOOTH",
"357 706 OFFCURVE",
"335 686 OFFCURVE",
"313 644 CURVE SMOOTH",
"-14 0 LINE"
);
},
{
closed = 1;
nodes = (
"356 581 LINE",
"409 269 LINE",
"205 269 LINE"
);
},
{
closed = 1;
nodes = (
"370 752 LINE",
"502 910 LINE",
"406 910 LINE",
"330 752 LINE"
);
}
);
width = 587;
}
);
leftKerningGroup = A;
note = Aacute;
rightKerningGroup = A;
unicode = 00C1;
},
{
glyphname = Abreve;
layers = (
{
anchors = (
{
name = bottom;
position = "{254, 0}";
},
{
name = ogonek;
position = "{480, 11}";
},
{
name = top;
position = "{405, 890}";
}
);
layerId = "E15D9244-BBAC-404B-AB85-99F8751F40D3";
paths = (
{
closed = 1;
nodes = (
"-5 -5 OFFCURVE",
"11 -8 OFFCURVE",
"24 -8 CURVE SMOOTH",
"54 -8 OFFCURVE",
"74 8 OFFCURVE",
"92 43 CURVE SMOOTH",
"169 195 LINE",
"422 195 LINE",
"461 -6 LINE",
"508 -6 OFFCURVE",
"539 21 OFFCURVE",
"526 85 CURVE SMOOTH",
"406 700 LINE",
"398 704 OFFCURVE",
"390 706 OFFCURVE",
"382 706 CURVE SMOOTH",
"357 706 OFFCURVE",
"335 686 OFFCURVE",
"313 644 CURVE SMOOTH",
"-14 0 LINE"
);
},
{
closed = 1;
nodes = (
"356 581 LINE",
"409 269 LINE",
"205 269 LINE"
);
},
{
closed = 1;
nodes = (
"255 802 OFFCURVE",
"305 746 OFFCURVE",
"387 746 CURVE SMOOTH",
"472 746 OFFCURVE",
"530 802 OFFCURVE",
"545 890 CURVE",
"507 890 LINE",
"497 842 OFFCURVE",
"452 812 OFFCURVE",
"393 812 CURVE SMOOTH",
"336 812 OFFCURVE",
"300 842 OFFCURVE",
"303 890 CURVE",
"265 890 LINE"
);
}
);
width = 587;
}
);
leftKerningGroup = A;
note = Abreve;
rightKerningGroup = A;
unicode = 0102;
},
{
glyphname = Abreveacute;
layers = (
{
anchors = (
{
name = bottom;
position = "{254, 0}";
},
{
name = ogonek;
position = "{480, 11}";
},
{
name = top;
position = "{427, 1031}";
}
);
layerId = "E15D9244-BBAC-404B-AB85-99F8751F40D3";
paths = (
{
closed = 1;
nodes = (
"-5 -5 OFFCURVE",
"11 -8 OFFCURVE",
"24 -8 CURVE SMOOTH",
"54 -8 OFFCURVE",
"74 8 OFFCURVE",
"92 43 CURVE SMOOTH",
"169 195 LINE",
"422 195 LINE",
"461 -6 LINE",
"508 -6 OFFCURVE",
"539 21 OFFCURVE",
"526 85 CURVE SMOOTH",
"406 700 LINE",
"398 704 OFFCURVE",
"390 706 OFFCURVE",
"382 706 CURVE SMOOTH",
"357 706 OFFCURVE",
"335 686 OFFCURVE",
"313 644 CURVE SMOOTH",
"-14 0 LINE"
);
},
{
closed = 1;
nodes = (
"356 581 LINE",
"409 269 LINE",
"205 269 LINE"
);
},
{
closed = 1;
nodes = (
"255 802 OFFCURVE",
"305 746 OFFCURVE",
"387 746 CURVE SMOOTH",
"472 746 OFFCURVE",
"530 802 OFFCURVE",
"545 890 CURVE",
"507 890 LINE",
"497 842 OFFCURVE",
"452 812 OFFCURVE",
"393 812 CURVE SMOOTH",
"336 812 OFFCURVE",
"300 842 OFFCURVE",
"303 890 CURVE",
"265 890 LINE"
);
},
{
closed = 1;
nodes = (
"405 904 LINE",
"511 1030 LINE",
"434 1030 LINE",
"373 904 LINE"
);
}
);
width = 587;
}
);
leftKerningGroup = A;
note = Abreveacute;
rightKerningGroup = A;
unicode = 1EAE;
},
{
glyphname = Abrevedotbelow;
layers = (
{
anchors = (
{
name = bottom;
position = "{226, -175}";
},
{
name = ogonek;
position = "{480, 11}";
},
{
name = top;
position = "{405, 890}";
}
);
layerId = "E15D9244-BBAC-404B-AB85-99F8751F40D3";
paths = (
{
closed = 1;
nodes = (
"-5 -5 OFFCURVE",
"11 -8 OFFCURVE",
"24 -8 CURVE SMOOTH",
"54 -8 OFFCURVE",
"74 8 OFFCURVE",
"92 43 CURVE SMOOTH",
"169 195 LINE",
"422 195 LINE",
"461 -6 LINE",
"508 -6 OFFCURVE",
"539 21 OFFCURVE",
"526 85 CURVE SMOOTH",
"406 700 LINE",
"398 704 OFFCURVE",
"390 706 OFFCURVE",
"382 706 CURVE SMOOTH",
"357 706 OFFCURVE",
"335 686 OFFCURVE",
"313 644 CURVE SMOOTH",
"-14 0 LINE"
);
},
{
closed = 1;
nodes = (
"173 -155 OFFCURVE",
"195 -175 OFFCURVE",
"227 -175 CURVE SMOOTH",
"270 -175 OFFCURVE",
"299 -145 OFFCURVE",
"299 -101 CURVE SMOOTH",
"299 -71 OFFCURVE",
"278 -51 OFFCURVE",
"247 -51 CURVE SMOOTH",
"203 -51 OFFCURVE",
"173 -81 OFFCURVE",
"173 -126 CURVE SMOOTH"
);
},
{
closed = 1;
nodes = (
"356 581 LINE",
"409 269 LINE",
"205 269 LINE"
);
},
{
closed = 1;
nodes = (
"255 802 OFFCURVE",
"305 746 OFFCURVE",
"387 746 CURVE SMOOTH",
"472 746 OFFCURVE",
"530 802 OFFCURVE",
"545 890 CURVE",
"507 890 LINE",
"497 842 OFFCURVE",
"452 812 OFFCURVE",
"393 812 CURVE SMOOTH",
"336 812 OFFCURVE",
"300 842 OFFCURVE",
"303 890 CURVE",
"265 890 LINE"
);
}
);
width = 587;
}
);
leftKerningGroup = A;
note = Abrevedotbelow;
rightKerningGroup = A;
unicode = 1EB6;
},
{
glyphname = Abrevegrave;
layers = (
{
anchors = (
{
name = bottom;
position = "{254, 0}";
},
{
name = ogonek;
position = "{480, 11}";
},
{
name = top;
position = "{427, 1031}";
}
);
layerId = "E15D9244-BBAC-404B-AB85-99F8751F40D3";
paths = (
{
closed = 1;
nodes = (
"-5 -5 OFFCURVE",
"11 -8 OFFCURVE",
"24 -8 CURVE SMOOTH",
"54 -8 OFFCURVE",
"74 8 OFFCURVE",
"92 43 CURVE SMOOTH",
"169 195 LINE",
"422 195 LINE",
"461 -6 LINE",
"508 -6 OFFCURVE",
"539 21 OFFCURVE",
"526 85 CURVE SMOOTH",
"406 700 LINE",
"398 704 OFFCURVE",
"390 706 OFFCURVE",
"382 706 CURVE SMOOTH",
"357 706 OFFCURVE",
"335 686 OFFCURVE",
"313 644 CURVE SMOOTH",
"-14 0 LINE"
);
},
{
closed = 1;
nodes = (
"356 581 LINE",
"409 269 LINE",
"205 269 LINE"
);
},
{
closed = 1;
nodes = (
"255 802 OFFCURVE",
"305 746 OFFCURVE",
"387 746 CURVE SMOOTH",
"472 746 OFFCURVE",
"530 802 OFFCURVE",
"545 890 CURVE",
"507 890 LINE",
"497 842 OFFCURVE",
"452 812 OFFCURVE",
"393 812 CURVE SMOOTH",
"336 812 OFFCURVE",
"300 842 OFFCURVE",
"303 890 CURVE",
"265 890 LINE"
);
},
{
closed = 1;
nodes = (
"396 904 LINE",
"428 904 LINE",
"407 1030 LINE",
"330 1030 LINE"
);
}
);
width = 587;
}
);
leftKerningGroup = A;
note = Abrevegrave;
rightKerningGroup = A;
unicode = 1EB0;
},
{
glyphname = Abrevehookabove;
layers = (
{
anchors = (
{
name = bottom;
position = "{254, 0}";
},
{
name = ogonek;
position = "{480, 11}";
},
{
name = top;
position = "{431, 1057}";
}
);
layerId = "E15D9244-BBAC-404B-AB85-99F8751F40D3";
paths = (
{
closed = 1;
nodes = (
"-5 -5 OFFCURVE",
"11 -8 OFFCURVE",
"24 -8 CURVE SMOOTH",
"54 -8 OFFCURVE",
"74 8 OFFCURVE",
"92 43 CURVE SMOOTH",
"169 195 LINE",
"422 195 LINE",
"461 -6 LINE",
"508 -6 OFFCURVE",
"539 21 OFFCURVE",
"526 85 CURVE SMOOTH",
"406 700 LINE",
"398 704 OFFCURVE",
"390 706 OFFCURVE",
"382 706 CURVE SMOOTH",
"357 706 OFFCURVE",
"335 686 OFFCURVE",
"313 644 CURVE SMOOTH",
"-14 0 LINE"
);
},
{
closed = 1;
nodes = (
"356 581 LINE",
"409 269 LINE",
"205 269 LINE"
);
},
{
closed = 1;
nodes = (
"255 802 OFFCURVE",
"305 746 OFFCURVE",
"387 746 CURVE SMOOTH",
"472 746 OFFCURVE",
"530 802 OFFCURVE",
"545 890 CURVE",
"507 890 LINE",
"497 842 OFFCURVE",
"452 812 OFFCURVE",
"393 812 CURVE SMOOTH",
"336 812 OFFCURVE",
"300 842 OFFCURVE",
"303 890 CURVE",
"265 890 LINE"
);
},
{
closed = 1;
nodes = (
"372 1005 OFFCURVE",
"382 1007 OFFCURVE",
"392 1007 CURVE SMOOTH",
"411 1007 OFFCURVE",
"420 999 OFFCURVE",
"420 984 CURVE SMOOTH",
"420 958 OFFCURVE",
"400 924 OFFCURVE",
"365 904 CURVE",
"412 904 LINE",
"455 924 OFFCURVE",
"480 968 OFFCURVE",
"480 1006 CURVE SMOOTH",
"480 1037 OFFCURVE",
"459 1052 OFFCURVE",
"423 1052 CURVE SMOOTH",
"404 1052 OFFCURVE",
"386 1048 OFFCURVE",
"370 1040 CURVE",
"364 1002 LINE"
);
}
);
width = 587;
}
);
leftKerningGroup = A;
note = Abrevehookabove;
rightKerningGroup = A;
unicode = 1EB2;
},
{
glyphname = Abrevetilde;
layers = (
{
anchors = (
{
name = bottom;
position = "{254, 0}";
},
{
name = ogonek;
position = "{480, 11}";
},
{
name = top;
position = "{428, 1033}";
}
);
layerId = "E15D9244-BBAC-404B-AB85-99F8751F40D3";
paths = (
{
closed = 1;
nodes = (
"-5 -5 OFFCURVE",
"11 -8 OFFCURVE",
"24 -8 CURVE SMOOTH",
"54 -8 OFFCURVE",
"74 8 OFFCURVE",
"92 43 CURVE SMOOTH",
"169 195 LINE",
"422 195 LINE",
"461 -6 LINE",
"508 -6 OFFCURVE",
"539 21 OFFCURVE",
"526 85 CURVE SMOOTH",
"406 700 LINE",
"398 704 OFFCURVE",
"390 706 OFFCURVE",
"382 706 CURVE SMOOTH",
"357 706 OFFCURVE",
"335 686 OFFCURVE",
"313 644 CURVE SMOOTH",
"-14 0 LINE"
);
},
{
closed = 1;
nodes = (
"356 581 LINE",
"409 269 LINE",
"205 269 LINE"
);
},
{
closed = 1;
nodes = (
"255 802 OFFCURVE",
"305 746 OFFCURVE",
"387 746 CURVE SMOOTH",
"472 746 OFFCURVE",
"530 802 OFFCURVE",
"545 890 CURVE",
"507 890 LINE",
"497 842 OFFCURVE",
"452 812 OFFCURVE",
"393 812 CURVE SMOOTH",
"336 812 OFFCURVE",
"300 842 OFFCURVE",
"303 890 CURVE",
"265 890 LINE"
);
},
{
closed = 1;
nodes = (
"318 938 LINE",
"334 966 OFFCURVE",
"349 981 OFFCURVE",
"371 981 CURVE SMOOTH",
"406 981 OFFCURVE",
"419 938 OFFCURVE",
"465 938 CURVE SMOOTH",
"504 938 OFFCURVE",
"546 968 OFFCURVE",
"561 1038 CURVE",
"525 1038 LINE",
"510 1011 OFFCURVE",
"494 995 OFFCURVE",
"472 995 CURVE SMOOTH",
"436 995 OFFCURVE",
"424 1038 OFFCURVE",
"378 1038 CURVE SMOOTH",
"339 1038 OFFCURVE",
"297 1007 OFFCURVE",
"281 938 CURVE"
);
}
);
width = 587;
}
);
leftKerningGroup = A;
note = Abrevetilde;
rightKerningGroup = A;
unicode = 1EB4;
},
{
glyphname = Acaron;
layers = (
{
anchors = (
{
name = bottom;
position = "{254, 0}";
},
{
name = ogonek;
position = "{480, 11}";
},
{
name = top;
position = "{408, 910}";
}
);
layerId = "E15D9244-BBAC-404B-AB85-99F8751F40D3";
paths = (
{
closed = 1;
nodes = (
"-5 -5 OFFCURVE",
"11 -8 OFFCURVE",
"24 -8 CURVE SMOOTH",
"54 -8 OFFCURVE",
"74 8 OFFCURVE",
"92 43 CURVE SMOOTH",
"169 195 LINE",
"422 195 LINE",
"461 -6 LINE",
"508 -6 OFFCURVE",
"539 21 OFFCURVE",
"526 85 CURVE SMOOTH",
"406 700 LINE",
"398 704 OFFCURVE",
"390 706 OFFCURVE",
"382 706 CURVE SMOOTH",
"357 706 OFFCURVE",
"335 686 OFFCURVE",
"313 644 CURVE SMOOTH",
"-14 0 LINE"
);
},
{
closed = 1;
nodes = (
"356 581 LINE",
"409 269 LINE",
"205 269 LINE"
);
},
{
closed = 1;
nodes = (
"343 752 LINE",
"423 752 LINE",
"566 900 LINE",
"526 900 LINE",
"390 812 LINE",
"286 900 LINE",
"246 900 LINE"
);
}
);
width = 587;
}
);
leftKerningGroup = A;
note = Acaron;
rightKerningGroup = A;
unicode = 01CD;
},
{
glyphname = Acircumflex;
layers = (
{
anchors = (
{
name = bottom;
position = "{254, 0}";
},
{
name = ogonek;
position = "{480, 11}";
},
{
name = top;
position = "{406, 900}";
}
);
layerId = "E15D9244-BBAC-404B-AB85-99F8751F40D3";
paths = (
{
closed = 1;
nodes = (
"-5 -5 OFFCURVE",
"11 -8 OFFCURVE",
"24 -8 CURVE SMOOTH",
"54 -8 OFFCURVE",
"74 8 OFFCURVE",
"92 43 CURVE SMOOTH",
"169 195 LINE",
"422 195 LINE",
"461 -6 LINE",
"508 -6 OFFCURVE",
"539 21 OFFCURVE",
"526 85 CURVE SMOOTH",
"406 700 LINE",
"398 704 OFFCURVE",
"390 706 OFFCURVE",
"382 706 CURVE SMOOTH",
"357 706 OFFCURVE",
"335 686 OFFCURVE",
"313 644 CURVE SMOOTH",
"-14 0 LINE"
);
},
{
closed = 1;
nodes = (
"356 581 LINE",
"409 269 LINE",
"205 269 LINE"
);
},
{
closed = 1;
nodes = (
"263 752 LINE",
"400 840 LINE",
"503 752 LINE",
"543 752 LINE",
"446 900 LINE",
"366 900 LINE",
"223 752 LINE"
);
}
);
width = 587;
}
);
leftKerningGroup = A;
note = Acircumflex;
rightKerningGroup = A;
unicode = 00C2;
},
{
glyphname = Acircumflexacute;
layers = (
{
anchors = (
{
name = bottom;
position = "{254, 0}";
},
{
name = ogonek;
position = "{480, 11}";
},
{
name = top;
position = "{421, 990}";
}
);
layerId = "E15D9244-BBAC-404B-AB85-99F8751F40D3";
paths = (
{
closed = 1;
nodes = (
"-5 -5 OFFCURVE",
"11 -8 OFFCURVE",
"24 -8 CURVE SMOOTH",
"54 -8 OFFCURVE",
"74 8 OFFCURVE",
"92 43 CURVE SMOOTH",
"169 195 LINE",
"422 195 LINE",
"461 -6 LINE",
"508 -6 OFFCURVE",
"539 21 OFFCURVE",
"526 85 CURVE SMOOTH",
"406 700 LINE",
"398 704 OFFCURVE",
"390 706 OFFCURVE",
"382 706 CURVE SMOOTH",
"357 706 OFFCURVE",
"335 686 OFFCURVE",
"313 644 CURVE SMOOTH",
"-14 0 LINE"
);
},
{
closed = 1;
nodes = (
"356 581 LINE",
"409 269 LINE",
"205 269 LINE"
);
},
{
closed = 1;
nodes = (
"263 752 LINE",
"400 840 LINE",
"503 752 LINE",
"543 752 LINE",
"446 900 LINE",
"366 900 LINE",
"223 752 LINE"
);
},
{
closed = 1;
nodes = (
"541 857 LINE",
"647 983 LINE",
"570 983 LINE",
"509 857 LINE"
);
}
);
width = 587;
}
);
leftKerningGroup = A;
note = Acircumflexacute;
rightKerningGroup = A;
unicode = 1EA4;
},
{
glyphname = Acircumflexdotbelow;
layers = (
{
anchors = (
{
name = bottom;
position = "{226, -175}";
},
{
name = ogonek;
position = "{480, 11}";
},
{
name = top;
position = "{406, 900}";
}
);
layerId = "E15D9244-BBAC-404B-AB85-99F8751F40D3";
paths = (
{
closed = 1;
nodes = (
"-5 -5 OFFCURVE",
"11 -8 OFFCURVE",
"24 -8 CURVE SMOOTH",
"54 -8 OFFCURVE",
"74 8 OFFCURVE",
"92 43 CURVE SMOOTH",
"169 195 LINE",
"422 195 LINE",
"461 -6 LINE",
"508 -6 OFFCURVE",
"539 21 OFFCURVE",
"526 85 CURVE SMOOTH",
"406 700 LINE",
"398 704 OFFCURVE",
"390 706 OFFCURVE",
"382 706 CURVE SMOOTH",
"357 706 OFFCURVE",
"335 686 OFFCURVE",
"313 644 CURVE SMOOTH",
"-14 0 LINE"
);
},
{
closed = 1;
nodes = (
"173 -155 OFFCURVE",
"195 -175 OFFCURVE",
"227 -175 CURVE SMOOTH",
"270 -175 OFFCURVE",
"299 -145 OFFCURVE",
"299 -101 CURVE SMOOTH",
"299 -71 OFFCURVE",
"278 -51 OFFCURVE",
"247 -51 CURVE SMOOTH",
"203 -51 OFFCURVE",
"173 -81 OFFCURVE",
"173 -126 CURVE SMOOTH"
);
},
{
closed = 1;
nodes = (
"356 581 LINE",
"409 269 LINE",
"205 269 LINE"
);
},
{
closed = 1;
nodes = (
"263 752 LINE",
"400 840 LINE",
"503 752 LINE",
"543 752 LINE",
"446 900 LINE",
"366 900 LINE",
"223 752 LINE"
);
}
);
width = 587;
}
);
leftKerningGroup = A;
note = Acircumflexdotbelow;
rightKerningGroup = A;
unicode = 1EAC;
},
{
glyphname = Acircumflexgrave;
layers = (
{
anchors = (
{
name = bottom;
position = "{254, 0}";
},
{
name = ogonek;
position = "{480, 11}";
},
{
name = top;
position = "{418, 974}";
}
);
layerId = "E15D9244-BBAC-404B-AB85-99F8751F40D3";
paths = (
{
closed = 1;
nodes = (
"-5 -5 OFFCURVE",
"11 -8 OFFCURVE",
"24 -8 CURVE SMOOTH",
"54 -8 OFFCURVE",
"74 8 OFFCURVE",
"92 43 CURVE SMOOTH",
"169 195 LINE",
"422 195 LINE",
"461 -6 LINE",
"508 -6 OFFCURVE",
"539 21 OFFCURVE",
"526 85 CURVE SMOOTH",
"406 700 LINE",
"398 704 OFFCURVE",
"390 706 OFFCURVE",
"382 706 CURVE SMOOTH",
"357 706 OFFCURVE",
"335 686 OFFCURVE",
"313 644 CURVE SMOOTH",
"-14 0 LINE"
);
},
{
closed = 1;
nodes = (
"356 581 LINE",
"409 269 LINE",
"205 269 LINE"
);
},
{
closed = 1;
nodes = (
"263 752 LINE",
"400 840 LINE",
"503 752 LINE",
"543 752 LINE",
"446 900 LINE",
"366 900 LINE",
"223 752 LINE"
);
},
{
closed = 1;
nodes = (
"532 857 LINE",
"564 857 LINE",
"543 983 LINE",
"466 983 LINE"
);
}
);
width = 587;
}
);
leftKerningGroup = A;
note = Acircumflexgrave;
rightKerningGroup = A;
unicode = 1EA6;
},
{
glyphname = Acircumflexhookabove;
layers = (
{
anchors = (
{
name = bottom;
position = "{254, 0}";
},
{
name = ogonek;
position = "{480, 11}";
},
{
name = top;
position = "{422, 990}";
}
);
layerId = "E15D9244-BBAC-404B-AB85-99F8751F40D3";
paths = (
{
closed = 1;
nodes = (
"-5 -5 OFFCURVE",
"11 -8 OFFCURVE",
"24 -8 CURVE SMOOTH",
"54 -8 OFFCURVE",
"74 8 OFFCURVE",
"92 43 CURVE SMOOTH",
"169 195 LINE",
"422 195 LINE",
"461 -6 LINE",
"508 -6 OFFCURVE",
"539 21 OFFCURVE",
"526 85 CURVE SMOOTH",
"406 700 LINE",
"398 704 OFFCURVE",
"390 706 OFFCURVE",
"382 706 CURVE SMOOTH",
"357 706 OFFCURVE",
"335 686 OFFCURVE",
"313 644 CURVE SMOOTH",
"-14 0 LINE"
);
},
{
closed = 1;
nodes = (
"356 581 LINE",
"409 269 LINE",
"205 269 LINE"
);
},
{
closed = 1;
nodes = (
"263 752 LINE",
"400 840 LINE",
"503 752 LINE",
"543 752 LINE",
"446 900 LINE",
"366 900 LINE",
"223 752 LINE"
);
},
{
closed = 1;
nodes = (
"510 958 OFFCURVE",
"520 960 OFFCURVE",
"530 960 CURVE SMOOTH",
"549 960 OFFCURVE",
"558 952 OFFCURVE",
"558 937 CURVE SMOOTH",
"558 911 OFFCURVE",
"538 877 OFFCURVE",
"503 857 CURVE",
"550 857 LINE",
"593 877 OFFCURVE",
"618 921 OFFCURVE",
"618 959 CURVE SMOOTH",
"618 990 OFFCURVE",
"597 1005 OFFCURVE",
"561 1005 CURVE SMOOTH",
"542 1005 OFFCURVE",
"524 1001 OFFCURVE",
"508 993 CURVE",
"502 955 LINE"
);
}
);
width = 587;
}
);
leftKerningGroup = A;
note = Acircumflexhookabove;
rightKerningGroup = A;
unicode = 1EA8;
},
{
glyphname = Acircumflextilde;
layers = (
{
anchors = (
{
name = bottom;
position = "{254, 0}";
},
{
name = ogonek;
position = "{480, 11}";
},
{
name = top;
position = "{437, 1091}";
}
);
layerId = "E15D9244-BBAC-404B-AB85-99F8751F40D3";
paths = (
{
closed = 1;
nodes = (
"-5 -5 OFFCURVE",
"11 -8 OFFCURVE",
"24 -8 CURVE SMOOTH",
"54 -8 OFFCURVE",
"74 8 OFFCURVE",
"92 43 CURVE SMOOTH",
"169 195 LINE",
"422 195 LINE",
"461 -6 LINE",
"508 -6 OFFCURVE",
"539 21 OFFCURVE",
"526 85 CURVE SMOOTH",
"406 700 LINE",
"398 704 OFFCURVE",
"390 706 OFFCURVE",
"382 706 CURVE SMOOTH",
"357 706 OFFCURVE",
"335 686 OFFCURVE",
"313 644 CURVE SMOOTH",
"-14 0 LINE"
);
},
{
closed = 1;
nodes = (
"356 581 LINE",
"409 269 LINE",
"205 269 LINE"
);
},
{
closed = 1;
nodes = (
"263 752 LINE",
"400 840 LINE",
"503 752 LINE",
"543 752 LINE",
"446 900 LINE",
"366 900 LINE",
"223 752 LINE"
);
},
{
closed = 1;
nodes = (
"317 944 LINE",
"333 972 OFFCURVE",
"348 987 OFFCURVE",
"370 987 CURVE SMOOTH",
"405 987 OFFCURVE",
"418 944 OFFCURVE",
"464 944 CURVE SMOOTH",
"503 944 OFFCURVE",
"545 974 OFFCURVE",
"560 1044 CURVE",
"524 1044 LINE",
"509 1017 OFFCURVE",
"493 1001 OFFCURVE",
"471 1001 CURVE SMOOTH",
"435 1001 OFFCURVE",
"423 1044 OFFCURVE",
"377 1044 CURVE SMOOTH",
"338 1044 OFFCURVE",
"296 1013 OFFCURVE",
"280 944 CURVE"
);
}
);
width = 587;
}
);
leftKerningGroup = A;
note = Acircumflextilde;
rightKerningGroup = A;
unicode = 1EAA;
},
{
glyphname = Adieresis;
layers = (
{
anchors = (
{
name = bottom;
position = "{254, 0}";
},
{
name = ogonek;
position = "{480, 11}";
},
{
name = top;
position = "{400, 858}";
}
);
layerId = "E15D9244-BBAC-404B-AB85-99F8751F40D3";
paths = (
{
closed = 1;
nodes = (
"-5 -5 OFFCURVE",
"11 -8 OFFCURVE",
"24 -8 CURVE SMOOTH",
"54 -8 OFFCURVE",
"74 8 OFFCURVE",
"92 43 CURVE SMOOTH",
"169 195 LINE",
"422 195 LINE",
"461 -6 LINE",
"508 -6 OFFCURVE",
"539 21 OFFCURVE",
"526 85 CURVE SMOOTH",
"406 700 LINE",
"398 704 OFFCURVE",
"390 706 OFFCURVE",
"382 706 CURVE SMOOTH",
"357 706 OFFCURVE",
"335 686 OFFCURVE",
"313 644 CURVE SMOOTH",
"-14 0 LINE"
);
},
{
closed = 1;
nodes = (
"356 581 LINE",
"409 269 LINE",
"205 269 LINE"
);
},
{
closed = 1;
nodes = (
"254 769 OFFCURVE",
"273 752 OFFCURVE",
"301 752 CURVE SMOOTH",
"338 752 OFFCURVE",
"362 777 OFFCURVE",
"362 815 CURVE SMOOTH",
"362 841 OFFCURVE",
"344 858 OFFCURVE",
"318 858 CURVE SMOOTH",
"280 858 OFFCURVE",
"254 832 OFFCURVE",
"254 794 CURVE SMOOTH"
);
},
{
closed = 1;
nodes = (
"420 769 OFFCURVE",
"439 752 OFFCURVE",
"467 752 CURVE SMOOTH",
"504 752 OFFCURVE",
"528 777 OFFCURVE",
"528 815 CURVE SMOOTH",
"528 841 OFFCURVE",
"510 858 OFFCURVE",
"484 858 CURVE SMOOTH",
"446 858 OFFCURVE",
"420 832 OFFCURVE",
"420 794 CURVE SMOOTH"
);
}
);
width = 587;
}
);
leftKerningGroup = A;
note = Adieresis;
rightKerningGroup = A;
unicode = 00C4;
},
{
glyphname = Adotbelow;
layers = (
{
anchors = (
{
name = bottom;
position = "{226, -175}";
},
{
name = ogonek;
position = "{480, 11}";
},
{
name = top;
position = "{375, 700}";
}
);
layerId = "E15D9244-BBAC-404B-AB85-99F8751F40D3";
paths = (
{
closed = 1;
nodes = (
"-5 -5 OFFCURVE",
"11 -8 OFFCURVE",
"24 -8 CURVE SMOOTH",
"54 -8 OFFCURVE",
"74 8 OFFCURVE",
"92 43 CURVE SMOOTH",
"169 195 LINE",
"422 195 LINE",
"461 -6 LINE",
"508 -6 OFFCURVE",
"539 21 OFFCURVE",
"526 85 CURVE SMOOTH",
"406 700 LINE",
"398 704 OFFCURVE",
"390 706 OFFCURVE",
"382 706 CURVE SMOOTH",
"357 706 OFFCURVE",
"335 686 OFFCURVE",
"313 644 CURVE SMOOTH",
"-14 0 LINE"
);
},
{
closed = 1;
nodes = (
"173 -155 OFFCURVE",
"195 -175 OFFCURVE",
"227 -175 CURVE SMOOTH",
"270 -175 OFFCURVE",
"299 -145 OFFCURVE",
"299 -101 CURVE SMOOTH",
"299 -71 OFFCURVE",
"278 -51 OFFCURVE",
"247 -51 CURVE SMOOTH",
"203 -51 OFFCURVE",
"173 -81 OFFCURVE",
"173 -126 CURVE SMOOTH"
);
},
{
closed = 1;
nodes = (
"356 581 LINE",
"409 269 LINE",
"205 269 LINE"
);
}
);
width = 587;
}
);
leftKerningGroup = A;
note = Adotbelow;
rightKerningGroup = A;
unicode = 1EA0;
},
{
glyphname = Agrave;
layers = (
{
anchors = (
{
name = bottom;
position = "{254, 0}";
},
{
name = ogonek;
position = "{480, 11}";
},
{
name = top;
position = "{378, 910}";
}
);
layerId = "E15D9244-BBAC-404B-AB85-99F8751F40D3";
paths = (
{
closed = 1;
nodes = (
"-5 -5 OFFCURVE",
"11 -8 OFFCURVE",
"24 -8 CURVE SMOOTH",
"54 -8 OFFCURVE",
"74 8 OFFCURVE",
"92 43 CURVE SMOOTH",
"169 195 LINE",
"422 195 LINE",
"461 -6 LINE",
"508 -6 OFFCURVE",
"539 21 OFFCURVE",
"526 85 CURVE SMOOTH",
"406 700 LINE",
"398 704 OFFCURVE",
"390 706 OFFCURVE",
"382 706 CURVE SMOOTH",
"357 706 OFFCURVE",
"335 686 OFFCURVE",
"313 644 CURVE SMOOTH",
"-14 0 LINE"
);
},
{
closed = 1;
nodes = (
"356 581 LINE",
"409 269 LINE",
"205 269 LINE"
);
},
{
closed = 1;
nodes = (
"402 752 LINE",
"442 752 LINE",
"416 910 LINE",
"320 910 LINE"
);
}
);
width = 587;
}
);
leftKerningGroup = A;
note = Agrave;
rightKerningGroup = A;
unicode = 00C0;
},
{
glyphname = Ahookabove;
layers = (
{
anchors = (
{
name = bottom;
position = "{254, 0}";
},
{
name = ogonek;
position = "{480, 11}";
},
{
name = top;
position = "{416, 937}";
}
);
layerId = "E15D9244-BBAC-404B-AB85-99F8751F40D3";
paths = (
{
closed = 1;
nodes = (
"-5 -5 OFFCURVE",
"11 -8 OFFCURVE",
"24 -8 CURVE SMOOTH",
"54 -8 OFFCURVE",
"74 8 OFFCURVE",
"92 43 CURVE SMOOTH",
"169 195 LINE",
"422 195 LINE",
"461 -6 LINE",
"508 -6 OFFCURVE",
"539 21 OFFCURVE",
"526 85 CURVE SMOOTH",
"406 700 LINE",
"398 704 OFFCURVE",
"390 706 OFFCURVE",
"382 706 CURVE SMOOTH",
"357 706 OFFCURVE",
"335 686 OFFCURVE",
"313 644 CURVE SMOOTH",
"-14 0 LINE"
);
},
{
closed = 1;
nodes = (
"356 581 LINE",
"409 269 LINE",
"205 269 LINE"
);
},
{
closed = 1;
nodes = (
"346 879 OFFCURVE",
"358 881 OFFCURVE",
"370 881 CURVE SMOOTH",
"394 881 OFFCURVE",
"405 871 OFFCURVE",
"405 853 CURVE SMOOTH",
"405 820 OFFCURVE",
"380 777 OFFCURVE",
"337 752 CURVE",
"395 752 LINE",
"449 778 OFFCURVE",
"481 833 OFFCURVE",
"481 880 CURVE SMOOTH",
"481 919 OFFCURVE",
"454 937 OFFCURVE",
"409 937 CURVE SMOOTH",
"385 937 OFFCURVE",
"363 932 OFFCURVE",
"343 922 CURVE",
"335 875 LINE"
);
}
);
width = 587;
}
);
leftKerningGroup = A;
note = Ahookabove;
rightKerningGroup = A;
unicode = 1EA2;
},
{
glyphname = Amacron;
layers = (
{
anchors = (
{
name = bottom;
position = "{254, 0}";
},
{
name = ogonek;
position = "{480, 11}";
},
{
name = top;
position = "{394, 823}";
}
);
layerId = "E15D9244-BBAC-404B-AB85-99F8751F40D3";
paths = (
{
closed = 1;
nodes = (
"-5 -5 OFFCURVE",
"11 -8 OFFCURVE",
"24 -8 CURVE SMOOTH",
"54 -8 OFFCURVE",
"74 8 OFFCURVE",
"92 43 CURVE SMOOTH",
"169 195 LINE",
"422 195 LINE",
"461 -6 LINE",
"508 -6 OFFCURVE",
"539 21 OFFCURVE",
"526 85 CURVE SMOOTH",
"406 700 LINE",
"398 704 OFFCURVE",
"390 706 OFFCURVE",
"382 706 CURVE SMOOTH",
"357 706 OFFCURVE",
"335 686 OFFCURVE",
"313 644 CURVE SMOOTH",
"-14 0 LINE"
);
},
{
closed = 1;
nodes = (
"356 581 LINE",
"409 269 LINE",
"205 269 LINE"
);
},
{
closed = 1;
nodes = (
"538 772 LINE",
"546 822 LINE",
"242 822 LINE",
"234 772 LINE"
);
}
);
width = 587;
}
);
leftKerningGroup = A;
note = Amacron;
rightKerningGroup = A;
unicode = 0100;
},
{
glyphname = Aogonek;
lastChange = "2018-03-13 07:06:37 +0000";
layers = (
{
anchors = (
{
name = bottom;
position = "{254, 0}";
},
{
name = ogonek;
position = "{480, 11}";
},
{
name = top;
position = "{375, 700}";
}
);
layerId = "E15D9244-BBAC-404B-AB85-99F8751F40D3";
paths = (
{
closed = 1;
nodes = (
"-5 -5 OFFCURVE",
"11 -8 OFFCURVE",
"24 -8 CURVE SMOOTH",
"54 -8 OFFCURVE",
"74 8 OFFCURVE",
"92 43 CURVE SMOOTH",
"169 195 LINE",
"422 195 LINE",
"459 5 LINE",
"428 -12 OFFCURVE",
"372 -49 OFFCURVE",
"372 -105 CURVE SMOOTH",
"372 -149 OFFCURVE",
"405 -174 OFFCURVE",
"450 -174 CURVE SMOOTH",
"477 -174 OFFCURVE",
"494 -168 OFFCURVE",
"509 -159 CURVE",
"517 -112 LINE",
"506 -116 OFFCURVE",
"497 -118 OFFCURVE",
"482 -118 CURVE SMOOTH",
"468 -118 OFFCURVE",
"447 -114 OFFCURVE",
"447 -83 CURVE SMOOTH",
"447 -49 OFFCURVE",
"485 -8 OFFCURVE",
"503 4 CURVE SMOOTH",
"524 17 OFFCURVE",
"534 43 OFFCURVE",
"526 85 CURVE SMOOTH",
"406 700 LINE",
"398 704 OFFCURVE",
"390 706 OFFCURVE",
"382 706 CURVE SMOOTH",
"357 706 OFFCURVE",
"335 686 OFFCURVE",
"313 644 CURVE SMOOTH",
"-14 0 LINE"
);
},
{
closed = 1;
nodes = (
"356 581 LINE",
"409 269 LINE",
"205 269 LINE"
);
}
);
width = 587;
}
);
leftKerningGroup = A;
note = Aogonek;
rightKerningGroup = A;
unicode = 0104;
},
{
glyphname = Aring;
layers = (
{
anchors = (
{
name = bottom;
position = "{254, 0}";
},
{
name = ogonek;
position = "{480, 11}";
},
{
name = top;
position = "{408, 910}";
}
);
layerId = "E15D9244-BBAC-404B-AB85-99F8751F40D3";
paths = (
{
closed = 1;
nodes = (
"-5 -5 OFFCURVE",
"11 -8 OFFCURVE",
"24 -8 CURVE SMOOTH",
"54 -8 OFFCURVE",
"74 8 OFFCURVE",
"92 43 CURVE SMOOTH",
"169 195 LINE",
"422 195 LINE",
"461 -6 LINE",
"508 -6 OFFCURVE",
"539 21 OFFCURVE",
"526 85 CURVE SMOOTH",
"406 700 LINE",
"398 704 OFFCURVE",
"390 706 OFFCURVE",
"382 706 CURVE SMOOTH",
"357 706 OFFCURVE",
"335 686 OFFCURVE",
"313 644 CURVE SMOOTH",
"-14 0 LINE"
);
},
{
closed = 1;
nodes = (
"356 581 LINE",
"409 269 LINE",
"205 269 LINE"
);
},
{
closed = 1;
nodes = (
"306 773 OFFCURVE",
"338 746 OFFCURVE",
"383 746 CURVE SMOOTH",
"440 746 OFFCURVE",
"482 789 OFFCURVE",
"482 840 CURVE SMOOTH",
"482 884 OFFCURVE",
"451 910 OFFCURVE",
"406 910 CURVE SMOOTH",
"349 910 OFFCURVE",
"306 868 OFFCURVE",
"306 817 CURVE SMOOTH"
);
},
{
closed = 1;
nodes = (
"350 850 OFFCURVE",
"372 874 OFFCURVE",
"401 874 CURVE SMOOTH",
"424 874 OFFCURVE",
"438 858 OFFCURVE",
"438 835 CURVE SMOOTH",
"438 806 OFFCURVE",
"417 782 OFFCURVE",
"389 782 CURVE SMOOTH",
"366 782 OFFCURVE",
"350 797 OFFCURVE",
"350 821 CURVE SMOOTH"
);
}
);
width = 587;
}
);
leftKerningGroup = A;
note = Aring;
rightKerningGroup = A;
unicode = 00C5;
},
{
glyphname = Aringacute;
lastChange = "2018-03-13 07:06:37 +0000";
layers = (
{
anchors = (
{
name = bottom;
position = "{254, 0}";
},
{
name = ogonek;
position = "{480, 11}";
},
{
name = top;
position = "{494, 1078}";
}
);
layerId = "E15D9244-BBAC-404B-AB85-99F8751F40D3";
paths = (
{
closed = 1;
nodes = (
"-5 -5 OFFCURVE",
"11 -8 OFFCURVE",
"24 -8 CURVE SMOOTH",
"54 -8 OFFCURVE",
"74 8 OFFCURVE",
"92 43 CURVE SMOOTH",
"169 195 LINE",
"422 195 LINE",
"461 -6 LINE",
"508 -6 OFFCURVE",
"539 21 OFFCURVE",
"526 85 CURVE SMOOTH",
"406 700 LINE",
"398 704 OFFCURVE",
"390 706 OFFCURVE",
"382 706 CURVE SMOOTH",
"357 706 OFFCURVE",
"335 686 OFFCURVE",
"313 644 CURVE SMOOTH",
"-14 0 LINE"
);
},
{
closed = 1;
nodes = (
"356 581 LINE",
"409 269 LINE",
"205 269 LINE"
);
},
{
closed = 1;
nodes = (
"306 773 OFFCURVE",
"338 746 OFFCURVE",
"383 746 CURVE SMOOTH",
"440 746 OFFCURVE",
"482 789 OFFCURVE",
"482 840 CURVE SMOOTH",
"482 884 OFFCURVE",
"451 910 OFFCURVE",
"406 910 CURVE SMOOTH",
"349 910 OFFCURVE",
"306 868 OFFCURVE",
"306 817 CURVE SMOOTH"
);
},
{
closed = 1;
nodes = (
"350 850 OFFCURVE",
"372 874 OFFCURVE",
"401 874 CURVE SMOOTH",
"424 874 OFFCURVE",
"438 858 OFFCURVE",
"438 835 CURVE SMOOTH",
"438 806 OFFCURVE",
"417 782 OFFCURVE",
"389 782 CURVE SMOOTH",
"366 782 OFFCURVE",
"350 797 OFFCURVE",
"350 821 CURVE SMOOTH"
);
},
{
closed = 1;
nodes = (
"428 952 LINE",
"534 1078 LINE",
"457 1078 LINE",
"396 952 LINE"
);
}
);
width = 587;
}
);
leftKerningGroup = A;
note = Aringacute;
rightKerningGroup = A;
unicode = 01FA;
},
{
glyphname = Atilde;
layers = (
{
anchors = (
{
name = bottom;
position = "{254, 0}";
},
{
name = ogonek;
position = "{480, 11}";
},
{
name = top;
position = "{403, 878}";
}
);
layerId = "E15D9244-BBAC-404B-AB85-99F8751F40D3";
paths = (
{
closed = 1;
nodes = (
"-5 -5 OFFCURVE",
"11 -8 OFFCURVE",
"24 -8 CURVE SMOOTH",
"54 -8 OFFCURVE",
"74 8 OFFCURVE",
"92 43 CURVE SMOOTH",
"169 195 LINE",
"422 195 LINE",
"461 -6 LINE",
"508 -6 OFFCURVE",
"539 21 OFFCURVE",
"526 85 CURVE SMOOTH",
"406 700 LINE",
"398 704 OFFCURVE",
"390 706 OFFCURVE",
"382 706 CURVE SMOOTH",
"357 706 OFFCURVE",
"335 686 OFFCURVE",
"313 644 CURVE SMOOTH",
"-14 0 LINE"
);
},
{
closed = 1;
nodes = (
"356 581 LINE",
"409 269 LINE",
"205 269 LINE"
);
},
{
closed = 1;
nodes = (
"272 752 LINE",
"290 784 OFFCURVE",
"308 802 OFFCURVE",
"333 802 CURVE SMOOTH",
"374 802 OFFCURVE",
"389 752 OFFCURVE",
"443 752 CURVE SMOOTH",
"488 752 OFFCURVE",
"537 786 OFFCURVE",
"555 868 CURVE",
"512 868 LINE",
"495 836 OFFCURVE",
"476 818 OFFCURVE",
"451 818 CURVE SMOOTH",
"409 818 OFFCURVE",
"395 868 OFFCURVE",
"342 868 CURVE SMOOTH",
"296 868 OFFCURVE",
"248 832 OFFCURVE",
"229 752 CURVE"
);
}
);
width = 587;
}
);
leftKerningGroup = A;
note = Atilde;
rightKerningGroup = A;
unicode = 00C3;
},
{
glyphname = AE;
layers = (
{
anchors = (
{
name = bottom;
position = "{380, 0}";
},
{
name = top;
position = "{565, 700}";
}
);
layerId = "E15D9244-BBAC-404B-AB85-99F8751F40D3";
paths = (
{
closed = 1;
nodes = (
"-5 -5 OFFCURVE",
"11 -8 OFFCURVE",
"24 -8 CURVE SMOOTH",
"54 -8 OFFCURVE",
"74 8 OFFCURVE",
"92 43 CURVE SMOOTH",
"169 195 LINE",
"397 195 LINE",
"394 177 LINE SMOOTH",
"382 98 OFFCURVE",
"368 62 OFFCURVE",
"327 21 CURVE",
"332 0 LINE",
"713 0 LINE SMOOTH",
"746 0 OFFCURVE",
"773 17 OFFCURVE",
"778 50 CURVE SMOOTH",
"779 57 OFFCURVE",
"780 67 OFFCURVE",
"778 76 CURVE",
"451 76 LINE",
"470 108 OFFCURVE",
"477 143 OFFCURVE",
"482 177 CURVE SMOOTH",
"505 320 LINE",
"716 320 LINE SMOOTH",
"749 320 OFFCURVE",
"775 337 OFFCURVE",
"781 370 CURVE",
"782 377 OFFCURVE",
"782 387 OFFCURVE",
"781 396 CURVE",
"517 396 LINE",
"553 624 LINE",
"796 624 LINE SMOOTH",
"829 624 OFFCURVE",
"856 641 OFFCURVE",
"861 674 CURVE SMOOTH",
"862 681 OFFCURVE",
"862 691 OFFCURVE",
"861 700 CURVE",
"401 700 LINE SMOOTH",
"363 700 OFFCURVE",
"330 677 OFFCURVE",
"309 635 CURVE SMOOTH",
"-14 0 LINE"
);
},
{
closed = 1;
nodes = (
"374 619 LINE",
"464 619 LINE",
"409 269 LINE",
"205 269 LINE"
);
}
);
width = 840;
}
);
leftMetricsKey = A;
note = AE;
rightMetricsKey = E;
unicode = 00C6;
},
{
glyphname = AEacute;
layers = (
{
anchors = (
{
name = bottom;
position = "{380, 0}";
},
{
name = top;
position = "{642, 910}";
}
);
layerId = "E15D9244-BBAC-404B-AB85-99F8751F40D3";
paths = (
{
closed = 1;
nodes = (
"-5 -5 OFFCURVE",
"11 -8 OFFCURVE",
"24 -8 CURVE SMOOTH",
"54 -8 OFFCURVE",
"74 8 OFFCURVE",
"92 43 CURVE SMOOTH",
"169 195 LINE",
"397 195 LINE",
"394 177 LINE SMOOTH",
"382 98 OFFCURVE",
"368 62 OFFCURVE",
"327 21 CURVE",
"332 0 LINE",
"713 0 LINE SMOOTH",
"746 0 OFFCURVE",
"773 17 OFFCURVE",
"778 50 CURVE SMOOTH",
"779 57 OFFCURVE",
"780 67 OFFCURVE",
"778 76 CURVE",
"451 76 LINE",
"470 108 OFFCURVE",
"477 143 OFFCURVE",
"482 177 CURVE SMOOTH",
"505 320 LINE",
"716 320 LINE SMOOTH",
"749 320 OFFCURVE",
"775 337 OFFCURVE",
"781 370 CURVE",
"782 377 OFFCURVE",
"782 387 OFFCURVE",
"781 396 CURVE",
"517 396 LINE",
"553 624 LINE",
"796 624 LINE SMOOTH",
"829 624 OFFCURVE",
"856 641 OFFCURVE",
"861 674 CURVE SMOOTH",
"862 681 OFFCURVE",
"862 691 OFFCURVE",
"861 700 CURVE",
"401 700 LINE SMOOTH",
"363 700 OFFCURVE",
"330 677 OFFCURVE",
"309 635 CURVE SMOOTH",
"-14 0 LINE"
);
},
{
closed = 1;
nodes = (
"374 619 LINE",
"464 619 LINE",
"409 269 LINE",
"205 269 LINE"
);
},
{
closed = 1;
nodes = (
"560 752 LINE",
"692 910 LINE",
"596 910 LINE",
"520 752 LINE"
);
}
);
width = 840;
}
);
leftKerningGroup = A;
note = AEacute;
unicode = 01FC;
},
{
glyphname = B;
lastChange = "2018-03-13 07:06:37 +0000";
layers = (
{
anchors = (
{
name = bottom;
position = "{250, 0}";
},
{
name = top;
position = "{361, 700}";
}
);
layerId = "E15D9244-BBAC-404B-AB85-99F8751F40D3";
paths = (
{
closed = 1;
nodes = (
"12 -2 LINE",
"81 -2 OFFCURVE",
"158 -12 OFFCURVE",
"222 -12 CURVE SMOOTH",
"399 -12 OFFCURVE",
"531 70 OFFCURVE",
"531 228 CURVE SMOOTH",
"531 302 OFFCURVE",
"487 347 OFFCURVE",
"417 364 CURVE",
"500 397 OFFCURVE",
"549 456 OFFCURVE",
"549 550 CURVE SMOOTH",
"549 651 OFFCURVE",
"472 714 OFFCURVE",
"322 714 CURVE SMOOTH",
"262 714 OFFCURVE",
"194 704 OFFCURVE",
"124 704 CURVE",
"112 683 LINE",
"129 658 OFFCURVE",
"136 634 OFFCURVE",
"136 600 CURVE SMOOTH",
"136 577 OFFCURVE",
"133 549 OFFCURVE",
"127 514 CURVE SMOOTH",
"76 188 LINE SMOOTH",
"62 100 OFFCURVE",
"48 60 OFFCURVE",
"7 19 CURVE"
);
},
{
closed = 1;
nodes = (
"149 105 OFFCURVE",
"157 147 OFFCURVE",
"164 188 CURVE SMOOTH",
"185 324 LINE",
"322 324 LINE SMOOTH",
"399 324 OFFCURVE",
"441 288 OFFCURVE",
"441 225 CURVE SMOOTH",
"441 118 OFFCURVE",
"365 62 OFFCURVE",
"244 62 CURVE SMOOTH",
"209 62 OFFCURVE",
"168 66 OFFCURVE",
"130 69 CURVE"
);
},
{
closed = 1;
nodes = (
"215 514 LINE SMOOTH",
"219 540 OFFCURVE",
"223 567 OFFCURVE",
"223 593 CURVE SMOOTH",
"223 607 OFFCURVE",
"222 620 OFFCURVE",
"219 633 CURVE",
"256 636 OFFCURVE",
"292 640 OFFCURVE",
"326 640 CURVE SMOOTH",
"419 640 OFFCURVE",
"458 605 OFFCURVE",
"458 544 CURVE SMOOTH",
"458 463 OFFCURVE",
"415 396 OFFCURVE",
"329 396 CURVE SMOOTH",
"197 396 LINE"
);
}
);
width = 580;
}
);
leftKerningGroup = E;
leftMetricsKey = E;
note = B;
rightKerningGroup = B;
unicode = 0042;
},
{
glyphname = C;
layers = (
{
anchors = (
{
name = bottom;
position = "{326, 0}";
},
{
name = top;
position = "{437, 700}";
}
);
layerId = "E15D9244-BBAC-404B-AB85-99F8751F40D3";
paths = (
{
closed = 1;
nodes = (
"56 109 OFFCURVE",
"157 -12 OFFCURVE",
"335 -12 CURVE SMOOTH",
"469 -12 OFFCURVE",
"581 54 OFFCURVE",
"581 129 CURVE SMOOTH",
"581 145 OFFCURVE",
"574 162 OFFCURVE",
"551 169 CURVE",
"502 109 OFFCURVE",
"428 62 OFFCURVE",
"334 62 CURVE SMOOTH",
"213 62 OFFCURVE",
"150 155 OFFCURVE",
"150 283 CURVE SMOOTH",
"150 463 OFFCURVE",
"260 640 OFFCURVE",
"425 640 CURVE SMOOTH",
"519 640 OFFCURVE",
"580 593 OFFCURVE",
"608 533 CURVE",
"650 545 OFFCURVE",
"654 581 OFFCURVE",
"654 595 CURVE SMOOTH",
"654 662 OFFCURVE",
"555 714 OFFCURVE",
"434 714 CURVE SMOOTH",
"201 714 OFFCURVE",
"56 517 OFFCURVE",
"56 277 CURVE SMOOTH"
);
}
);
width = 647;
}
);
leftKerningGroup = O;
leftMetricsKey = O;
note = C;
rightKerningGroup = C;
unicode = 0043;
},
{
glyphname = Cacute;
layers = (
{
anchors = (
{
name = bottom;
position = "{326, 0}";
},
{
name = top;
position = "{514, 910}";
}
);
layerId = "E15D9244-BBAC-404B-AB85-99F8751F40D3";
paths = (
{
closed = 1;
nodes = (
"56 109 OFFCURVE",
"157 -12 OFFCURVE",
"335 -12 CURVE SMOOTH",
"469 -12 OFFCURVE",
"581 54 OFFCURVE",
"581 129 CURVE SMOOTH",
"581 145 OFFCURVE",
"574 162 OFFCURVE",
"551 169 CURVE",
"502 109 OFFCURVE",
"428 62 OFFCURVE",
"334 62 CURVE SMOOTH",
"213 62 OFFCURVE",
"150 155 OFFCURVE",
"150 283 CURVE SMOOTH",
"150 463 OFFCURVE",
"260 640 OFFCURVE",
"425 640 CURVE SMOOTH",
"519 640 OFFCURVE",
"580 593 OFFCURVE",
"608 533 CURVE",
"650 545 OFFCURVE",
"654 581 OFFCURVE",
"654 595 CURVE SMOOTH",
"654 662 OFFCURVE",
"555 714 OFFCURVE",
"434 714 CURVE SMOOTH",
"201 714 OFFCURVE",
"56 517 OFFCURVE",
"56 277 CURVE SMOOTH"
);
},
{
closed = 1;
nodes = (
"432 752 LINE",
"564 910 LINE",
"468 910 LINE",
"392 752 LINE"
);
}
);
width = 647;
}
);
leftKerningGroup = C;
note = Cacute;
unicode = 0106;
},
{
glyphname = Ccaron;
layers = (
{
anchors = (
{
name = bottom;
position = "{326, 0}";
},
{
name = top;
position = "{470, 910}";
}
);
layerId = "E15D9244-BBAC-404B-AB85-99F8751F40D3";
paths = (
{
closed = 1;
nodes = (
"56 109 OFFCURVE",
"157 -12 OFFCURVE",
"335 -12 CURVE SMOOTH",
"469 -12 OFFCURVE",
"581 54 OFFCURVE",
"581 129 CURVE SMOOTH",
"581 145 OFFCURVE",
"574 162 OFFCURVE",
"551 169 CURVE",
"502 109 OFFCURVE",
"428 62 OFFCURVE",
"334 62 CURVE SMOOTH",
"213 62 OFFCURVE",
"150 155 OFFCURVE",
"150 283 CURVE SMOOTH",
"150 463 OFFCURVE",
"260 640 OFFCURVE",
"425 640 CURVE SMOOTH",
"519 640 OFFCURVE",
"580 593 OFFCURVE",
"608 533 CURVE",
"650 545 OFFCURVE",
"654 581 OFFCURVE",
"654 595 CURVE SMOOTH",
"654 662 OFFCURVE",
"555 714 OFFCURVE",
"434 714 CURVE SMOOTH",
"201 714 OFFCURVE",
"56 517 OFFCURVE",
"56 277 CURVE SMOOTH"
);
},
{
closed = 1;
nodes = (
"405 752 LINE",
"485 752 LINE",
"628 900 LINE",
"588 900 LINE",
"452 812 LINE",
"348 900 LINE",
"308 900 LINE"
);
}
);
width = 647;
}
);
leftKerningGroup = C;
note = Ccaron;
unicode = 010C;
},
{
glyphname = Ccedilla;
lastChange = "2018-03-13 07:06:37 +0000";
layers = (
{
anchors = (
{
name = bottom;
position = "{273, -195}";
},
{
name = top;
position = "{437, 700}";
}
);
layerId = "E15D9244-BBAC-404B-AB85-99F8751F40D3";
paths = (
{
closed = 1;
nodes = (
"56 122 OFFCURVE",
"142 8 OFFCURVE",
"294 -10 CURVE",
"236 -74 LINE",
"248 -91 LINE",
"260 -88 OFFCURVE",
"271 -86 OFFCURVE",
"283 -86 CURVE SMOOTH",
"312 -86 OFFCURVE",
"322 -99 OFFCURVE",
"322 -114 CURVE SMOOTH",
"322 -140 OFFCURVE",
"293 -151 OFFCURVE",
"261 -151 CURVE SMOOTH",
"238 -151 OFFCURVE",
"220 -145 OFFCURVE",
"202 -138 CURVE",
"197 -173 LINE",
"214 -185 OFFCURVE",
"236 -195 OFFCURVE",
"273 -195 CURVE SMOOTH",
"342 -195 OFFCURVE",
"390 -162 OFFCURVE",
"390 -114 CURVE SMOOTH",
"390 -74 OFFCURVE",
"358 -51 OFFCURVE",
"304 -51 CURVE",
"340 -12 LINE",
"472 -11 OFFCURVE",
"581 55 OFFCURVE",
"581 129 CURVE SMOOTH",
"581 145 OFFCURVE",
"574 162 OFFCURVE",
"551 169 CURVE",
"502 109 OFFCURVE",
"428 62 OFFCURVE",
"334 62 CURVE SMOOTH",
"213 62 OFFCURVE",
"150 155 OFFCURVE",
"150 283 CURVE SMOOTH",
"150 463 OFFCURVE",
"260 640 OFFCURVE",
"425 640 CURVE SMOOTH",
"519 640 OFFCURVE",
"580 593 OFFCURVE",
"608 533 CURVE",
"650 545 OFFCURVE",
"654 581 OFFCURVE",
"654 595 CURVE SMOOTH",
"654 662 OFFCURVE",
"555 714 OFFCURVE",
"434 714 CURVE SMOOTH",
"201 714 OFFCURVE",
"56 517 OFFCURVE",
"56 277 CURVE SMOOTH"
);
}
);
width = 647;
}
);
leftKerningGroup = C;
note = Ccedilla;
unicode = 00C7;
},
{
glyphname = Ccircumflex;
layers = (
{
anchors = (
{
name = bottom;
position = "{326, 0}";
},
{
name = top;
position = "{468, 900}";
}
);
layerId = "E15D9244-BBAC-404B-AB85-99F8751F40D3";
paths = (
{
closed = 1;
nodes = (
"56 109 OFFCURVE",
"157 -12 OFFCURVE",
"335 -12 CURVE SMOOTH",
"469 -12 OFFCURVE",
"581 54 OFFCURVE",
"581 129 CURVE SMOOTH",
"581 145 OFFCURVE",
"574 162 OFFCURVE",
"551 169 CURVE",
"502 109 OFFCURVE",
"428 62 OFFCURVE",
"334 62 CURVE SMOOTH",
"213 62 OFFCURVE",
"150 155 OFFCURVE",
"150 283 CURVE SMOOTH",
"150 463 OFFCURVE",
"260 640 OFFCURVE",
"425 640 CURVE SMOOTH",
"519 640 OFFCURVE",
"580 593 OFFCURVE",
"608 533 CURVE",
"650 545 OFFCURVE",
"654 581 OFFCURVE",
"654 595 CURVE SMOOTH",
"654 662 OFFCURVE",
"555 714 OFFCURVE",
"434 714 CURVE SMOOTH",
"201 714 OFFCURVE",
"56 517 OFFCURVE",
"56 277 CURVE SMOOTH"
);
},
{
closed = 1;
nodes = (
"325 752 LINE",
"462 840 LINE",
"565 752 LINE",
"605 752 LINE",
"508 900 LINE",
"428 900 LINE",
"285 752 LINE"
);
}
);
width = 647;
}
);
leftKerningGroup = C;
note = Ccircumflex;
unicode = 0108;
},
{
glyphname = Cdotaccent;
layers = (
{
anchors = (
{
name = bottom;
position = "{326, 0}";
},
{
name = top;
position = "{466, 877}";
}
);
layerId = "E15D9244-BBAC-404B-AB85-99F8751F40D3";
paths = (
{
closed = 1;
nodes = (
"56 109 OFFCURVE",
"157 -12 OFFCURVE",
"335 -12 CURVE SMOOTH",
"469 -12 OFFCURVE",
"581 54 OFFCURVE",
"581 129 CURVE SMOOTH",
"581 145 OFFCURVE",
"574 162 OFFCURVE",
"551 169 CURVE",
"502 109 OFFCURVE",
"428 62 OFFCURVE",
"334 62 CURVE SMOOTH",
"213 62 OFFCURVE",
"150 155 OFFCURVE",
"150 283 CURVE SMOOTH",
"150 463 OFFCURVE",
"260 640 OFFCURVE",
"425 640 CURVE SMOOTH",
"519 640 OFFCURVE",
"580 593 OFFCURVE",
"608 533 CURVE",
"650 545 OFFCURVE",
"654 581 OFFCURVE",
"654 595 CURVE SMOOTH",
"654 662 OFFCURVE",
"555 714 OFFCURVE",
"434 714 CURVE SMOOTH",
"201 714 OFFCURVE",
"56 517 OFFCURVE",
"56 277 CURVE SMOOTH"
);
},
{
closed = 1;
nodes = (
"392 773 OFFCURVE",
"414 753 OFFCURVE",
"446 753 CURVE SMOOTH",
"489 753 OFFCURVE",
"518 783 OFFCURVE",
"518 827 CURVE SMOOTH",
"518 857 OFFCURVE",
"497 877 OFFCURVE",
"466 877 CURVE SMOOTH",
"422 877 OFFCURVE",
"392 847 OFFCURVE",
"392 802 CURVE SMOOTH"
);
}
);
width = 647;
}
);
leftKerningGroup = C;
note = Cdotaccent;
unicode = 010A;
},
{
glyphname = D;
lastChange = "2018-03-13 07:06:37 +0000";
layers = (
{
anchors = (
{
name = bottom;
position = "{250, 0}";
},
{
name = center;
position = "{335, 350}";
},
{
name = top;
position = "{361, 700}";
}
);
layerId = "E15D9244-BBAC-404B-AB85-99F8751F40D3";
paths = (
{
closed = 1;
nodes = (
"12 -2 LINE",
"78 -2 OFFCURVE",
"154 -12 OFFCURVE",
"211 -12 CURVE SMOOTH",
"458 -12 OFFCURVE",
"617 175 OFFCURVE",
"617 425 CURVE SMOOTH",
"617 600 OFFCURVE",
"514 714 OFFCURVE",
"326 714 CURVE SMOOTH",
"269 714 OFFCURVE",
"190 704 OFFCURVE",
"124 704 CURVE",
"112 683 LINE",
"129 658 OFFCURVE",
"136 634 OFFCURVE",
"136 600 CURVE SMOOTH",
"136 577 OFFCURVE",
"133 549 OFFCURVE",
"127 514 CURVE SMOOTH",
"76 188 LINE SMOOTH",
"62 100 OFFCURVE",
"48 60 OFFCURVE",
"7 19 CURVE"
);
},
{
closed = 1;
nodes = (
"149 105 OFFCURVE",
"157 147 OFFCURVE",
"164 188 CURVE SMOOTH",
"215 514 LINE SMOOTH",
"219 540 OFFCURVE",
"223 567 OFFCURVE",
"223 593 CURVE SMOOTH",
"223 607 OFFCURVE",
"222 620 OFFCURVE",
"219 633 CURVE",
"253 636 OFFCURVE",
"284 640 OFFCURVE",
"316 640 CURVE SMOOTH",
"453 640 OFFCURVE",
"524 565 OFFCURVE",
"524 427 CURVE SMOOTH",
"524 227 OFFCURVE",
"422 62 OFFCURVE",
"225 62 CURVE SMOOTH",
"193 62 OFFCURVE",
"163 66 OFFCURVE",
"130 69 CURVE"
);
}
);
width = 641;
}
);
leftKerningGroup = E;
leftMetricsKey = E;
note = D;
rightKerningGroup = O;
rightMetricsKey = O;
unicode = 0044;
},
{
glyphname = Eth;
lastChange = "2018-03-13 07:06:37 +0000";
layers = (
{
anchors = (
{
name = bottom;
position = "{280, 0}";
},
{
name = center;
position = "{365, 350}";
},
{
name = top;
position = "{391, 700}";
}
);
layerId = "E15D9244-BBAC-404B-AB85-99F8751F40D3";
paths = (
{
closed = 1;
nodes = (
"42 -2 LINE",
"108 -2 OFFCURVE",
"184 -12 OFFCURVE",
"241 -12 CURVE SMOOTH",
"488 -12 OFFCURVE",
"647 175 OFFCURVE",
"647 425 CURVE SMOOTH",
"647 600 OFFCURVE",
"544 714 OFFCURVE",
"356 714 CURVE SMOOTH",
"299 714 OFFCURVE",
"220 704 OFFCURVE",
"154 704 CURVE",
"142 683 LINE",
"159 658 OFFCURVE",
"166 634 OFFCURVE",
"166 600 CURVE SMOOTH",
"166 577 OFFCURVE",
"163 549 OFFCURVE",
"157 514 CURVE SMOOTH",
"136 380 LINE",
"50 380 LINE",
"41 320 LINE",
"127 320 LINE",
"106 188 LINE SMOOTH",
"92 100 OFFCURVE",
"78 60 OFFCURVE",
"37 19 CURVE"
);
},
{
closed = 1;
nodes = (
"179 105 OFFCURVE",
"187 147 OFFCURVE",
"194 188 CURVE SMOOTH",
"215 320 LINE",
"391 320 LINE",
"400 380 LINE",
"224 380 LINE",
"245 514 LINE SMOOTH",
"249 540 OFFCURVE",
"253 567 OFFCURVE",
"253 593 CURVE SMOOTH",
"253 607 OFFCURVE",
"252 620 OFFCURVE",
"249 633 CURVE",
"283 636 OFFCURVE",
"314 640 OFFCURVE",
"346 640 CURVE SMOOTH",
"483 640 OFFCURVE",
"554 565 OFFCURVE",
"554 427 CURVE SMOOTH",
"554 227 OFFCURVE",
"452 62 OFFCURVE",
"255 62 CURVE SMOOTH",
"223 62 OFFCURVE",
"193 66 OFFCURVE",
"160 69 CURVE"
);
}
);
width = 671;
}
);
note = Eth;
rightMetricsKey = D;
unicode = 00D0;
},
{
glyphname = Dcaron;
lastChange = "2018-03-13 07:06:37 +0000";
layers = (
{
anchors = (
{
name = bottom;
position = "{250, 0}";
},
{
name = center;
position = "{335, 350}";
},
{
name = top;
position = "{394, 910}";
}
);
layerId = "E15D9244-BBAC-404B-AB85-99F8751F40D3";
paths = (
{
closed = 1;
nodes = (
"12 -2 LINE",
"78 -2 OFFCURVE",
"154 -12 OFFCURVE",
"211 -12 CURVE SMOOTH",
"458 -12 OFFCURVE",
"617 175 OFFCURVE",
"617 425 CURVE SMOOTH",
"617 600 OFFCURVE",
"514 714 OFFCURVE",
"326 714 CURVE SMOOTH",
"269 714 OFFCURVE",
"190 704 OFFCURVE",
"124 704 CURVE",
"112 683 LINE",
"129 658 OFFCURVE",
"136 634 OFFCURVE",
"136 600 CURVE SMOOTH",
"136 577 OFFCURVE",
"133 549 OFFCURVE",
"127 514 CURVE SMOOTH",
"76 188 LINE SMOOTH",
"62 100 OFFCURVE",
"48 60 OFFCURVE",
"7 19 CURVE"
);
},
{
closed = 1;
nodes = (
"149 105 OFFCURVE",
"157 147 OFFCURVE",
"164 188 CURVE SMOOTH",
"215 514 LINE SMOOTH",
"219 540 OFFCURVE",
"223 567 OFFCURVE",
"223 593 CURVE SMOOTH",
"223 607 OFFCURVE",
"222 620 OFFCURVE",
"219 633 CURVE",
"253 636 OFFCURVE",
"284 640 OFFCURVE",
"316 640 CURVE SMOOTH",
"453 640 OFFCURVE",
"524 565 OFFCURVE",
"524 427 CURVE SMOOTH",
"524 227 OFFCURVE",
"422 62 OFFCURVE",
"225 62 CURVE SMOOTH",
"193 62 OFFCURVE",
"163 66 OFFCURVE",
"130 69 CURVE"
);
},
{
closed = 1;
nodes = (
"329 752 LINE",
"409 752 LINE",
"552 900 LINE",
"512 900 LINE",
"376 812 LINE",
"272 900 LINE",
"232 900 LINE"
);
}
);
width = 641;
}
);
note = Dcaron;
rightKerningGroup = D;
unicode = 010E;
},
{
glyphname = Dcroat;
lastChange = "2018-03-13 07:06:37 +0000";
layers = (
{
anchors = (
{
name = bottom;
position = "{280, 0}";
},
{
name = center;
position = "{365, 350}";
},
{
name = top;
position = "{391, 700}";
}
);
layerId = "E15D9244-BBAC-404B-AB85-99F8751F40D3";
paths = (
{
closed = 1;
nodes = (
"42 -2 LINE",
"108 -2 OFFCURVE",
"184 -12 OFFCURVE",
"241 -12 CURVE SMOOTH",
"488 -12 OFFCURVE",
"647 175 OFFCURVE",
"647 425 CURVE SMOOTH",
"647 600 OFFCURVE",
"544 714 OFFCURVE",
"356 714 CURVE SMOOTH",
"299 714 OFFCURVE",
"220 704 OFFCURVE",
"154 704 CURVE",
"142 683 LINE",
"159 658 OFFCURVE",
"166 634 OFFCURVE",
"166 600 CURVE SMOOTH",
"166 577 OFFCURVE",
"163 549 OFFCURVE",
"157 514 CURVE SMOOTH",
"136 380 LINE",
"50 380 LINE",
"41 320 LINE",
"127 320 LINE",
"106 188 LINE SMOOTH",
"92 100 OFFCURVE",
"78 60 OFFCURVE",
"37 19 CURVE"
);
},
{
closed = 1;
nodes = (
"179 105 OFFCURVE",
"187 147 OFFCURVE",
"194 188 CURVE SMOOTH",
"215 320 LINE",
"391 320 LINE",
"400 380 LINE",
"224 380 LINE",
"245 514 LINE SMOOTH",
"249 540 OFFCURVE",
"253 567 OFFCURVE",
"253 593 CURVE SMOOTH",
"253 607 OFFCURVE",
"252 620 OFFCURVE",
"249 633 CURVE",
"283 636 OFFCURVE",
"314 640 OFFCURVE",
"346 640 CURVE SMOOTH",
"483 640 OFFCURVE",
"554 565 OFFCURVE",
"554 427 CURVE SMOOTH",
"554 227 OFFCURVE",
"452 62 OFFCURVE",
"255 62 CURVE SMOOTH",
"223 62 OFFCURVE",
"193 66 OFFCURVE",
"160 69 CURVE"
);
}
);
width = 671;
}
);
note = Dcroat;
unicode = 0110;
},
{
glyphname = Ddotbelow;
lastChange = "2018-03-13 07:06:37 +0000";
layers = (
{
anchors = (
{
name = bottom;
position = "{222, -175}";
},
{
name = center;
position = "{335, 350}";
},
{
name = top;
position = "{361, 700}";
}
);
layerId = "E15D9244-BBAC-404B-AB85-99F8751F40D3";
paths = (
{
closed = 1;
nodes = (
"12 -2 LINE",
"78 -2 OFFCURVE",
"154 -12 OFFCURVE",
"211 -12 CURVE SMOOTH",
"458 -12 OFFCURVE",
"617 175 OFFCURVE",
"617 425 CURVE SMOOTH",
"617 600 OFFCURVE",
"514 714 OFFCURVE",
"326 714 CURVE SMOOTH",
"269 714 OFFCURVE",
"190 704 OFFCURVE",
"124 704 CURVE",
"112 683 LINE",
"129 658 OFFCURVE",
"136 634 OFFCURVE",
"136 600 CURVE SMOOTH",
"136 577 OFFCURVE",
"133 549 OFFCURVE",
"127 514 CURVE SMOOTH",
"76 188 LINE SMOOTH",
"62 100 OFFCURVE",
"48 60 OFFCURVE",
"7 19 CURVE"
);
},
{
closed = 1;
nodes = (
"149 105 OFFCURVE",
"157 147 OFFCURVE",
"164 188 CURVE SMOOTH",
"215 514 LINE SMOOTH",
"219 540 OFFCURVE",
"223 567 OFFCURVE",
"223 593 CURVE SMOOTH",
"223 607 OFFCURVE",
"222 620 OFFCURVE",
"219 633 CURVE",
"253 636 OFFCURVE",
"284 640 OFFCURVE",
"316 640 CURVE SMOOTH",
"453 640 OFFCURVE",
"524 565 OFFCURVE",
"524 427 CURVE SMOOTH",
"524 227 OFFCURVE",
"422 62 OFFCURVE",
"225 62 CURVE SMOOTH",
"193 62 OFFCURVE",
"163 66 OFFCURVE",
"130 69 CURVE"
);
},
{
closed = 1;
nodes = (
"169 -155 OFFCURVE",
"191 -175 OFFCURVE",
"223 -175 CURVE SMOOTH",
"266 -175 OFFCURVE",
"295 -145 OFFCURVE",
"295 -101 CURVE SMOOTH",
"295 -71 OFFCURVE",
"274 -51 OFFCURVE",
"243 -51 CURVE SMOOTH",
"199 -51 OFFCURVE",
"169 -81 OFFCURVE",
"169 -126 CURVE SMOOTH"
);
}
);
width = 641;
}
);
note = Ddotbelow;
rightKerningGroup = D;
unicode = 1E0C;
},
{
glyphname = Dlinebelow;
lastChange = "2018-03-13 07:06:37 +0000";
layers = (
{
anchors = (
{
name = bottom;
position = "{233, -110}";
},
{
name = center;
position = "{335, 350}";
},
{
name = top;
position = "{361, 700}";
}
);
layerId = "E15D9244-BBAC-404B-AB85-99F8751F40D3";
paths = (
{
closed = 1;
nodes = (
"12 -2 LINE",
"78 -2 OFFCURVE",
"154 -12 OFFCURVE",
"211 -12 CURVE SMOOTH",
"458 -12 OFFCURVE",
"617 175 OFFCURVE",
"617 425 CURVE SMOOTH",
"617 600 OFFCURVE",
"514 714 OFFCURVE",
"326 714 CURVE SMOOTH",
"269 714 OFFCURVE",
"190 704 OFFCURVE",
"124 704 CURVE",
"112 683 LINE",
"129 658 OFFCURVE",
"136 634 OFFCURVE",
"136 600 CURVE SMOOTH",
"136 577 OFFCURVE",
"133 549 OFFCURVE",
"127 514 CURVE SMOOTH",
"76 188 LINE SMOOTH",
"62 100 OFFCURVE",
"48 60 OFFCURVE",
"7 19 CURVE"
);
},
{
closed = 1;
nodes = (
"383 -122 LINE",
"391 -72 LINE",
"87 -72 LINE",
"79 -122 LINE"
);
},
{
closed = 1;
nodes = (
"149 105 OFFCURVE",
"157 147 OFFCURVE",
"164 188 CURVE SMOOTH",
"215 514 LINE SMOOTH",
"219 540 OFFCURVE",
"223 567 OFFCURVE",
"223 593 CURVE SMOOTH",
"223 607 OFFCURVE",
"222 620 OFFCURVE",
"219 633 CURVE",
"253 636 OFFCURVE",
"284 640 OFFCURVE",
"316 640 CURVE SMOOTH",
"453 640 OFFCURVE",
"524 565 OFFCURVE",
"524 427 CURVE SMOOTH",
"524 227 OFFCURVE",
"422 62 OFFCURVE",
"225 62 CURVE SMOOTH",
"193 62 OFFCURVE",
"163 66 OFFCURVE",
"130 69 CURVE"
);
}
);
width = 641;
}
);
note = Dlinebelow;
rightKerningGroup = D;
unicode = 1E0E;
},
{
glyphname = E;
lastChange = "2018-03-13 07:06:37 +0000";
layers = (
{
anchors = (
{
name = bottom;
position = "{236, 0}";
},
{
name = ogonek;
position = "{396, 11}";
},
{
name = top;
position = "{347, 700}";
},
{
name = topleft;
position = "{91, 700}";
}
);
layerId = "E15D9244-BBAC-404B-AB85-99F8751F40D3";
paths = (
{
closed = 1;
nodes = (
"12 0 LINE",
"393 0 LINE SMOOTH",
"426 0 OFFCURVE",
"453 17 OFFCURVE",
"458 50 CURVE SMOOTH",
"459 57 OFFCURVE",
"460 67 OFFCURVE",
"458 76 CURVE",
"131 76 LINE",
"150 108 OFFCURVE",
"157 143 OFFCURVE",
"162 177 CURVE SMOOTH",
"185 320 LINE",
"396 320 LINE SMOOTH",
"429 320 OFFCURVE",
"455 337 OFFCURVE",
"461 370 CURVE",
"462 377 OFFCURVE",
"462 387 OFFCURVE",
"461 396 CURVE",
"197 396 LINE",
"217 523 LINE SMOOTH",
"222 557 OFFCURVE",
"227 592 OFFCURVE",
"218 624 CURVE",
"476 624 LINE SMOOTH",
"509 624 OFFCURVE",
"536 641 OFFCURVE",
"541 674 CURVE SMOOTH",
"542 681 OFFCURVE",
"542 691 OFFCURVE",
"541 700 CURVE",
"123 700 LINE",
"112 679 LINE",
"139 638 OFFCURVE",
"141 602 OFFCURVE",
"129 523 CURVE SMOOTH",
"74 177 LINE SMOOTH",
"62 98 OFFCURVE",
"48 62 OFFCURVE",
"7 21 CURVE"
);
}
);
width = 520;
}
);
leftKerningGroup = E;
note = E;
rightKerningGroup = E;
unicode = 0045;
},
{
glyphname = Eacute;
lastChange = "2018-03-13 07:06:37 +0000";
layers = (
{
anchors = (
{
name = bottom;
position = "{236, 0}";
},
{
name = ogonek;
position = "{396, 11}";
},
{
name = top;
position = "{424, 910}";
},
{
name = topleft;
position = "{91, 700}";
}
);
layerId = "E15D9244-BBAC-404B-AB85-99F8751F40D3";
paths = (
{
closed = 1;
nodes = (
"12 0 LINE",
"393 0 LINE SMOOTH",
"426 0 OFFCURVE",
"453 17 OFFCURVE",
"458 50 CURVE SMOOTH",
"459 57 OFFCURVE",
"460 67 OFFCURVE",
"458 76 CURVE",
"131 76 LINE",
"150 108 OFFCURVE",
"157 143 OFFCURVE",
"162 177 CURVE SMOOTH",
"185 320 LINE",
"396 320 LINE SMOOTH",
"429 320 OFFCURVE",
"455 337 OFFCURVE",
"461 370 CURVE",
"462 377 OFFCURVE",
"462 387 OFFCURVE",
"461 396 CURVE",
"197 396 LINE",
"217 523 LINE SMOOTH",
"222 557 OFFCURVE",
"227 592 OFFCURVE",
"218 624 CURVE",
"476 624 LINE SMOOTH",
"509 624 OFFCURVE",
"536 641 OFFCURVE",
"541 674 CURVE SMOOTH",
"542 681 OFFCURVE",
"542 691 OFFCURVE",
"541 700 CURVE",
"123 700 LINE",
"112 679 LINE",
"139 638 OFFCURVE",
"141 602 OFFCURVE",
"129 523 CURVE SMOOTH",
"74 177 LINE SMOOTH",
"62 98 OFFCURVE",
"48 62 OFFCURVE",
"7 21 CURVE"
);
},
{
closed = 1;
nodes = (
"342 752 LINE",
"474 910 LINE",
"378 910 LINE",
"302 752 LINE"
);
}
);
width = 520;
}
);
note = Eacute;
unicode = 00C9;
},
{
glyphname = Ebreve;
lastChange = "2018-03-13 07:06:37 +0000";
layers = (
{
anchors = (
{
name = bottom;
position = "{236, 0}";
},
{
name = ogonek;
position = "{396, 11}";
},
{
name = top;
position = "{377, 890}";
},
{
name = topleft;
position = "{91, 700}";
}
);
layerId = "E15D9244-BBAC-404B-AB85-99F8751F40D3";
paths = (
{
closed = 1;
nodes = (
"12 0 LINE",
"393 0 LINE SMOOTH",
"426 0 OFFCURVE",
"453 17 OFFCURVE",
"458 50 CURVE SMOOTH",
"459 57 OFFCURVE",
"460 67 OFFCURVE",
"458 76 CURVE",
"131 76 LINE",
"150 108 OFFCURVE",
"157 143 OFFCURVE",
"162 177 CURVE SMOOTH",
"185 320 LINE",
"396 320 LINE SMOOTH",
"429 320 OFFCURVE",
"455 337 OFFCURVE",
"461 370 CURVE",
"462 377 OFFCURVE",
"462 387 OFFCURVE",
"461 396 CURVE",
"197 396 LINE",
"217 523 LINE SMOOTH",
"222 557 OFFCURVE",
"227 592 OFFCURVE",
"218 624 CURVE",
"476 624 LINE SMOOTH",
"509 624 OFFCURVE",
"536 641 OFFCURVE",
"541 674 CURVE SMOOTH",
"542 681 OFFCURVE",
"542 691 OFFCURVE",
"541 700 CURVE",
"123 700 LINE",
"112 679 LINE",
"139 638 OFFCURVE",
"141 602 OFFCURVE",
"129 523 CURVE SMOOTH",
"74 177 LINE SMOOTH",
"62 98 OFFCURVE",
"48 62 OFFCURVE",
"7 21 CURVE"
);
},
{
closed = 1;
nodes = (
"227 802 OFFCURVE",
"277 746 OFFCURVE",
"359 746 CURVE SMOOTH",
"444 746 OFFCURVE",
"502 802 OFFCURVE",
"517 890 CURVE",
"479 890 LINE",
"469 842 OFFCURVE",
"424 812 OFFCURVE",
"365 812 CURVE SMOOTH",
"308 812 OFFCURVE",
"272 842 OFFCURVE",
"275 890 CURVE",
"237 890 LINE"
);
}
);
width = 520;
}
);
note = Ebreve;
unicode = 0114;
},
{
glyphname = Ecaron;
lastChange = "2018-03-13 07:06:37 +0000";
layers = (
{
anchors = (
{
name = bottom;
position = "{236, 0}";
},
{
name = ogonek;
position = "{396, 11}";
},
{
name = top;
position = "{380, 910}";
},
{
name = topleft;
position = "{91, 700}";
}
);
layerId = "E15D9244-BBAC-404B-AB85-99F8751F40D3";
paths = (
{
closed = 1;
nodes = (
"12 0 LINE",
"393 0 LINE SMOOTH",
"426 0 OFFCURVE",
"453 17 OFFCURVE",
"458 50 CURVE SMOOTH",
"459 57 OFFCURVE",
"460 67 OFFCURVE",
"458 76 CURVE",
"131 76 LINE",
"150 108 OFFCURVE",
"157 143 OFFCURVE",
"162 177 CURVE SMOOTH",
"185 320 LINE",
"396 320 LINE SMOOTH",
"429 320 OFFCURVE",
"455 337 OFFCURVE",
"461 370 CURVE",
"462 377 OFFCURVE",
"462 387 OFFCURVE",
"461 396 CURVE",
"197 396 LINE",
"217 523 LINE SMOOTH",
"222 557 OFFCURVE",
"227 592 OFFCURVE",
"218 624 CURVE",
"476 624 LINE SMOOTH",
"509 624 OFFCURVE",
"536 641 OFFCURVE",
"541 674 CURVE SMOOTH",
"542 681 OFFCURVE",
"542 691 OFFCURVE",
"541 700 CURVE",
"123 700 LINE",
"112 679 LINE",
"139 638 OFFCURVE",
"141 602 OFFCURVE",
"129 523 CURVE SMOOTH",
"74 177 LINE SMOOTH",
"62 98 OFFCURVE",
"48 62 OFFCURVE",
"7 21 CURVE"
);
},
{
closed = 1;
nodes = (
"315 752 LINE",
"395 752 LINE",
"538 900 LINE",
"498 900 LINE",
"362 812 LINE",
"258 900 LINE",
"218 900 LINE"
);
}
);
width = 520;
}
);
note = Ecaron;
unicode = 011A;
},
{
glyphname = Ecircumflex;
lastChange = "2018-03-13 07:06:37 +0000";
layers = (
{
anchors = (
{
name = bottom;
position = "{236, 0}";
},
{
name = ogonek;
position = "{396, 11}";
},
{
name = top;
position = "{378, 900}";
},
{
name = topleft;
position = "{91, 700}";
}
);
layerId = "E15D9244-BBAC-404B-AB85-99F8751F40D3";
paths = (
{
closed = 1;
nodes = (
"12 0 LINE",
"393 0 LINE SMOOTH",
"426 0 OFFCURVE",
"453 17 OFFCURVE",
"458 50 CURVE SMOOTH",
"459 57 OFFCURVE",
"460 67 OFFCURVE",
"458 76 CURVE",
"131 76 LINE",
"150 108 OFFCURVE",
"157 143 OFFCURVE",
"162 177 CURVE SMOOTH",
"185 320 LINE",
"396 320 LINE SMOOTH",
"429 320 OFFCURVE",
"455 337 OFFCURVE",
"461 370 CURVE",
"462 377 OFFCURVE",
"462 387 OFFCURVE",
"461 396 CURVE",
"197 396 LINE",
"217 523 LINE SMOOTH",
"222 557 OFFCURVE",
"227 592 OFFCURVE",
"218 624 CURVE",
"476 624 LINE SMOOTH",
"509 624 OFFCURVE",
"536 641 OFFCURVE",
"541 674 CURVE SMOOTH",
"542 681 OFFCURVE",
"542 691 OFFCURVE",
"541 700 CURVE",
"123 700 LINE",
"112 679 LINE",
"139 638 OFFCURVE",
"141 602 OFFCURVE",
"129 523 CURVE SMOOTH",
"74 177 LINE SMOOTH",
"62 98 OFFCURVE",
"48 62 OFFCURVE",
"7 21 CURVE"
);
},
{
closed = 1;
nodes = (
"235 752 LINE",
"372 840 LINE",
"475 752 LINE",
"515 752 LINE",
"418 900 LINE",
"338 900 LINE",
"195 752 LINE"
);
}
);
width = 520;
}
);
note = Ecircumflex;
unicode = 00CA;
},
{
glyphname = Ecircumflexacute;
lastChange = "2018-03-13 07:06:37 +0000";
layers = (
{
anchors = (
{
name = bottom;
position = "{236, 0}";
},
{
name = ogonek;
position = "{396, 11}";
},
{
name = top;
position = "{393, 990}";
},
{
name = topleft;
position = "{91, 700}";
}
);
layerId = "E15D9244-BBAC-404B-AB85-99F8751F40D3";
paths = (
{
closed = 1;
nodes = (
"12 0 LINE",
"393 0 LINE SMOOTH",
"426 0 OFFCURVE",
"453 17 OFFCURVE",
"458 50 CURVE SMOOTH",
"459 57 OFFCURVE",
"460 67 OFFCURVE",
"458 76 CURVE",
"131 76 LINE",
"150 108 OFFCURVE",
"157 143 OFFCURVE",
"162 177 CURVE SMOOTH",
"185 320 LINE",
"396 320 LINE SMOOTH",
"429 320 OFFCURVE",
"455 337 OFFCURVE",
"461 370 CURVE",
"462 377 OFFCURVE",
"462 387 OFFCURVE",
"461 396 CURVE",
"197 396 LINE",
"217 523 LINE SMOOTH",
"222 557 OFFCURVE",
"227 592 OFFCURVE",
"218 624 CURVE",
"476 624 LINE SMOOTH",
"509 624 OFFCURVE",
"536 641 OFFCURVE",
"541 674 CURVE SMOOTH",
"542 681 OFFCURVE",
"542 691 OFFCURVE",
"541 700 CURVE",
"123 700 LINE",
"112 679 LINE",
"139 638 OFFCURVE",
"141 602 OFFCURVE",
"129 523 CURVE SMOOTH",
"74 177 LINE SMOOTH",
"62 98 OFFCURVE",
"48 62 OFFCURVE",
"7 21 CURVE"
);
},
{
closed = 1;
nodes = (
"235 752 LINE",
"372 840 LINE",
"475 752 LINE",
"515 752 LINE",
"418 900 LINE",
"338 900 LINE",
"195 752 LINE"
);
},
{
closed = 1;
nodes = (
"513 857 LINE",
"619 983 LINE",
"542 983 LINE",
"481 857 LINE"
);
}
);
width = 520;
}
);
note = Ecircumflexacute;
unicode = 1EBE;
},
{
glyphname = Ecircumflexdotbelow;
lastChange = "2018-03-13 07:06:37 +0000";
layers = (
{
anchors = (
{
name = bottom;
position = "{208, -175}";
},
{
name = ogonek;
position = "{396, 11}";
},
{
name = top;
position = "{378, 900}";
},
{
name = topleft;
position = "{91, 700}";
}
);
layerId = "E15D9244-BBAC-404B-AB85-99F8751F40D3";
paths = (
{
closed = 1;
nodes = (
"12 0 LINE",
"393 0 LINE SMOOTH",
"426 0 OFFCURVE",
"453 17 OFFCURVE",
"458 50 CURVE SMOOTH",
"459 57 OFFCURVE",
"460 67 OFFCURVE",
"458 76 CURVE",
"131 76 LINE",
"150 108 OFFCURVE",
"157 143 OFFCURVE",
"162 177 CURVE SMOOTH",
"185 320 LINE",
"396 320 LINE SMOOTH",
"429 320 OFFCURVE",
"455 337 OFFCURVE",
"461 370 CURVE",
"462 377 OFFCURVE",
"462 387 OFFCURVE",
"461 396 CURVE",
"197 396 LINE",
"217 523 LINE SMOOTH",
"222 557 OFFCURVE",
"227 592 OFFCURVE",
"218 624 CURVE",
"476 624 LINE SMOOTH",
"509 624 OFFCURVE",
"536 641 OFFCURVE",
"541 674 CURVE SMOOTH",
"542 681 OFFCURVE",
"542 691 OFFCURVE",
"541 700 CURVE",
"123 700 LINE",
"112 679 LINE",
"139 638 OFFCURVE",
"141 602 OFFCURVE",
"129 523 CURVE SMOOTH",
"74 177 LINE SMOOTH",
"62 98 OFFCURVE",
"48 62 OFFCURVE",
"7 21 CURVE"
);
},
{
closed = 1;
nodes = (
"155 -155 OFFCURVE",
"177 -175 OFFCURVE",
"209 -175 CURVE SMOOTH",
"252 -175 OFFCURVE",
"281 -145 OFFCURVE",
"281 -101 CURVE SMOOTH",
"281 -71 OFFCURVE",
"260 -51 OFFCURVE",
"229 -51 CURVE SMOOTH",
"185 -51 OFFCURVE",
"155 -81 OFFCURVE",
"155 -126 CURVE SMOOTH"
);
},
{
closed = 1;
nodes = (
"235 752 LINE",
"372 840 LINE",
"475 752 LINE",
"515 752 LINE",
"418 900 LINE",
"338 900 LINE",
"195 752 LINE"
);
}
);
width = 520;
}
);
note = Ecircumflexdotbelow;
unicode = 1EC6;
},
{
glyphname = Ecircumflexgrave;
lastChange = "2018-03-13 07:06:37 +0000";
layers = (
{
anchors = (
{
name = bottom;
position = "{236, 0}";
},
{
name = ogonek;
position = "{396, 11}";
},
{
name = top;
position = "{390, 974}";
},
{
name = topleft;
position = "{91, 700}";
}
);
layerId = "E15D9244-BBAC-404B-AB85-99F8751F40D3";
paths = (
{
closed = 1;
nodes = (
"12 0 LINE",
"393 0 LINE SMOOTH",
"426 0 OFFCURVE",
"453 17 OFFCURVE",
"458 50 CURVE SMOOTH",
"459 57 OFFCURVE",
"460 67 OFFCURVE",
"458 76 CURVE",
"131 76 LINE",
"150 108 OFFCURVE",
"157 143 OFFCURVE",
"162 177 CURVE SMOOTH",
"185 320 LINE",
"396 320 LINE SMOOTH",
"429 320 OFFCURVE",
"455 337 OFFCURVE",
"461 370 CURVE",
"462 377 OFFCURVE",
"462 387 OFFCURVE",
"461 396 CURVE",
"197 396 LINE",
"217 523 LINE SMOOTH",
"222 557 OFFCURVE",
"227 592 OFFCURVE",
"218 624 CURVE",
"476 624 LINE SMOOTH",
"509 624 OFFCURVE",
"536 641 OFFCURVE",
"541 674 CURVE SMOOTH",
"542 681 OFFCURVE",
"542 691 OFFCURVE",
"541 700 CURVE",
"123 700 LINE",
"112 679 LINE",
"139 638 OFFCURVE",
"141 602 OFFCURVE",
"129 523 CURVE SMOOTH",
"74 177 LINE SMOOTH",
"62 98 OFFCURVE",
"48 62 OFFCURVE",
"7 21 CURVE"
);
},
{
closed = 1;
nodes = (
"235 752 LINE",
"372 840 LINE",
"475 752 LINE",
"515 752 LINE",
"418 900 LINE",
"338 900 LINE",
"195 752 LINE"
);
},
{
closed = 1;
nodes = (
"504 857 LINE",
"536 857 LINE",
"515 983 LINE",
"438 983 LINE"
);
}
);
width = 520;
}
);
note = Ecircumflexgrave;
unicode = 1EC0;
},
{
glyphname = Ecircumflexhookabove;
lastChange = "2018-03-13 07:06:37 +0000";
layers = (
{
anchors = (
{
name = bottom;
position = "{236, 0}";
},
{
name = ogonek;
position = "{396, 11}";
},
{
name = top;
position = "{394, 990}";
},
{
name = topleft;
position = "{91, 700}";
}
);
layerId = "E15D9244-BBAC-404B-AB85-99F8751F40D3";
paths = (
{
closed = 1;
nodes = (
"12 0 LINE",
"393 0 LINE SMOOTH",
"426 0 OFFCURVE",
"453 17 OFFCURVE",
"458 50 CURVE SMOOTH",
"459 57 OFFCURVE",
"460 67 OFFCURVE",
"458 76 CURVE",
"131 76 LINE",
"150 108 OFFCURVE",
"157 143 OFFCURVE",
"162 177 CURVE SMOOTH",
"185 320 LINE",
"396 320 LINE SMOOTH",
"429 320 OFFCURVE",
"455 337 OFFCURVE",
"461 370 CURVE",
"462 377 OFFCURVE",
"462 387 OFFCURVE",
"461 396 CURVE",
"197 396 LINE",
"217 523 LINE SMOOTH",
"222 557 OFFCURVE",
"227 592 OFFCURVE",
"218 624 CURVE",
"476 624 LINE SMOOTH",
"509 624 OFFCURVE",
"536 641 OFFCURVE",
"541 674 CURVE SMOOTH",
"542 681 OFFCURVE",
"542 691 OFFCURVE",
"541 700 CURVE",
"123 700 LINE",
"112 679 LINE",
"139 638 OFFCURVE",
"141 602 OFFCURVE",
"129 523 CURVE SMOOTH",
"74 177 LINE SMOOTH",
"62 98 OFFCURVE",
"48 62 OFFCURVE",
"7 21 CURVE"
);
},
{
closed = 1;
nodes = (
"235 752 LINE",
"372 840 LINE",
"475 752 LINE",
"515 752 LINE",
"418 900 LINE",
"338 900 LINE",
"195 752 LINE"
);
},
{
closed = 1;
nodes = (
"482 958 OFFCURVE",
"492 960 OFFCURVE",
"502 960 CURVE SMOOTH",
"521 960 OFFCURVE",
"530 952 OFFCURVE",
"530 937 CURVE SMOOTH",
"530 911 OFFCURVE",
"510 877 OFFCURVE",
"475 857 CURVE",
"522 857 LINE",
"565 877 OFFCURVE",
"590 921 OFFCURVE",
"590 959 CURVE SMOOTH",
"590 990 OFFCURVE",
"569 1005 OFFCURVE",
"533 1005 CURVE SMOOTH",
"514 1005 OFFCURVE",
"496 1001 OFFCURVE",
"480 993 CURVE",
"474 955 LINE"
);
}
);
width = 520;
}
);
note = Ecircumflexhookabove;
unicode = 1EC2;
},
{
glyphname = Ecircumflextilde;
lastChange = "2018-03-13 07:06:37 +0000";
layers = (
{
anchors = (
{
name = bottom;
position = "{236, 0}";
},
{
name = ogonek;
position = "{396, 11}";
},
{
name = top;
position = "{409, 1091}";
},
{
name = topleft;
position = "{91, 700}";
}
);
layerId = "E15D9244-BBAC-404B-AB85-99F8751F40D3";
paths = (
{
closed = 1;
nodes = (
"12 0 LINE",
"393 0 LINE SMOOTH",
"426 0 OFFCURVE",
"453 17 OFFCURVE",
"458 50 CURVE SMOOTH",
"459 57 OFFCURVE",
"460 67 OFFCURVE",
"458 76 CURVE",
"131 76 LINE",
"150 108 OFFCURVE",
"157 143 OFFCURVE",
"162 177 CURVE SMOOTH",
"185 320 LINE",
"396 320 LINE SMOOTH",
"429 320 OFFCURVE",
"455 337 OFFCURVE",
"461 370 CURVE",
"462 377 OFFCURVE",
"462 387 OFFCURVE",
"461 396 CURVE",
"197 396 LINE",
"217 523 LINE SMOOTH",
"222 557 OFFCURVE",
"227 592 OFFCURVE",
"218 624 CURVE",
"476 624 LINE SMOOTH",
"509 624 OFFCURVE",
"536 641 OFFCURVE",
"541 674 CURVE SMOOTH",
"542 681 OFFCURVE",
"542 691 OFFCURVE",
"541 700 CURVE",
"123 700 LINE",
"112 679 LINE",
"139 638 OFFCURVE",
"141 602 OFFCURVE",
"129 523 CURVE SMOOTH",
"74 177 LINE SMOOTH",
"62 98 OFFCURVE",
"48 62 OFFCURVE",
"7 21 CURVE"
);
},
{
closed = 1;
nodes = (
"235 752 LINE",
"372 840 LINE",
"475 752 LINE",
"515 752 LINE",
"418 900 LINE",
"338 900 LINE",
"195 752 LINE"
);
},
{
closed = 1;
nodes = (
"289 944 LINE",
"305 972 OFFCURVE",
"320 987 OFFCURVE",
"342 987 CURVE SMOOTH",
"377 987 OFFCURVE",
"390 944 OFFCURVE",
"436 944 CURVE SMOOTH",
"475 944 OFFCURVE",
"517 974 OFFCURVE",
"532 1044 CURVE",
"496 1044 LINE",
"481 1017 OFFCURVE",
"465 1001 OFFCURVE",
"443 1001 CURVE SMOOTH",
"407 1001 OFFCURVE",
"395 1044 OFFCURVE",
"349 1044 CURVE SMOOTH",
"310 1044 OFFCURVE",
"268 1013 OFFCURVE",
"252 944 CURVE"
);
}
);
width = 520;
}
);
note = Ecircumflextilde;
unicode = 1EC4;
},
{
glyphname = Edieresis;
lastChange = "2018-03-13 07:06:37 +0000";
layers = (
{
anchors = (
{
name = bottom;
position = "{236, 0}";
},
{
name = ogonek;
position = "{396, 11}";
},
{
name = top;
position = "{372, 858}";
},
{
name = topleft;
position = "{91, 700}";
}
);
layerId = "E15D9244-BBAC-404B-AB85-99F8751F40D3";
paths = (
{
closed = 1;
nodes = (
"12 0 LINE",
"393 0 LINE SMOOTH",
"426 0 OFFCURVE",
"453 17 OFFCURVE",
"458 50 CURVE SMOOTH",
"459 57 OFFCURVE",
"460 67 OFFCURVE",
"458 76 CURVE",
"131 76 LINE",
"150 108 OFFCURVE",
"157 143 OFFCURVE",
"162 177 CURVE SMOOTH",
"185 320 LINE",
"396 320 LINE SMOOTH",
"429 320 OFFCURVE",
"455 337 OFFCURVE",
"461 370 CURVE",
"462 377 OFFCURVE",
"462 387 OFFCURVE",
"461 396 CURVE",
"197 396 LINE",
"217 523 LINE SMOOTH",
"222 557 OFFCURVE",
"227 592 OFFCURVE",
"218 624 CURVE",
"476 624 LINE SMOOTH",
"509 624 OFFCURVE",
"536 641 OFFCURVE",
"541 674 CURVE SMOOTH",
"542 681 OFFCURVE",
"542 691 OFFCURVE",
"541 700 CURVE",
"123 700 LINE",
"112 679 LINE",
"139 638 OFFCURVE",
"141 602 OFFCURVE",
"129 523 CURVE SMOOTH",
"74 177 LINE SMOOTH",
"62 98 OFFCURVE",
"48 62 OFFCURVE",
"7 21 CURVE"
);
},
{
closed = 1;
nodes = (
"226 769 OFFCURVE",
"245 752 OFFCURVE",
"273 752 CURVE SMOOTH",
"310 752 OFFCURVE",
"334 777 OFFCURVE",
"334 815 CURVE SMOOTH",
"334 841 OFFCURVE",
"316 858 OFFCURVE",
"290 858 CURVE SMOOTH",
"252 858 OFFCURVE",
"226 832 OFFCURVE",
"226 794 CURVE SMOOTH"
);
},
{
closed = 1;
nodes = (
"392 769 OFFCURVE",
"411 752 OFFCURVE",
"439 752 CURVE SMOOTH",
"476 752 OFFCURVE",
"500 777 OFFCURVE",
"500 815 CURVE SMOOTH",
"500 841 OFFCURVE",
"482 858 OFFCURVE",
"456 858 CURVE SMOOTH",
"418 858 OFFCURVE",
"392 832 OFFCURVE",
"392 794 CURVE SMOOTH"
);
}
);
width = 520;
}
);
note = Edieresis;
unicode = 00CB;
},
{
glyphname = Edotaccent;
lastChange = "2018-03-13 07:06:37 +0000";
layers = (
{
anchors = (
{
name = bottom;
position = "{236, 0}";
},
{
name = ogonek;
position = "{396, 11}";
},
{
name = top;
position = "{376, 877}";
},
{
name = topleft;
position = "{91, 700}";
}
);
layerId = "E15D9244-BBAC-404B-AB85-99F8751F40D3";
paths = (
{
closed = 1;
nodes = (
"12 0 LINE",
"393 0 LINE SMOOTH",
"426 0 OFFCURVE",
"453 17 OFFCURVE",
"458 50 CURVE SMOOTH",
"459 57 OFFCURVE",
"460 67 OFFCURVE",
"458 76 CURVE",
"131 76 LINE",
"150 108 OFFCURVE",
"157 143 OFFCURVE",
"162 177 CURVE SMOOTH",
"185 320 LINE",
"396 320 LINE SMOOTH",
"429 320 OFFCURVE",
"455 337 OFFCURVE",
"461 370 CURVE",
"462 377 OFFCURVE",
"462 387 OFFCURVE",
"461 396 CURVE",
"197 396 LINE",
"217 523 LINE SMOOTH",
"222 557 OFFCURVE",
"227 592 OFFCURVE",
"218 624 CURVE",
"476 624 LINE SMOOTH",
"509 624 OFFCURVE",
"536 641 OFFCURVE",
"541 674 CURVE SMOOTH",
"542 681 OFFCURVE",
"542 691 OFFCURVE",
"541 700 CURVE",
"123 700 LINE",
"112 679 LINE",
"139 638 OFFCURVE",
"141 602 OFFCURVE",
"129 523 CURVE SMOOTH",
"74 177 LINE SMOOTH",
"62 98 OFFCURVE",
"48 62 OFFCURVE",
"7 21 CURVE"
);
},
{
closed = 1;
nodes = (
"302 773 OFFCURVE",
"324 753 OFFCURVE",
"356 753 CURVE SMOOTH",
"399 753 OFFCURVE",
"428 783 OFFCURVE",
"428 827 CURVE SMOOTH",
"428 857 OFFCURVE",
"407 877 OFFCURVE",
"376 877 CURVE SMOOTH",
"332 877 OFFCURVE",
"302 847 OFFCURVE",
"302 802 CURVE SMOOTH"
);
}
);
width = 520;
}
);
note = Edotaccent;
unicode = 0116;
},
{
glyphname = Edotbelow;
lastChange = "2018-03-13 07:06:37 +0000";
layers = (
{
anchors = (
{
name = bottom;
position = "{208, -175}";
},
{
name = ogonek;
position = "{396, 11}";
},
{
name = top;
position = "{347, 700}";
},
{
name = topleft;
position = "{91, 700}";
}
);
layerId = "E15D9244-BBAC-404B-AB85-99F8751F40D3";
paths = (
{
closed = 1;
nodes = (
"12 0 LINE",
"393 0 LINE SMOOTH",
"426 0 OFFCURVE",
"453 17 OFFCURVE",
"458 50 CURVE SMOOTH",
"459 57 OFFCURVE",
"460 67 OFFCURVE",
"458 76 CURVE",
"131 76 LINE",
"150 108 OFFCURVE",
"157 143 OFFCURVE",
"162 177 CURVE SMOOTH",
"185 320 LINE",
"396 320 LINE SMOOTH",
"429 320 OFFCURVE",
"455 337 OFFCURVE",
"461 370 CURVE",
"462 377 OFFCURVE",
"462 387 OFFCURVE",
"461 396 CURVE",
"197 396 LINE",
"217 523 LINE SMOOTH",
"222 557 OFFCURVE",
"227 592 OFFCURVE",
"218 624 CURVE",
"476 624 LINE SMOOTH",
"509 624 OFFCURVE",
"536 641 OFFCURVE",
"541 674 CURVE SMOOTH",
"542 681 OFFCURVE",
"542 691 OFFCURVE",
"541 700 CURVE",
"123 700 LINE",
"112 679 LINE",
"139 638 OFFCURVE",
"141 602 OFFCURVE",
"129 523 CURVE SMOOTH",
"74 177 LINE SMOOTH",
"62 98 OFFCURVE",
"48 62 OFFCURVE",
"7 21 CURVE"
);
},
{
closed = 1;
nodes = (
"155 -155 OFFCURVE",
"177 -175 OFFCURVE",
"209 -175 CURVE SMOOTH",
"252 -175 OFFCURVE",
"281 -145 OFFCURVE",
"281 -101 CURVE SMOOTH",
"281 -71 OFFCURVE",
"260 -51 OFFCURVE",
"229 -51 CURVE SMOOTH",
"185 -51 OFFCURVE",
"155 -81 OFFCURVE",
"155 -126 CURVE SMOOTH"
);
}
);
width = 520;
}
);
note = Edotbelow;
unicode = 1EB8;
},
{
glyphname = Egrave;
lastChange = "2018-03-13 07:06:37 +0000";
layers = (
{
anchors = (
{
name = bottom;
position = "{236, 0}";
},
{
name = ogonek;
position = "{396, 11}";
},
{
name = top;
position = "{350, 910}";
},
{
name = topleft;
position = "{91, 700}";
}
);
layerId = "E15D9244-BBAC-404B-AB85-99F8751F40D3";
paths = (
{
closed = 1;
nodes = (
"12 0 LINE",
"393 0 LINE SMOOTH",
"426 0 OFFCURVE",
"453 17 OFFCURVE",
"458 50 CURVE SMOOTH",
"459 57 OFFCURVE",
"460 67 OFFCURVE",
"458 76 CURVE",
"131 76 LINE",
"150 108 OFFCURVE",
"157 143 OFFCURVE",
"162 177 CURVE SMOOTH",
"185 320 LINE",
"396 320 LINE SMOOTH",
"429 320 OFFCURVE",
"455 337 OFFCURVE",
"461 370 CURVE",
"462 377 OFFCURVE",
"462 387 OFFCURVE",
"461 396 CURVE",
"197 396 LINE",
"217 523 LINE SMOOTH",
"222 557 OFFCURVE",
"227 592 OFFCURVE",
"218 624 CURVE",
"476 624 LINE SMOOTH",
"509 624 OFFCURVE",
"536 641 OFFCURVE",
"541 674 CURVE SMOOTH",
"542 681 OFFCURVE",
"542 691 OFFCURVE",
"541 700 CURVE",
"123 700 LINE",
"112 679 LINE",
"139 638 OFFCURVE",
"141 602 OFFCURVE",
"129 523 CURVE SMOOTH",
"74 177 LINE SMOOTH",
"62 98 OFFCURVE",
"48 62 OFFCURVE",
"7 21 CURVE"
);
},
{
closed = 1;
nodes = (
"374 752 LINE",
"414 752 LINE",
"388 910 LINE",
"292 910 LINE"
);
}
);
width = 520;
}
);
note = Egrave;
unicode = 00C8;
},
{
glyphname = Ehookabove;
lastChange = "2018-03-13 07:06:37 +0000";
layers = (
{
anchors = (
{
name = bottom;
position = "{236, 0}";
},
{
name = ogonek;
position = "{396, 11}";
},
{
name = top;
position = "{388, 937}";
},
{
name = topleft;
position = "{91, 700}";
}
);
layerId = "E15D9244-BBAC-404B-AB85-99F8751F40D3";
paths = (
{
closed = 1;
nodes = (
"12 0 LINE",
"393 0 LINE SMOOTH",
"426 0 OFFCURVE",
"453 17 OFFCURVE",
"458 50 CURVE SMOOTH",
"459 57 OFFCURVE",
"460 67 OFFCURVE",
"458 76 CURVE",
"131 76 LINE",
"150 108 OFFCURVE",
"157 143 OFFCURVE",
"162 177 CURVE SMOOTH",
"185 320 LINE",
"396 320 LINE SMOOTH",
"429 320 OFFCURVE",
"455 337 OFFCURVE",
"461 370 CURVE",
"462 377 OFFCURVE",
"462 387 OFFCURVE",
"461 396 CURVE",
"197 396 LINE",
"217 523 LINE SMOOTH",
"222 557 OFFCURVE",
"227 592 OFFCURVE",
"218 624 CURVE",
"476 624 LINE SMOOTH",
"509 624 OFFCURVE",
"536 641 OFFCURVE",
"541 674 CURVE SMOOTH",
"542 681 OFFCURVE",
"542 691 OFFCURVE",
"541 700 CURVE",
"123 700 LINE",
"112 679 LINE",
"139 638 OFFCURVE",
"141 602 OFFCURVE",
"129 523 CURVE SMOOTH",
"74 177 LINE SMOOTH",
"62 98 OFFCURVE",
"48 62 OFFCURVE",
"7 21 CURVE"
);
},
{
closed = 1;
nodes = (
"318 879 OFFCURVE",
"330 881 OFFCURVE",
"342 881 CURVE SMOOTH",
"366 881 OFFCURVE",
"377 871 OFFCURVE",
"377 853 CURVE SMOOTH",
"377 820 OFFCURVE",
"352 777 OFFCURVE",
"309 752 CURVE",
"367 752 LINE",
"421 778 OFFCURVE",
"453 833 OFFCURVE",
"453 880 CURVE SMOOTH",
"453 919 OFFCURVE",
"426 937 OFFCURVE",
"381 937 CURVE SMOOTH",
"357 937 OFFCURVE",
"335 932 OFFCURVE",
"315 922 CURVE",
"307 875 LINE"
);
}
);
width = 520;
}
);
note = Ehookabove;
unicode = 1EBA;
},
{
glyphname = Emacron;
lastChange = "2018-03-13 07:06:37 +0000";
layers = (
{
anchors = (
{
name = bottom;
position = "{236, 0}";
},
{
name = ogonek;
position = "{396, 11}";
},
{
name = top;
position = "{366, 823}";
},
{
name = topleft;
position = "{91, 700}";
}
);
layerId = "E15D9244-BBAC-404B-AB85-99F8751F40D3";
paths = (
{
closed = 1;
nodes = (
"12 0 LINE",
"393 0 LINE SMOOTH",
"426 0 OFFCURVE",
"453 17 OFFCURVE",
"458 50 CURVE SMOOTH",
"459 57 OFFCURVE",
"460 67 OFFCURVE",
"458 76 CURVE",
"131 76 LINE",
"150 108 OFFCURVE",
"157 143 OFFCURVE",
"162 177 CURVE SMOOTH",
"185 320 LINE",
"396 320 LINE SMOOTH",
"429 320 OFFCURVE",
"455 337 OFFCURVE",
"461 370 CURVE",
"462 377 OFFCURVE",
"462 387 OFFCURVE",
"461 396 CURVE",
"197 396 LINE",
"217 523 LINE SMOOTH",
"222 557 OFFCURVE",
"227 592 OFFCURVE",
"218 624 CURVE",
"476 624 LINE SMOOTH",
"509 624 OFFCURVE",
"536 641 OFFCURVE",
"541 674 CURVE SMOOTH",
"542 681 OFFCURVE",
"542 691 OFFCURVE",
"541 700 CURVE",
"123 700 LINE",
"112 679 LINE",
"139 638 OFFCURVE",
"141 602 OFFCURVE",
"129 523 CURVE SMOOTH",
"74 177 LINE SMOOTH",
"62 98 OFFCURVE",
"48 62 OFFCURVE",
"7 21 CURVE"
);
},
{
closed = 1;
nodes = (
"510 772 LINE",
"518 822 LINE",
"214 822 LINE",
"206 772 LINE"
);
}
);
width = 520;
}
);
note = Emacron;
unicode = 0112;
},
{
glyphname = Eogonek;
lastChange = "2018-03-13 07:06:37 +0000";
layers = (
{
anchors = (
{
name = bottom;
position = "{236, 0}";
},
{
name = ogonek;
position = "{396, 11}";
},
{
name = top;
position = "{347, 700}";
},
{
name = topleft;
position = "{91, 700}";
}
);
layerId = "E15D9244-BBAC-404B-AB85-99F8751F40D3";
paths = (
{
closed = 1;
nodes = (
"12 0 LINE",
"366 0 LINE",
"335 -19 OFFCURVE",
"288 -54 OFFCURVE",
"288 -105 CURVE SMOOTH",
"288 -149 OFFCURVE",
"321 -174 OFFCURVE",
"366 -174 CURVE SMOOTH",
"393 -174 OFFCURVE",
"410 -168 OFFCURVE",
"425 -159 CURVE",
"433 -112 LINE",
"422 -116 OFFCURVE",
"413 -118 OFFCURVE",
"398 -118 CURVE SMOOTH",
"384 -118 OFFCURVE",
"363 -114 OFFCURVE",
"363 -83 CURVE SMOOTH",
"363 -49 OFFCURVE",
"401 -8 OFFCURVE",
"419 4 CURVE",
"439 11 OFFCURVE",
"454 26 OFFCURVE",
"458 50 CURVE SMOOTH",
"459 57 OFFCURVE",
"460 67 OFFCURVE",
"458 76 CURVE",
"131 76 LINE",
"150 108 OFFCURVE",
"157 143 OFFCURVE",
"162 177 CURVE SMOOTH",
"185 320 LINE",
"396 320 LINE SMOOTH",
"429 320 OFFCURVE",
"455 337 OFFCURVE",
"461 370 CURVE",
"462 377 OFFCURVE",
"462 387 OFFCURVE",
"461 396 CURVE",
"197 396 LINE",
"217 523 LINE SMOOTH",
"222 557 OFFCURVE",
"227 592 OFFCURVE",
"218 624 CURVE",
"476 624 LINE SMOOTH",
"509 624 OFFCURVE",
"536 641 OFFCURVE",
"541 674 CURVE SMOOTH",
"542 681 OFFCURVE",
"542 691 OFFCURVE",
"541 700 CURVE",
"123 700 LINE",
"112 679 LINE",
"139 638 OFFCURVE",
"141 602 OFFCURVE",
"129 523 CURVE SMOOTH",
"74 177 LINE SMOOTH",
"62 98 OFFCURVE",
"48 62 OFFCURVE",
"7 21 CURVE"
);
}
);
width = 520;
}
);
note = Eogonek;
unicode = 0118;
},
{
glyphname = Etilde;
lastChange = "2018-03-13 07:06:37 +0000";
layers = (
{
anchors = (
{
name = bottom;
position = "{236, 0}";
},
{
name = ogonek;
position = "{396, 11}";
},
{
name = top;
position = "{375, 878}";
},
{
name = topleft;
position = "{91, 700}";
}
);
layerId = "E15D9244-BBAC-404B-AB85-99F8751F40D3";
paths = (
{
closed = 1;
nodes = (
"12 0 LINE",
"393 0 LINE SMOOTH",
"426 0 OFFCURVE",
"453 17 OFFCURVE",
"458 50 CURVE SMOOTH",
"459 57 OFFCURVE",
"460 67 OFFCURVE",
"458 76 CURVE",
"131 76 LINE",
"150 108 OFFCURVE",
"157 143 OFFCURVE",
"162 177 CURVE SMOOTH",
"185 320 LINE",
"396 320 LINE SMOOTH",
"429 320 OFFCURVE",
"455 337 OFFCURVE",
"461 370 CURVE",
"462 377 OFFCURVE",
"462 387 OFFCURVE",
"461 396 CURVE",
"197 396 LINE",
"217 523 LINE SMOOTH",
"222 557 OFFCURVE",
"227 592 OFFCURVE",
"218 624 CURVE",
"476 624 LINE SMOOTH",
"509 624 OFFCURVE",
"536 641 OFFCURVE",
"541 674 CURVE SMOOTH",
"542 681 OFFCURVE",
"542 691 OFFCURVE",
"541 700 CURVE",
"123 700 LINE",
"112 679 LINE",
"139 638 OFFCURVE",
"141 602 OFFCURVE",
"129 523 CURVE SMOOTH",
"74 177 LINE SMOOTH",
"62 98 OFFCURVE",
"48 62 OFFCURVE",
"7 21 CURVE"
);
},
{
closed = 1;
nodes = (
"244 752 LINE",
"262 784 OFFCURVE",
"280 802 OFFCURVE",
"305 802 CURVE SMOOTH",
"346 802 OFFCURVE",
"361 752 OFFCURVE",
"415 752 CURVE SMOOTH",
"460 752 OFFCURVE",
"509 786 OFFCURVE",
"527 868 CURVE",
"484 868 LINE",
"467 836 OFFCURVE",
"448 818 OFFCURVE",
"423 818 CURVE SMOOTH",
"381 818 OFFCURVE",
"367 868 OFFCURVE",
"314 868 CURVE SMOOTH",
"268 868 OFFCURVE",
"220 832 OFFCURVE",
"201 752 CURVE"
);
}
);
width = 520;
}
);
note = Etilde;
unicode = 1EBC;
},
{
glyphname = F;
lastChange = "2018-03-13 07:06:37 +0000";
layers = (
{
anchors = (
{
name = bottom;
position = "{86, 0}";
},
{
name = top;
position = "{330, 700}";
}
);
layerId = "E15D9244-BBAC-404B-AB85-99F8751F40D3";
paths = (
{
closed = 1;
nodes = (
"54 -5 OFFCURVE",
"64 -6 OFFCURVE",
"72 -6 CURVE SMOOTH",
"110 -6 OFFCURVE",
"135 20 OFFCURVE",
"141 59 CURVE SMOOTH",
"181 310 LINE",
"376 310 LINE SMOOTH",
"409 310 OFFCURVE",
"436 327 OFFCURVE",
"441 360 CURVE SMOOTH",
"442 367 OFFCURVE",
"443 377 OFFCURVE",
"441 386 CURVE",
"193 386 LINE",
"215 523 LINE SMOOTH",
"220 557 OFFCURVE",
"225 592 OFFCURVE",
"216 624 CURVE",
"474 624 LINE SMOOTH",
"507 624 OFFCURVE",
"534 641 OFFCURVE",
"539 674 CURVE SMOOTH",
"540 681 OFFCURVE",
"540 691 OFFCURVE",
"539 700 CURVE",
"121 700 LINE",
"110 679 LINE",
"137 638 OFFCURVE",
"139 602 OFFCURVE",
"127 523 CURVE SMOOTH",
"44 -2 LINE"
);
}
);
width = 498;
}
);
leftKerningGroup = F;
note = F;
rightKerningGroup = F;
unicode = 0046;
},
{
glyphname = G;
layers = (
{
anchors = (
{
name = bottom;
position = "{315, 0}";
},
{
name = top;
position = "{426, 700}";
}
);
layerId = "E15D9244-BBAC-404B-AB85-99F8751F40D3";
paths = (
{
closed = 1;
nodes = (
"55 101 OFFCURVE",
"160 -12 OFFCURVE",
"327 -12 CURVE SMOOTH",
"523 -12 OFFCURVE",
"650 135 OFFCURVE",
"650 325 CURVE SMOOTH",
"650 335 OFFCURVE",
"650 346 OFFCURVE",
"648 356 CURVE",
"442 356 LINE SMOOTH",
"405 356 OFFCURVE",
"376 335 OFFCURVE",
"376 294 CURVE SMOOTH",
"376 289 OFFCURVE",
"377 285 OFFCURVE",
"377 280 CURVE",
"562 280 LINE",
"541 147 OFFCURVE",
"446 62 OFFCURVE",
"327 62 CURVE SMOOTH",
"212 62 OFFCURVE",
"148 142 OFFCURVE",
"148 273 CURVE SMOOTH",
"148 458 OFFCURVE",
"247 640 OFFCURVE",
"424 640 CURVE SMOOTH",
"510 640 OFFCURVE",
"580 597 OFFCURVE",
"616 527 CURVE",
"658 538 OFFCURVE",
"662 574 OFFCURVE",
"662 589 CURVE SMOOTH",
"662 657 OFFCURVE",
"555 714 OFFCURVE",
"431 714 CURVE SMOOTH",
"197 714 OFFCURVE",
"55 515 OFFCURVE",
"55 273 CURVE SMOOTH"
);
}
);
width = 688;
}
);
leftKerningGroup = O;
leftMetricsKey = O;
note = G;
rightKerningGroup = G;
unicode = 0047;
},
{
glyphname = Gbreve;
layers = (
{
anchors = (
{
name = bottom;
position = "{315, 0}";
},
{
name = top;
position = "{456, 890}";
}
);
layerId = "E15D9244-BBAC-404B-AB85-99F8751F40D3";
paths = (
{
closed = 1;
nodes = (
"55 101 OFFCURVE",
"160 -12 OFFCURVE",
"327 -12 CURVE SMOOTH",
"523 -12 OFFCURVE",
"650 135 OFFCURVE",
"650 325 CURVE SMOOTH",
"650 335 OFFCURVE",
"650 346 OFFCURVE",
"648 356 CURVE",
"442 356 LINE SMOOTH",
"405 356 OFFCURVE",
"376 335 OFFCURVE",
"376 294 CURVE SMOOTH",
"376 289 OFFCURVE",
"377 285 OFFCURVE",
"377 280 CURVE",
"562 280 LINE",
"541 147 OFFCURVE",
"446 62 OFFCURVE",
"327 62 CURVE SMOOTH",
"212 62 OFFCURVE",
"148 142 OFFCURVE",
"148 273 CURVE SMOOTH",
"148 458 OFFCURVE",
"247 640 OFFCURVE",
"424 640 CURVE SMOOTH",
"510 640 OFFCURVE",
"580 597 OFFCURVE",
"616 527 CURVE",
"658 538 OFFCURVE",
"662 574 OFFCURVE",
"662 589 CURVE SMOOTH",
"662 657 OFFCURVE",
"555 714 OFFCURVE",
"431 714 CURVE SMOOTH",
"197 714 OFFCURVE",
"55 515 OFFCURVE",
"55 273 CURVE SMOOTH"
);
},
{
closed = 1;
nodes = (
"306 802 OFFCURVE",
"356 746 OFFCURVE",
"438 746 CURVE SMOOTH",
"523 746 OFFCURVE",
"581 802 OFFCURVE",
"596 890 CURVE",
"558 890 LINE",
"548 842 OFFCURVE",
"503 812 OFFCURVE",
"444 812 CURVE SMOOTH",
"387 812 OFFCURVE",
"351 842 OFFCURVE",
"354 890 CURVE",
"316 890 LINE"
);
}
);
width = 688;
}
);
leftKerningGroup = G;
note = Gbreve;
unicode = 011E;
},
{
glyphname = Gcaron;
layers = (
{
anchors = (
{
name = bottom;
position = "{315, 0}";
},
{
name = top;
position = "{459, 910}";
}
);
layerId = "E15D9244-BBAC-404B-AB85-99F8751F40D3";
paths = (
{
closed = 1;
nodes = (
"55 101 OFFCURVE",
"160 -12 OFFCURVE",
"327 -12 CURVE SMOOTH",
"523 -12 OFFCURVE",
"650 135 OFFCURVE",
"650 325 CURVE SMOOTH",
"650 335 OFFCURVE",
"650 346 OFFCURVE",
"648 356 CURVE",
"442 356 LINE SMOOTH",
"405 356 OFFCURVE",
"376 335 OFFCURVE",
"376 294 CURVE SMOOTH",
"376 289 OFFCURVE",
"377 285 OFFCURVE",
"377 280 CURVE",
"562 280 LINE",
"541 147 OFFCURVE",
"446 62 OFFCURVE",
"327 62 CURVE SMOOTH",
"212 62 OFFCURVE",
"148 142 OFFCURVE",
"148 273 CURVE SMOOTH",
"148 458 OFFCURVE",
"247 640 OFFCURVE",
"424 640 CURVE SMOOTH",
"510 640 OFFCURVE",
"580 597 OFFCURVE",
"616 527 CURVE",
"658 538 OFFCURVE",
"662 574 OFFCURVE",
"662 589 CURVE SMOOTH",
"662 657 OFFCURVE",
"555 714 OFFCURVE",
"431 714 CURVE SMOOTH",
"197 714 OFFCURVE",
"55 515 OFFCURVE",
"55 273 CURVE SMOOTH"
);
},
{
closed = 1;
nodes = (
"394 752 LINE",
"474 752 LINE",
"617 900 LINE",
"577 900 LINE",
"441 812 LINE",
"337 900 LINE",
"297 900 LINE"
);
}
);
width = 688;
}
);
leftKerningGroup = G;
note = Gcaron;
unicode = 01E6;
},
{
glyphname = Gcircumflex;
layers = (
{
anchors = (
{
name = bottom;
position = "{315, 0}";
},
{
name = top;
position = "{457, 900}";
}
);
layerId = "E15D9244-BBAC-404B-AB85-99F8751F40D3";
paths = (
{
closed = 1;
nodes = (
"55 101 OFFCURVE",
"160 -12 OFFCURVE",
"327 -12 CURVE SMOOTH",
"523 -12 OFFCURVE",
"650 135 OFFCURVE",
"650 325 CURVE SMOOTH",
"650 335 OFFCURVE",
"650 346 OFFCURVE",
"648 356 CURVE",
"442 356 LINE SMOOTH",
"405 356 OFFCURVE",
"376 335 OFFCURVE",
"376 294 CURVE SMOOTH",
"376 289 OFFCURVE",
"377 285 OFFCURVE",
"377 280 CURVE",
"562 280 LINE",
"541 147 OFFCURVE",
"446 62 OFFCURVE",
"327 62 CURVE SMOOTH",
"212 62 OFFCURVE",
"148 142 OFFCURVE",
"148 273 CURVE SMOOTH",
"148 458 OFFCURVE",
"247 640 OFFCURVE",
"424 640 CURVE SMOOTH",
"510 640 OFFCURVE",
"580 597 OFFCURVE",
"616 527 CURVE",
"658 538 OFFCURVE",
"662 574 OFFCURVE",
"662 589 CURVE SMOOTH",
"662 657 OFFCURVE",
"555 714 OFFCURVE",
"431 714 CURVE SMOOTH",
"197 714 OFFCURVE",
"55 515 OFFCURVE",
"55 273 CURVE SMOOTH"
);
},
{
closed = 1;
nodes = (
"314 752 LINE",
"451 840 LINE",
"554 752 LINE",
"594 752 LINE",
"497 900 LINE",
"417 900 LINE",
"274 752 LINE"
);
}
);
width = 688;
}
);
leftKerningGroup = G;
note = Gcircumflex;
unicode = 011C;
},
{
glyphname = Gcommaaccent;
layers = (
{
anchors = (
{
name = bottom;
position = "{268, -299}";
},
{
name = top;
position = "{426, 700}";
}
);
layerId = "E15D9244-BBAC-404B-AB85-99F8751F40D3";
paths = (
{
closed = 1;
nodes = (
"55 101 OFFCURVE",
"160 -12 OFFCURVE",
"327 -12 CURVE SMOOTH",
"523 -12 OFFCURVE",
"650 135 OFFCURVE",
"650 325 CURVE SMOOTH",
"650 335 OFFCURVE",
"650 346 OFFCURVE",
"648 356 CURVE",
"442 356 LINE SMOOTH",
"405 356 OFFCURVE",
"376 335 OFFCURVE",
"376 294 CURVE SMOOTH",
"376 289 OFFCURVE",
"377 285 OFFCURVE",
"377 280 CURVE",
"562 280 LINE",
"541 147 OFFCURVE",
"446 62 OFFCURVE",
"327 62 CURVE SMOOTH",
"212 62 OFFCURVE",
"148 142 OFFCURVE",
"148 273 CURVE SMOOTH",
"148 458 OFFCURVE",
"247 640 OFFCURVE",
"424 640 CURVE SMOOTH",
"510 640 OFFCURVE",
"580 597 OFFCURVE",
"616 527 CURVE",
"658 538 OFFCURVE",
"662 574 OFFCURVE",
"662 589 CURVE SMOOTH",
"662 657 OFFCURVE",
"555 714 OFFCURVE",
"431 714 CURVE SMOOTH",
"197 714 OFFCURVE",
"55 515 OFFCURVE",
"55 273 CURVE SMOOTH"
);
},
{
closed = 1;
nodes = (
"245 -306 LINE",
"319 -263 OFFCURVE",
"359 -184 OFFCURVE",
"359 -124 CURVE SMOOTH",
"359 -80 OFFCURVE",
"330 -60 OFFCURVE",
"299 -60 CURVE SMOOTH",
"259 -60 OFFCURVE",
"230 -93 OFFCURVE",
"230 -133 CURVE SMOOTH",
"230 -162 OFFCURVE",
"252 -184 OFFCURVE",
"284 -184 CURVE",
"282 -221 OFFCURVE",
"260 -248 OFFCURVE",
"225 -272 CURVE"
);
}
);
width = 688;
}
);
leftKerningGroup = G;
note = Gcommaaccent;
unicode = 0122;
},
{
glyphname = Gdotaccent;
layers = (
{
anchors = (
{
name = bottom;
position = "{315, 0}";
},
{
name = top;
position = "{455, 877}";
}
);
layerId = "E15D9244-BBAC-404B-AB85-99F8751F40D3";
paths = (
{
closed = 1;
nodes = (
"55 101 OFFCURVE",
"160 -12 OFFCURVE",
"327 -12 CURVE SMOOTH",
"523 -12 OFFCURVE",
"650 135 OFFCURVE",
"650 325 CURVE SMOOTH",
"650 335 OFFCURVE",
"650 346 OFFCURVE",
"648 356 CURVE",
"442 356 LINE SMOOTH",
"405 356 OFFCURVE",
"376 335 OFFCURVE",
"376 294 CURVE SMOOTH",
"376 289 OFFCURVE",
"377 285 OFFCURVE",
"377 280 CURVE",
"562 280 LINE",
"541 147 OFFCURVE",
"446 62 OFFCURVE",
"327 62 CURVE SMOOTH",
"212 62 OFFCURVE",
"148 142 OFFCURVE",
"148 273 CURVE SMOOTH",
"148 458 OFFCURVE",
"247 640 OFFCURVE",
"424 640 CURVE SMOOTH",
"510 640 OFFCURVE",
"580 597 OFFCURVE",
"616 527 CURVE",
"658 538 OFFCURVE",
"662 574 OFFCURVE",
"662 589 CURVE SMOOTH",
"662 657 OFFCURVE",
"555 714 OFFCURVE",
"431 714 CURVE SMOOTH",
"197 714 OFFCURVE",
"55 515 OFFCURVE",
"55 273 CURVE SMOOTH"
);
},
{
closed = 1;
nodes = (
"381 773 OFFCURVE",
"403 753 OFFCURVE",
"435 753 CURVE SMOOTH",
"478 753 OFFCURVE",
"507 783 OFFCURVE",
"507 827 CURVE SMOOTH",
"507 857 OFFCURVE",
"486 877 OFFCURVE",
"455 877 CURVE SMOOTH",
"411 877 OFFCURVE",
"381 847 OFFCURVE",
"381 802 CURVE SMOOTH"
);
}
);
width = 688;
}
);
leftKerningGroup = G;
note = Gdotaccent;
unicode = 0120;
},
{
glyphname = Gmacron;
layers = (
{
anchors = (
{
name = bottom;
position = "{315, 0}";
},
{
name = top;
position = "{445, 823}";
}
);
layerId = "E15D9244-BBAC-404B-AB85-99F8751F40D3";
paths = (
{
closed = 1;
nodes = (
"55 101 OFFCURVE",
"160 -12 OFFCURVE",
"327 -12 CURVE SMOOTH",
"523 -12 OFFCURVE",
"650 135 OFFCURVE",
"650 325 CURVE SMOOTH",
"650 335 OFFCURVE",
"650 346 OFFCURVE",
"648 356 CURVE",
"442 356 LINE SMOOTH",
"405 356 OFFCURVE",
"376 335 OFFCURVE",
"376 294 CURVE SMOOTH",
"376 289 OFFCURVE",
"377 285 OFFCURVE",
"377 280 CURVE",
"562 280 LINE",
"541 147 OFFCURVE",
"446 62 OFFCURVE",
"327 62 CURVE SMOOTH",
"212 62 OFFCURVE",
"148 142 OFFCURVE",
"148 273 CURVE SMOOTH",
"148 458 OFFCURVE",
"247 640 OFFCURVE",
"424 640 CURVE SMOOTH",
"510 640 OFFCURVE",
"580 597 OFFCURVE",
"616 527 CURVE",
"658 538 OFFCURVE",
"662 574 OFFCURVE",
"662 589 CURVE SMOOTH",
"662 657 OFFCURVE",
"555 714 OFFCURVE",
"431 714 CURVE SMOOTH",
"197 714 OFFCURVE",
"55 515 OFFCURVE",
"55 273 CURVE SMOOTH"
);
},
{
closed = 1;
nodes = (
"589 772 LINE",
"597 822 LINE",
"293 822 LINE",
"285 772 LINE"
);
}
);
width = 688;
}
);
leftKerningGroup = G;
note = Gmacron;
unicode = 1E20;
},
{
glyphname = H;
lastChange = "2018-03-13 07:06:37 +0000";
layers = (
{
anchors = (
{
name = bottom;
position = "{293, 0}";
},
{
name = center;
position = "{348, 350}";
},
{
name = top;
position = "{404, 700}";
},
{
name = topleft;
position = "{90, 700}";
}
);
layerId = "E15D9244-BBAC-404B-AB85-99F8751F40D3";
paths = (
{
closed = 1;
nodes = (
"49 -5 OFFCURVE",
"59 -6 OFFCURVE",
"67 -6 CURVE SMOOTH",
"105 -6 OFFCURVE",
"130 20 OFFCURVE",
"136 59 CURVE SMOOTH",
"176 310 LINE",
"508 310 LINE",
"459 -2 LINE",
"469 -5 OFFCURVE",
"479 -6 OFFCURVE",
"487 -6 CURVE SMOOTH",
"525 -6 OFFCURVE",
"550 20 OFFCURVE",
"556 59 CURVE SMOOTH",
"658 702 LINE",
"648 705 OFFCURVE",
"637 706 OFFCURVE",
"629 706 CURVE SMOOTH",
"591 706 OFFCURVE",
"567 679 OFFCURVE",
"561 641 CURVE SMOOTH",
"521 386 LINE",
"188 386 LINE",
"238 702 LINE",
"228 705 OFFCURVE",
"217 706 OFFCURVE",
"209 706 CURVE SMOOTH",
"171 706 OFFCURVE",
"147 679 OFFCURVE",
"141 641 CURVE SMOOTH",
"39 -2 LINE"
);
}
);
width = 667;
}
);
leftKerningGroup = H;
leftMetricsKey = "=|";
note = H;
rightKerningGroup = H;
unicode = 0048;
},
{
glyphname = Hbar;
lastChange = "2018-03-13 07:06:37 +0000";
layers = (
{
anchors = (
{
name = bottom;
position = "{293, 0}";
},
{
name = center;
position = "{348, 350}";
},
{
name = top;
position = "{404, 700}";
},
{
name = topleft;
position = "{90, 700}";
}
);
layerId = "E15D9244-BBAC-404B-AB85-99F8751F40D3";
paths = (
{
closed = 1;
nodes = (
"49 -5 OFFCURVE",
"59 -6 OFFCURVE",
"67 -6 CURVE SMOOTH",
"105 -6 OFFCURVE",
"130 20 OFFCURVE",
"136 59 CURVE SMOOTH",
"176 310 LINE",
"508 310 LINE",
"459 -2 LINE",
"469 -5 OFFCURVE",
"479 -6 OFFCURVE",
"487 -6 CURVE SMOOTH",
"525 -6 OFFCURVE",
"550 20 OFFCURVE",
"556 59 CURVE SMOOTH",
"626 500 LINE",
"691 500 LINE",
"703 576 LINE",
"638 576 LINE",
"658 702 LINE",
"648 705 OFFCURVE",
"637 706 OFFCURVE",
"629 706 CURVE SMOOTH",
"591 706 OFFCURVE",
"567 679 OFFCURVE",
"561 641 CURVE SMOOTH",
"551 576 LINE",
"218 576 LINE",
"238 702 LINE",
"228 705 OFFCURVE",
"217 706 OFFCURVE",
"209 706 CURVE SMOOTH",
"171 706 OFFCURVE",
"147 679 OFFCURVE",
"141 641 CURVE SMOOTH",
"131 576 LINE",
"67 576 LINE",
"55 500 LINE",
"119 500 LINE",
"39 -2 LINE"
);
},
{
closed = 1;
nodes = (
"206 500 LINE",
"539 500 LINE",
"521 386 LINE",
"188 386 LINE"
);
}
);
width = 668;
}
);
note = Hbar;
unicode = 0126;
},
{
glyphname = Hbrevebelow;
lastChange = "2018-03-13 07:06:37 +0000";
layers = (
{
anchors = (
{
name = bottom;
position = "{264, -183}";
},
{
name = center;
position = "{348, 350}";
},
{
name = top;
position = "{404, 700}";
},
{
name = topleft;
position = "{90, 700}";
}
);
layerId = "E15D9244-BBAC-404B-AB85-99F8751F40D3";
paths = (
{
closed = 1;
nodes = (
"49 -5 OFFCURVE",
"59 -6 OFFCURVE",
"67 -6 CURVE SMOOTH",
"105 -6 OFFCURVE",
"130 20 OFFCURVE",
"136 59 CURVE SMOOTH",
"176 310 LINE",
"508 310 LINE",
"459 -2 LINE",
"469 -5 OFFCURVE",
"479 -6 OFFCURVE",
"487 -6 CURVE SMOOTH",
"525 -6 OFFCURVE",
"550 20 OFFCURVE",
"556 59 CURVE SMOOTH",
"658 702 LINE",
"648 705 OFFCURVE",
"637 706 OFFCURVE",
"629 706 CURVE SMOOTH",
"591 706 OFFCURVE",
"567 679 OFFCURVE",
"561 641 CURVE SMOOTH",
"521 386 LINE",
"188 386 LINE",
"238 702 LINE",
"228 705 OFFCURVE",
"217 706 OFFCURVE",
"209 706 CURVE SMOOTH",
"171 706 OFFCURVE",
"147 679 OFFCURVE",
"141 641 CURVE SMOOTH",
"39 -2 LINE"
);
},
{
closed = 1;
nodes = (
"134 -148 OFFCURVE",
"183 -204 OFFCURVE",
"265 -204 CURVE SMOOTH",
"350 -204 OFFCURVE",
"408 -148 OFFCURVE",
"423 -60 CURVE",
"385 -60 LINE",
"375 -108 OFFCURVE",
"331 -138 OFFCURVE",
"271 -138 CURVE SMOOTH",
"214 -138 OFFCURVE",
"179 -108 OFFCURVE",
"181 -60 CURVE",
"143 -60 LINE"
);
}
);
width = 667;
}
);
note = Hbrevebelow;
unicode = 1E2A;
},
{
glyphname = Hcircumflex;
lastChange = "2018-03-13 07:06:37 +0000";
layers = (
{
anchors = (
{
name = bottom;
position = "{293, 0}";
},
{
name = center;
position = "{348, 350}";
},
{
name = top;
position = "{435, 900}";
},
{
name = topleft;
position = "{90, 700}";
}
);
layerId = "E15D9244-BBAC-404B-AB85-99F8751F40D3";
paths = (
{
closed = 1;
nodes = (
"49 -5 OFFCURVE",
"59 -6 OFFCURVE",
"67 -6 CURVE SMOOTH",
"105 -6 OFFCURVE",
"130 20 OFFCURVE",
"136 59 CURVE SMOOTH",
"176 310 LINE",
"508 310 LINE",
"459 -2 LINE",
"469 -5 OFFCURVE",
"479 -6 OFFCURVE",
"487 -6 CURVE SMOOTH",
"525 -6 OFFCURVE",
"550 20 OFFCURVE",
"556 59 CURVE SMOOTH",
"658 702 LINE",
"648 705 OFFCURVE",
"637 706 OFFCURVE",
"629 706 CURVE SMOOTH",
"591 706 OFFCURVE",
"567 679 OFFCURVE",
"561 641 CURVE SMOOTH",
"521 386 LINE",
"188 386 LINE",
"238 702 LINE",
"228 705 OFFCURVE",
"217 706 OFFCURVE",
"209 706 CURVE SMOOTH",
"171 706 OFFCURVE",
"147 679 OFFCURVE",
"141 641 CURVE SMOOTH",
"39 -2 LINE"
);
},
{
closed = 1;
nodes = (
"292 752 LINE",
"429 840 LINE",
"532 752 LINE",
"572 752 LINE",
"475 900 LINE",
"395 900 LINE",
"252 752 LINE"
);
}
);
width = 667;
}
);
note = Hcircumflex;
unicode = 0124;
},
{
glyphname = Hdotbelow;
lastChange = "2018-03-13 07:06:37 +0000";
layers = (
{
anchors = (
{
name = bottom;
position = "{265, -175}";
},
{
name = center;
position = "{348, 350}";
},
{
name = top;
position = "{404, 700}";
},
{
name = topleft;
position = "{90, 700}";
}
);
layerId = "E15D9244-BBAC-404B-AB85-99F8751F40D3";
paths = (
{
closed = 1;
nodes = (
"49 -5 OFFCURVE",
"59 -6 OFFCURVE",
"67 -6 CURVE SMOOTH",
"105 -6 OFFCURVE",
"130 20 OFFCURVE",
"136 59 CURVE SMOOTH",
"176 310 LINE",
"508 310 LINE",
"459 -2 LINE",
"469 -5 OFFCURVE",
"479 -6 OFFCURVE",
"487 -6 CURVE SMOOTH",
"525 -6 OFFCURVE",
"550 20 OFFCURVE",
"556 59 CURVE SMOOTH",
"658 702 LINE",
"648 705 OFFCURVE",
"637 706 OFFCURVE",
"629 706 CURVE SMOOTH",
"591 706 OFFCURVE",
"567 679 OFFCURVE",
"561 641 CURVE SMOOTH",
"521 386 LINE",
"188 386 LINE",
"238 702 LINE",
"228 705 OFFCURVE",
"217 706 OFFCURVE",
"209 706 CURVE SMOOTH",
"171 706 OFFCURVE",
"147 679 OFFCURVE",
"141 641 CURVE SMOOTH",
"39 -2 LINE"
);
},
{
closed = 1;
nodes = (
"212 -155 OFFCURVE",
"234 -175 OFFCURVE",
"266 -175 CURVE SMOOTH",
"309 -175 OFFCURVE",
"338 -145 OFFCURVE",
"338 -101 CURVE SMOOTH",
"338 -71 OFFCURVE",
"317 -51 OFFCURVE",
"286 -51 CURVE SMOOTH",
"242 -51 OFFCURVE",
"212 -81 OFFCURVE",
"212 -126 CURVE SMOOTH"
);
}
);
width = 667;
}
);
note = Hdotbelow;
unicode = 1E24;
},
{
glyphname = I;
layers = (
{
anchors = (
{
name = bottom;
position = "{85, 0}";
},
{
name = ogonek;
position = "{80, 10}";
},
{
name = top;
position = "{196, 700}";
},
{
name = topleft;
position = "{90, 700}";
}
);
layerId = "E15D9244-BBAC-404B-AB85-99F8751F40D3";
paths = (
{
closed = 1;
nodes = (
"51 -5 OFFCURVE",
"61 -6 OFFCURVE",
"69 -6 CURVE SMOOTH",
"107 -6 OFFCURVE",
"132 20 OFFCURVE",
"138 59 CURVE SMOOTH",
"240 702 LINE",
"230 705 OFFCURVE",
"219 706 OFFCURVE",
"211 706 CURVE SMOOTH",
"173 706 OFFCURVE",
"149 679 OFFCURVE",
"143 641 CURVE SMOOTH",
"41 -2 LINE"
);
}
);
width = 251;
}
);
leftKerningGroup = I;
leftMetricsKey = "=|";
note = I;
rightKerningGroup = I;
unicode = 0049;
},
{
glyphname = IJ;
layers = (
{
anchors = (
{
name = bottom;
position = "{382, 0}";
},
{
name = ogonek;
position = "{80, 10}";
},
{
name = top;
position = "{575, 700}";
},
{
name = topleft;
position = "{90, 700}";
}
);
layerId = "E15D9244-BBAC-404B-AB85-99F8751F40D3";
paths = (
{
closed = 1;
nodes = (
"51 -5 OFFCURVE",
"61 -6 OFFCURVE",
"69 -6 CURVE SMOOTH",
"107 -6 OFFCURVE",
"132 20 OFFCURVE",
"138 59 CURVE SMOOTH",
"240 702 LINE",
"230 705 OFFCURVE",
"219 706 OFFCURVE",
"211 706 CURVE SMOOTH",
"173 706 OFFCURVE",
"149 679 OFFCURVE",
"143 641 CURVE SMOOTH",
"41 -2 LINE"
);
},
{
closed = 1;
nodes = (
"243 28 OFFCURVE",
"275 -12 OFFCURVE",
"350 -12 CURVE SMOOTH",
"432 -12 OFFCURVE",
"505 36 OFFCURVE",
"524 157 CURVE SMOOTH",
"610 702 LINE",
"600 705 OFFCURVE",
"589 706 OFFCURVE",
"581 706 CURVE SMOOTH",
"543 706 OFFCURVE",
"519 679 OFFCURVE",
"513 641 CURVE SMOOTH",
"436 157 LINE SMOOTH",
"424 83 OFFCURVE",
"396 69 OFFCURVE",
"361 69 CURVE SMOOTH",
"325 69 OFFCURVE",
"297 84 OFFCURVE",
"278 100 CURVE",
"262 93 OFFCURVE",
"252 79 OFFCURVE",
"249 63 CURVE SMOOTH"
);
}
);
width = 615;
}
);
note = IJ;
rightKerningGroup = J;
unicode = 0132;
},
{
glyphname = Iacute;
layers = (
{
anchors = (
{
name = bottom;
position = "{85, 0}";
},
{
name = ogonek;
position = "{80, 10}";
},
{
name = top;
position = "{273, 910}";
},
{
name = topleft;
position = "{90, 700}";
}
);
layerId = "E15D9244-BBAC-404B-AB85-99F8751F40D3";
paths = (
{
closed = 1;
nodes = (
"51 -5 OFFCURVE",
"61 -6 OFFCURVE",
"69 -6 CURVE SMOOTH",
"107 -6 OFFCURVE",
"132 20 OFFCURVE",
"138 59 CURVE SMOOTH",
"240 702 LINE",
"230 705 OFFCURVE",
"219 706 OFFCURVE",
"211 706 CURVE SMOOTH",
"173 706 OFFCURVE",
"149 679 OFFCURVE",
"143 641 CURVE SMOOTH",
"41 -2 LINE"
);
},
{
closed = 1;
nodes = (
"191 752 LINE",
"323 910 LINE",
"227 910 LINE",
"151 752 LINE"
);
}
);
width = 251;
}
);
note = Iacute;
unicode = 00CD;
},
{
glyphname = Ibreve;
layers = (
{
anchors = (
{
name = bottom;
position = "{85, 0}";
},
{
name = ogonek;
position = "{80, 10}";
},
{
name = top;
position = "{226, 890}";
},
{
name = topleft;
position = "{90, 700}";
}
);
layerId = "E15D9244-BBAC-404B-AB85-99F8751F40D3";
paths = (
{
closed = 1;
nodes = (
"51 -5 OFFCURVE",
"61 -6 OFFCURVE",
"69 -6 CURVE SMOOTH",
"107 -6 OFFCURVE",
"132 20 OFFCURVE",
"138 59 CURVE SMOOTH",
"240 702 LINE",
"230 705 OFFCURVE",
"219 706 OFFCURVE",
"211 706 CURVE SMOOTH",
"173 706 OFFCURVE",
"149 679 OFFCURVE",
"143 641 CURVE SMOOTH",
"41 -2 LINE"
);
},
{
closed = 1;
nodes = (
"76 802 OFFCURVE",
"126 746 OFFCURVE",
"208 746 CURVE SMOOTH",
"293 746 OFFCURVE",
"351 802 OFFCURVE",
"366 890 CURVE",
"328 890 LINE",
"318 842 OFFCURVE",
"273 812 OFFCURVE",
"214 812 CURVE SMOOTH",
"157 812 OFFCURVE",
"121 842 OFFCURVE",
"124 890 CURVE",
"86 890 LINE"
);
}
);
width = 251;
}
);
note = Ibreve;
unicode = 012C;
},
{
glyphname = Icaron;
layers = (
{
anchors = (
{
name = bottom;
position = "{85, 0}";
},
{
name = ogonek;
position = "{80, 10}";
},
{
name = top;
position = "{229, 910}";
},
{
name = topleft;
position = "{90, 700}";
}
);
layerId = "E15D9244-BBAC-404B-AB85-99F8751F40D3";
paths = (
{
closed = 1;
nodes = (
"51 -5 OFFCURVE",
"61 -6 OFFCURVE",
"69 -6 CURVE SMOOTH",
"107 -6 OFFCURVE",
"132 20 OFFCURVE",
"138 59 CURVE SMOOTH",
"240 702 LINE",
"230 705 OFFCURVE",
"219 706 OFFCURVE",
"211 706 CURVE SMOOTH",
"173 706 OFFCURVE",
"149 679 OFFCURVE",
"143 641 CURVE SMOOTH",
"41 -2 LINE"
);
},
{
closed = 1;
nodes = (
"164 752 LINE",
"244 752 LINE",
"387 900 LINE",
"347 900 LINE",
"211 812 LINE",
"107 900 LINE",
"67 900 LINE"
);
}
);
width = 251;
}
);
note = Icaron;
unicode = 01CF;
},
{
glyphname = Icircumflex;
layers = (
{
anchors = (
{
name = bottom;
position = "{85, 0}";
},
{
name = ogonek;
position = "{80, 10}";
},
{
name = top;
position = "{227, 900}";
},
{
name = topleft;
position = "{90, 700}";
}
);
layerId = "E15D9244-BBAC-404B-AB85-99F8751F40D3";
paths = (
{
closed = 1;
nodes = (
"51 -5 OFFCURVE",
"61 -6 OFFCURVE",
"69 -6 CURVE SMOOTH",
"107 -6 OFFCURVE",
"132 20 OFFCURVE",
"138 59 CURVE SMOOTH",
"240 702 LINE",
"230 705 OFFCURVE",
"219 706 OFFCURVE",
"211 706 CURVE SMOOTH",
"173 706 OFFCURVE",
"149 679 OFFCURVE",
"143 641 CURVE SMOOTH",
"41 -2 LINE"
);
},
{
closed = 1;
nodes = (
"84 752 LINE",
"221 840 LINE",
"324 752 LINE",
"364 752 LINE",
"267 900 LINE",
"187 900 LINE",
"44 752 LINE"
);
}
);
width = 251;
}
);
note = Icircumflex;
unicode = 00CE;
},
{
glyphname = Idieresis;
layers = (
{
anchors = (
{
name = bottom;
position = "{85, 0}";
},
{
name = ogonek;
position = "{80, 10}";
},
{
name = top;
position = "{221, 858}";
},
{
name = topleft;
position = "{90, 700}";
}
);
layerId = "E15D9244-BBAC-404B-AB85-99F8751F40D3";
paths = (
{
closed = 1;
nodes = (
"51 -5 OFFCURVE",
"61 -6 OFFCURVE",
"69 -6 CURVE SMOOTH",
"107 -6 OFFCURVE",
"132 20 OFFCURVE",
"138 59 CURVE SMOOTH",
"240 702 LINE",
"230 705 OFFCURVE",
"219 706 OFFCURVE",
"211 706 CURVE SMOOTH",
"173 706 OFFCURVE",
"149 679 OFFCURVE",
"143 641 CURVE SMOOTH",
"41 -2 LINE"
);
},
{
closed = 1;
nodes = (
"75 769 OFFCURVE",
"94 752 OFFCURVE",
"122 752 CURVE SMOOTH",
"159 752 OFFCURVE",
"183 777 OFFCURVE",
"183 815 CURVE SMOOTH",
"183 841 OFFCURVE",
"165 858 OFFCURVE",
"139 858 CURVE SMOOTH",
"101 858 OFFCURVE",
"75 832 OFFCURVE",
"75 794 CURVE SMOOTH"
);
},
{
closed = 1;
nodes = (
"241 769 OFFCURVE",
"260 752 OFFCURVE",
"288 752 CURVE SMOOTH",
"325 752 OFFCURVE",
"349 777 OFFCURVE",
"349 815 CURVE SMOOTH",
"349 841 OFFCURVE",
"331 858 OFFCURVE",
"305 858 CURVE SMOOTH",
"267 858 OFFCURVE",
"241 832 OFFCURVE",
"241 794 CURVE SMOOTH"
);
}
);
width = 251;
}
);
note = Idieresis;
unicode = 00CF;
},
{
glyphname = Idotaccent;
layers = (
{
anchors = (
{
name = bottom;
position = "{85, 0}";
},
{
name = ogonek;
position = "{80, 10}";
},
{
name = top;
position = "{225, 877}";
},
{
name = topleft;
position = "{90, 700}";
}
);
layerId = "E15D9244-BBAC-404B-AB85-99F8751F40D3";
paths = (
{
closed = 1;
nodes = (
"51 -5 OFFCURVE",
"61 -6 OFFCURVE",
"69 -6 CURVE SMOOTH",
"107 -6 OFFCURVE",
"132 20 OFFCURVE",
"138 59 CURVE SMOOTH",
"240 702 LINE",
"230 705 OFFCURVE",
"219 706 OFFCURVE",
"211 706 CURVE SMOOTH",
"173 706 OFFCURVE",
"149 679 OFFCURVE",
"143 641 CURVE SMOOTH",
"41 -2 LINE"
);
},
{
closed = 1;
nodes = (
"151 773 OFFCURVE",
"173 753 OFFCURVE",
"205 753 CURVE SMOOTH",
"248 753 OFFCURVE",
"277 783 OFFCURVE",
"277 827 CURVE SMOOTH",
"277 857 OFFCURVE",
"256 877 OFFCURVE",
"225 877 CURVE SMOOTH",
"181 877 OFFCURVE",
"151 847 OFFCURVE",
"151 802 CURVE SMOOTH"
);
}
);
width = 251;
}
);
note = Idotaccent;
unicode = 0130;
},
{
glyphname = Idotbelow;
layers = (
{
anchors = (
{
name = bottom;
position = "{57, -175}";
},
{
name = ogonek;
position = "{80, 10}";
},
{
name = top;
position = "{196, 700}";
},
{
name = topleft;
position = "{90, 700}";
}
);
layerId = "E15D9244-BBAC-404B-AB85-99F8751F40D3";
paths = (
{
closed = 1;
nodes = (
"4 -155 OFFCURVE",
"26 -175 OFFCURVE",
"58 -175 CURVE SMOOTH",
"101 -175 OFFCURVE",
"130 -145 OFFCURVE",
"130 -101 CURVE SMOOTH",
"130 -71 OFFCURVE",
"109 -51 OFFCURVE",
"78 -51 CURVE SMOOTH",
"34 -51 OFFCURVE",
"4 -81 OFFCURVE",
"4 -126 CURVE SMOOTH"
);
},
{
closed = 1;
nodes = (
"51 -5 OFFCURVE",
"61 -6 OFFCURVE",
"69 -6 CURVE SMOOTH",
"107 -6 OFFCURVE",
"132 20 OFFCURVE",
"138 59 CURVE SMOOTH",
"240 702 LINE",
"230 705 OFFCURVE",
"219 706 OFFCURVE",
"211 706 CURVE SMOOTH",
"173 706 OFFCURVE",
"149 679 OFFCURVE",
"143 641 CURVE SMOOTH",
"41 -2 LINE"
);
}
);
width = 251;
}
);
note = Idotbelow;
unicode = 1ECA;
},
{
glyphname = Igrave;
layers = (
{
anchors = (
{
name = bottom;
position = "{85, 0}";
},
{
name = ogonek;
position = "{80, 10}";
},
{
name = top;
position = "{199, 910}";
},
{
name = topleft;
position = "{90, 700}";
}
);
layerId = "E15D9244-BBAC-404B-AB85-99F8751F40D3";
paths = (
{
closed = 1;
nodes = (
"51 -5 OFFCURVE",
"61 -6 OFFCURVE",
"69 -6 CURVE SMOOTH",
"107 -6 OFFCURVE",
"132 20 OFFCURVE",
"138 59 CURVE SMOOTH",
"240 702 LINE",
"230 705 OFFCURVE",
"219 706 OFFCURVE",
"211 706 CURVE SMOOTH",
"173 706 OFFCURVE",
"149 679 OFFCURVE",
"143 641 CURVE SMOOTH",
"41 -2 LINE"
);
},
{
closed = 1;
nodes = (
"223 752 LINE",
"263 752 LINE",
"237 910 LINE",
"141 910 LINE"
);
}
);
width = 251;
}
);
note = Igrave;
unicode = 00CC;
},
{
glyphname = Ihookabove;
layers = (
{
anchors = (
{
name = bottom;
position = "{85, 0}";
},
{
name = ogonek;
position = "{80, 10}";
},
{
name = top;
position = "{237, 937}";
},
{
name = topleft;
position = "{90, 700}";
}
);
layerId = "E15D9244-BBAC-404B-AB85-99F8751F40D3";
paths = (
{
closed = 1;
nodes = (
"51 -5 OFFCURVE",
"61 -6 OFFCURVE",
"69 -6 CURVE SMOOTH",
"107 -6 OFFCURVE",
"132 20 OFFCURVE",
"138 59 CURVE SMOOTH",
"240 702 LINE",
"230 705 OFFCURVE",
"219 706 OFFCURVE",
"211 706 CURVE SMOOTH",
"173 706 OFFCURVE",
"149 679 OFFCURVE",
"143 641 CURVE SMOOTH",
"41 -2 LINE"
);
},
{
closed = 1;
nodes = (
"167 879 OFFCURVE",
"179 881 OFFCURVE",
"191 881 CURVE SMOOTH",
"215 881 OFFCURVE",
"226 871 OFFCURVE",
"226 853 CURVE SMOOTH",
"226 820 OFFCURVE",
"201 777 OFFCURVE",
"158 752 CURVE",
"216 752 LINE",
"270 778 OFFCURVE",
"302 833 OFFCURVE",
"302 880 CURVE SMOOTH",
"302 919 OFFCURVE",
"275 937 OFFCURVE",
"230 937 CURVE SMOOTH",
"206 937 OFFCURVE",
"184 932 OFFCURVE",
"164 922 CURVE",
"156 875 LINE"
);
}
);
width = 251;
}
);
note = Ihookabove;
unicode = 1EC8;
},
{
glyphname = Imacron;
layers = (
{
anchors = (
{
name = bottom;
position = "{85, 0}";
},
{
name = ogonek;
position = "{80, 10}";
},
{
name = top;
position = "{215, 823}";
},
{
name = topleft;
position = "{90, 700}";
}
);
layerId = "E15D9244-BBAC-404B-AB85-99F8751F40D3";
paths = (
{
closed = 1;
nodes = (
"51 -5 OFFCURVE",
"61 -6 OFFCURVE",
"69 -6 CURVE SMOOTH",
"107 -6 OFFCURVE",
"132 20 OFFCURVE",
"138 59 CURVE SMOOTH",
"240 702 LINE",
"230 705 OFFCURVE",
"219 706 OFFCURVE",
"211 706 CURVE SMOOTH",
"173 706 OFFCURVE",
"149 679 OFFCURVE",
"143 641 CURVE SMOOTH",
"41 -2 LINE"
);
},
{
closed = 1;
nodes = (
"359 772 LINE",
"367 822 LINE",
"63 822 LINE",
"55 772 LINE"
);
}
);
width = 251;
}
);
note = Imacron;
unicode = 012A;
},
{
glyphname = Iogonek;
lastChange = "2018-03-13 07:06:37 +0000";
layers = (
{
anchors = (
{
name = bottom;
position = "{85, 0}";
},
{
name = ogonek;
position = "{80, 10}";
},
{
name = top;
position = "{196, 700}";
},
{
name = topleft;
position = "{90, 700}";
}
);
layerId = "E15D9244-BBAC-404B-AB85-99F8751F40D3";
paths = (
{
closed = 1;
nodes = (
"-28 -150 OFFCURVE",
"5 -175 OFFCURVE",
"50 -175 CURVE SMOOTH",
"77 -175 OFFCURVE",
"94 -169 OFFCURVE",
"109 -160 CURVE",
"117 -113 LINE",
"106 -117 OFFCURVE",
"97 -119 OFFCURVE",
"82 -119 CURVE SMOOTH",
"68 -119 OFFCURVE",
"47 -115 OFFCURVE",
"47 -84 CURVE SMOOTH",
"47 -52 OFFCURVE",
"81 -13 OFFCURVE",
"100 1 CURVE",
"121 11 OFFCURVE",
"134 32 OFFCURVE",
"138 59 CURVE SMOOTH",
"240 702 LINE",
"230 705 OFFCURVE",
"219 706 OFFCURVE",
"211 706 CURVE SMOOTH",
"173 706 OFFCURVE",
"149 679 OFFCURVE",
"143 641 CURVE SMOOTH",
"41 -2 LINE",
"46 -3 LINE",
"15 -23 OFFCURVE",
"-28 -57 OFFCURVE",
"-28 -106 CURVE SMOOTH"
);
}
);
width = 251;
}
);
note = Iogonek;
unicode = 012E;
},
{
glyphname = Itilde;
layers = (
{
anchors = (
{
name = bottom;
position = "{85, 0}";
},
{
name = ogonek;
position = "{80, 10}";
},
{
name = top;
position = "{224, 878}";
},
{
name = topleft;
position = "{90, 700}";
}
);
layerId = "E15D9244-BBAC-404B-AB85-99F8751F40D3";
paths = (
{
closed = 1;
nodes = (
"51 -5 OFFCURVE",
"61 -6 OFFCURVE",
"69 -6 CURVE SMOOTH",
"107 -6 OFFCURVE",
"132 20 OFFCURVE",
"138 59 CURVE SMOOTH",
"240 702 LINE",
"230 705 OFFCURVE",
"219 706 OFFCURVE",
"211 706 CURVE SMOOTH",
"173 706 OFFCURVE",
"149 679 OFFCURVE",
"143 641 CURVE SMOOTH",
"41 -2 LINE"
);
},
{
closed = 1;
nodes = (
"93 752 LINE",
"111 784 OFFCURVE",
"129 802 OFFCURVE",
"154 802 CURVE SMOOTH",
"195 802 OFFCURVE",
"210 752 OFFCURVE",
"264 752 CURVE SMOOTH",
"309 752 OFFCURVE",
"358 786 OFFCURVE",
"376 868 CURVE",
"333 868 LINE",
"316 836 OFFCURVE",
"297 818 OFFCURVE",
"272 818 CURVE SMOOTH",
"230 818 OFFCURVE",
"216 868 OFFCURVE",
"163 868 CURVE SMOOTH",
"117 868 OFFCURVE",
"69 832 OFFCURVE",
"50 752 CURVE"
);
}
);
width = 251;
}
);
note = Itilde;
unicode = 0128;
},
{
glyphname = J;
layers = (
{
anchors = (
{
name = bottom;
position = "{131, 0}";
},
{
name = top;
position = "{324, 700}";
}
);
layerId = "E15D9244-BBAC-404B-AB85-99F8751F40D3";
paths = (
{
closed = 1;
nodes = (
"-8 28 OFFCURVE",
"24 -12 OFFCURVE",
"99 -12 CURVE SMOOTH",
"181 -12 OFFCURVE",
"254 36 OFFCURVE",
"273 157 CURVE SMOOTH",
"359 702 LINE",
"349 705 OFFCURVE",
"338 706 OFFCURVE",
"330 706 CURVE SMOOTH",
"292 706 OFFCURVE",
"268 679 OFFCURVE",
"262 641 CURVE SMOOTH",
"185 157 LINE SMOOTH",
"173 83 OFFCURVE",
"145 69 OFFCURVE",
"110 69 CURVE SMOOTH",
"74 69 OFFCURVE",
"46 84 OFFCURVE",
"27 100 CURVE",
"11 93 OFFCURVE",
"1 79 OFFCURVE",
"-2 63 CURVE SMOOTH"
);
}
);
width = 364;
}
);
leftKerningGroup = J;
note = J;
rightKerningGroup = J;
unicode = 004A;
},
{
glyphname = Jcircumflex;
layers = (
{
anchors = (
{
name = bottom;
position = "{131, 0}";
},
{
name = top;
position = "{355, 900}";
}
);
layerId = "E15D9244-BBAC-404B-AB85-99F8751F40D3";
paths = (
{
closed = 1;
nodes = (
"-8 28 OFFCURVE",
"24 -12 OFFCURVE",
"99 -12 CURVE SMOOTH",
"181 -12 OFFCURVE",
"254 36 OFFCURVE",
"273 157 CURVE SMOOTH",
"359 702 LINE",
"349 705 OFFCURVE",
"338 706 OFFCURVE",
"330 706 CURVE SMOOTH",
"292 706 OFFCURVE",
"268 679 OFFCURVE",
"262 641 CURVE SMOOTH",
"185 157 LINE SMOOTH",
"173 83 OFFCURVE",
"145 69 OFFCURVE",
"110 69 CURVE SMOOTH",
"74 69 OFFCURVE",
"46 84 OFFCURVE",
"27 100 CURVE",
"11 93 OFFCURVE",
"1 79 OFFCURVE",
"-2 63 CURVE SMOOTH"
);
},
{
closed = 1;
nodes = (
"212 752 LINE",
"349 840 LINE",
"452 752 LINE",
"492 752 LINE",
"395 900 LINE",
"315 900 LINE",
"172 752 LINE"
);
}
);
width = 364;
}
);
leftKerningGroup = J;
note = Jcircumflex;
rightKerningGroup = J;
unicode = 0134;
},
{
glyphname = K;
lastChange = "2018-03-13 07:06:37 +0000";
layers = (
{
anchors = (
{
name = bottom;
position = "{245, 0}";
},
{
name = top;
position = "{356, 700}";
}
);
layerId = "E15D9244-BBAC-404B-AB85-99F8751F40D3";
paths = (
{
closed = 1;
nodes = (
"49 -5 OFFCURVE",
"59 -6 OFFCURVE",
"68 -6 CURVE SMOOTH",
"105 -6 OFFCURVE",
"130 21 OFFCURVE",
"136 59 CURVE SMOOTH",
"168 262 LINE",
"239 333 LINE",
"389 32 LINE SMOOTH",
"402 6 OFFCURVE",
"426 -8 OFFCURVE",
"457 -8 CURVE SMOOTH",
"473 -8 OFFCURVE",
"490 -6 OFFCURVE",
"510 1 CURVE",
"512 12 LINE",
"498 18 OFFCURVE",
"482 44 OFFCURVE",
"458 92 CURVE SMOOTH",
"349 305 LINE SMOOTH",
"331 340 OFFCURVE",
"309 357 OFFCURVE",
"276 357 CURVE",
"262 356 LINE",
"605 700 LINE",
"589 706 OFFCURVE",
"568 708 OFFCURVE",
"556 708 CURVE SMOOTH",
"529 708 OFFCURVE",
"490 691 OFFCURVE",
"461 660 CURVE SMOOTH",
"187 381 LINE",
"238 702 LINE",
"228 705 OFFCURVE",
"217 706 OFFCURVE",
"209 706 CURVE SMOOTH",
"171 706 OFFCURVE",
"147 679 OFFCURVE",
"141 641 CURVE SMOOTH",
"39 -2 LINE"
);
}
);
width = 558;
}
);
leftKerningGroup = H;
leftMetricsKey = H;
note = K;
rightKerningGroup = K;
unicode = 004B;
},
{
glyphname = Kcommaaccent;
lastChange = "2018-03-13 07:06:37 +0000";
layers = (
{
anchors = (
{
name = bottom;
position = "{198, -299}";
},
{
name = top;
position = "{356, 700}";
}
);
layerId = "E15D9244-BBAC-404B-AB85-99F8751F40D3";
paths = (
{
closed = 1;
nodes = (
"49 -5 OFFCURVE",
"59 -6 OFFCURVE",
"68 -6 CURVE SMOOTH",
"105 -6 OFFCURVE",
"130 21 OFFCURVE",
"136 59 CURVE SMOOTH",
"168 262 LINE",
"239 333 LINE",
"389 32 LINE SMOOTH",
"402 6 OFFCURVE",
"426 -8 OFFCURVE",
"457 -8 CURVE SMOOTH",
"473 -8 OFFCURVE",
"490 -6 OFFCURVE",
"510 1 CURVE",
"512 12 LINE",
"498 18 OFFCURVE",
"482 44 OFFCURVE",
"458 92 CURVE SMOOTH",
"349 305 LINE SMOOTH",
"331 340 OFFCURVE",
"309 357 OFFCURVE",
"276 357 CURVE",
"262 356 LINE",
"605 700 LINE",
"589 706 OFFCURVE",
"568 708 OFFCURVE",
"556 708 CURVE SMOOTH",
"529 708 OFFCURVE",
"490 691 OFFCURVE",
"461 660 CURVE SMOOTH",
"187 381 LINE",
"238 702 LINE",
"228 705 OFFCURVE",
"217 706 OFFCURVE",
"209 706 CURVE SMOOTH",
"171 706 OFFCURVE",
"147 679 OFFCURVE",
"141 641 CURVE SMOOTH",
"39 -2 LINE"
);
},
{
closed = 1;
nodes = (
"175 -306 LINE",
"249 -263 OFFCURVE",
"289 -184 OFFCURVE",
"289 -124 CURVE SMOOTH",
"289 -80 OFFCURVE",
"260 -60 OFFCURVE",
"229 -60 CURVE SMOOTH",
"189 -60 OFFCURVE",
"160 -93 OFFCURVE",
"160 -133 CURVE SMOOTH",
"160 -162 OFFCURVE",
"182 -184 OFFCURVE",
"214 -184 CURVE",
"212 -221 OFFCURVE",
"190 -248 OFFCURVE",
"155 -272 CURVE"
);
}
);
width = 558;
}
);
note = Kcommaaccent;
rightKerningGroup = K;
unicode = 0136;
},
{
glyphname = L;
lastChange = "2018-03-13 07:06:37 +0000";
layers = (
{
anchors = (
{
name = bottom;
position = "{218, 0}";
},
{
name = center;
position = "{333, 350}";
},
{
name = top;
position = "{209, 700}";
},
{
name = topright;
position = "{546, 700}";
}
);
layerId = "E15D9244-BBAC-404B-AB85-99F8751F40D3";
paths = (
{
closed = 1;
nodes = (
"11 0 LINE",
"376 0 LINE SMOOTH",
"409 0 OFFCURVE",
"436 17 OFFCURVE",
"441 50 CURVE SMOOTH",
"442 57 OFFCURVE",
"443 67 OFFCURVE",
"441 76 CURVE",
"130 76 LINE",
"149 108 OFFCURVE",
"156 143 OFFCURVE",
"161 177 CURVE SMOOTH",
"244 702 LINE",
"234 705 OFFCURVE",
"223 706 OFFCURVE",
"215 706 CURVE SMOOTH",
"177 706 OFFCURVE",
"153 679 OFFCURVE",
"147 641 CURVE SMOOTH",
"73 177 LINE SMOOTH",
"61 98 OFFCURVE",
"47 62 OFFCURVE",
"6 21 CURVE"
);
}
);
width = 495;
}
);
leftKerningGroup = F;
leftMetricsKey = F;
note = L;
rightKerningGroup = L;
unicode = 004C;
},
{
glyphname = Lacute;
lastChange = "2018-03-13 07:06:37 +0000";
layers = (
{
anchors = (
{
name = bottom;
position = "{218, 0}";
},
{
name = center;
position = "{333, 350}";
},
{
name = top;
position = "{286, 910}";
},
{
name = topright;
position = "{546, 700}";
}
);
layerId = "E15D9244-BBAC-404B-AB85-99F8751F40D3";
paths = (
{
closed = 1;
nodes = (
"11 0 LINE",
"376 0 LINE SMOOTH",
"409 0 OFFCURVE",
"436 17 OFFCURVE",
"441 50 CURVE SMOOTH",
"442 57 OFFCURVE",
"443 67 OFFCURVE",
"441 76 CURVE",
"130 76 LINE",
"149 108 OFFCURVE",
"156 143 OFFCURVE",
"161 177 CURVE SMOOTH",
"244 702 LINE",
"234 705 OFFCURVE",
"223 706 OFFCURVE",
"215 706 CURVE SMOOTH",
"177 706 OFFCURVE",
"153 679 OFFCURVE",
"147 641 CURVE SMOOTH",
"73 177 LINE SMOOTH",
"61 98 OFFCURVE",
"47 62 OFFCURVE",
"6 21 CURVE"
);
},
{
closed = 1;
nodes = (
"204 752 LINE",
"336 910 LINE",
"240 910 LINE",
"164 752 LINE"
);
}
);
width = 495;
}
);
note = Lacute;
rightKerningGroup = L;
unicode = 0139;
},
{
glyphname = Lcaron;
lastChange = "2018-03-13 07:06:37 +0000";
layers = (
{
anchors = (
{
name = bottom;
position = "{218, 0}";
},
{
name = center;
position = "{333, 350}";
},
{
name = top;
position = "{209, 700}";
},
{
name = topright;
position = "{546, 700}";
}
);
layerId = "E15D9244-BBAC-404B-AB85-99F8751F40D3";
paths = (
{
closed = 1;
nodes = (
"11 0 LINE",
"376 0 LINE SMOOTH",
"409 0 OFFCURVE",
"436 17 OFFCURVE",
"441 50 CURVE SMOOTH",
"442 57 OFFCURVE",
"443 67 OFFCURVE",
"441 76 CURVE",
"130 76 LINE",
"149 108 OFFCURVE",
"156 143 OFFCURVE",
"161 177 CURVE SMOOTH",
"244 702 LINE",
"234 705 OFFCURVE",
"223 706 OFFCURVE",
"215 706 CURVE SMOOTH",
"177 706 OFFCURVE",
"153 679 OFFCURVE",
"147 641 CURVE SMOOTH",
"73 177 LINE SMOOTH",
"61 98 OFFCURVE",
"47 62 OFFCURVE",
"6 21 CURVE"
);
},
{
closed = 1;
nodes = (
"405 474 LINE",
"479 517 OFFCURVE",
"519 597 OFFCURVE",
"519 657 CURVE SMOOTH",
"519 700 OFFCURVE",
"492 720 OFFCURVE",
"461 720 CURVE SMOOTH",
"422 720 OFFCURVE",
"390 688 OFFCURVE",
"390 648 CURVE SMOOTH",
"390 618 OFFCURVE",
"411 596 OFFCURVE",
"444 596 CURVE",
"443 559 OFFCURVE",
"420 532 OFFCURVE",
"385 508 CURVE"
);
}
);
width = 495;
}
);
note = Lcaron;
rightKerningGroup = L;
unicode = 013D;
},
{
glyphname = Lcommaaccent;
lastChange = "2018-03-13 07:06:37 +0000";
layers = (
{
anchors = (
{
name = bottom;
position = "{171, -299}";
},
{
name = center;
position = "{333, 350}";
},
{
name = top;
position = "{209, 700}";
},
{
name = topright;
position = "{546, 700}";
}
);
layerId = "E15D9244-BBAC-404B-AB85-99F8751F40D3";
paths = (
{
closed = 1;
nodes = (
"11 0 LINE",
"376 0 LINE SMOOTH",
"409 0 OFFCURVE",
"436 17 OFFCURVE",
"441 50 CURVE SMOOTH",
"442 57 OFFCURVE",
"443 67 OFFCURVE",
"441 76 CURVE",
"130 76 LINE",
"149 108 OFFCURVE",
"156 143 OFFCURVE",
"161 177 CURVE SMOOTH",
"244 702 LINE",
"234 705 OFFCURVE",
"223 706 OFFCURVE",
"215 706 CURVE SMOOTH",
"177 706 OFFCURVE",
"153 679 OFFCURVE",
"147 641 CURVE SMOOTH",
"73 177 LINE SMOOTH",
"61 98 OFFCURVE",
"47 62 OFFCURVE",
"6 21 CURVE"
);
},
{
closed = 1;
nodes = (
"148 -306 LINE",
"222 -263 OFFCURVE",
"262 -184 OFFCURVE",
"262 -124 CURVE SMOOTH",
"262 -80 OFFCURVE",
"233 -60 OFFCURVE",
"202 -60 CURVE SMOOTH",
"162 -60 OFFCURVE",
"133 -93 OFFCURVE",
"133 -133 CURVE SMOOTH",
"133 -162 OFFCURVE",
"155 -184 OFFCURVE",
"187 -184 CURVE",
"185 -221 OFFCURVE",
"163 -248 OFFCURVE",
"128 -272 CURVE"
);
}
);
width = 495;
}
);
note = Lcommaaccent;
rightKerningGroup = L;
unicode = 013B;
},
{
glyphname = Ldot;
lastChange = "2018-03-13 07:06:37 +0000";
layers = (
{
anchors = (
{
name = bottom;
position = "{218, 0}";
},
{
name = center;
position = "{333, 350}";
},
{
name = top;
position = "{209, 700}";
},
{
name = topright;
position = "{546, 700}";
}
);
layerId = "E15D9244-BBAC-404B-AB85-99F8751F40D3";
paths = (
{
closed = 1;
nodes = (
"11 0 LINE",
"376 0 LINE SMOOTH",
"409 0 OFFCURVE",
"436 17 OFFCURVE",
"441 50 CURVE SMOOTH",
"442 57 OFFCURVE",
"443 67 OFFCURVE",
"441 76 CURVE",
"130 76 LINE",
"149 108 OFFCURVE",
"156 143 OFFCURVE",
"161 177 CURVE SMOOTH",
"244 702 LINE",
"234 705 OFFCURVE",
"223 706 OFFCURVE",
"215 706 CURVE SMOOTH",
"177 706 OFFCURVE",
"153 679 OFFCURVE",
"147 641 CURVE SMOOTH",
"73 177 LINE SMOOTH",
"61 98 OFFCURVE",
"47 62 OFFCURVE",
"6 21 CURVE"
);
},
{
closed = 1;
nodes = (
"271 310 OFFCURVE",
"293 288 OFFCURVE",
"325 288 CURVE SMOOTH",
"364 288 OFFCURVE",
"399 320 OFFCURVE",
"399 359 CURVE SMOOTH",
"399 390 OFFCURVE",
"377 412 OFFCURVE",
"344 412 CURVE SMOOTH",
"304 412 OFFCURVE",
"271 379 OFFCURVE",
"271 339 CURVE SMOOTH"
);
}
);
width = 495;
}
);
note = Ldot;
rightKerningGroup = L;
unicode = 013F;
},
{
glyphname = Ldotbelow;
lastChange = "2018-03-13 07:06:37 +0000";
layers = (
{
anchors = (
{
name = bottom;
position = "{190, -175}";
},
{
name = center;
position = "{333, 350}";
},
{
name = top;
position = "{209, 700}";
},
{
name = topright;
position = "{546, 700}";
}
);
layerId = "E15D9244-BBAC-404B-AB85-99F8751F40D3";
paths = (
{
closed = 1;
nodes = (
"11 0 LINE",
"376 0 LINE SMOOTH",
"409 0 OFFCURVE",
"436 17 OFFCURVE",
"441 50 CURVE SMOOTH",
"442 57 OFFCURVE",
"443 67 OFFCURVE",
"441 76 CURVE",
"130 76 LINE",
"149 108 OFFCURVE",
"156 143 OFFCURVE",
"161 177 CURVE SMOOTH",
"244 702 LINE",
"234 705 OFFCURVE",
"223 706 OFFCURVE",
"215 706 CURVE SMOOTH",
"177 706 OFFCURVE",
"153 679 OFFCURVE",
"147 641 CURVE SMOOTH",
"73 177 LINE SMOOTH",
"61 98 OFFCURVE",
"47 62 OFFCURVE",
"6 21 CURVE"
);
},
{
closed = 1;
nodes = (
"137 -155 OFFCURVE",
"159 -175 OFFCURVE",
"191 -175 CURVE SMOOTH",
"234 -175 OFFCURVE",
"263 -145 OFFCURVE",
"263 -101 CURVE SMOOTH",
"263 -71 OFFCURVE",
"242 -51 OFFCURVE",
"211 -51 CURVE SMOOTH",
"167 -51 OFFCURVE",
"137 -81 OFFCURVE",
"137 -126 CURVE SMOOTH"
);
}
);
width = 495;
}
);
note = Ldotbelow;
rightKerningGroup = L;
unicode = 1E36;
},
{
glyphname = Ldotbelowmacron;
lastChange = "2018-03-13 07:06:37 +0000";
layers = (
{
anchors = (
{
name = bottom;
position = "{190, -175}";
},
{
name = center;
position = "{333, 350}";
},
{
name = top;
position = "{348, 823}";
},
{
name = topright;
position = "{546, 700}";
}
);
layerId = "E15D9244-BBAC-404B-AB85-99F8751F40D3";
paths = (
{
closed = 1;
nodes = (
"11 0 LINE",
"376 0 LINE SMOOTH",
"409 0 OFFCURVE",
"436 17 OFFCURVE",
"441 50 CURVE SMOOTH",
"442 57 OFFCURVE",
"443 67 OFFCURVE",
"441 76 CURVE",
"130 76 LINE",
"149 108 OFFCURVE",
"156 143 OFFCURVE",
"161 177 CURVE SMOOTH",
"244 702 LINE",
"234 705 OFFCURVE",
"223 706 OFFCURVE",
"215 706 CURVE SMOOTH",
"177 706 OFFCURVE",
"153 679 OFFCURVE",
"147 641 CURVE SMOOTH",
"73 177 LINE SMOOTH",
"61 98 OFFCURVE",
"47 62 OFFCURVE",
"6 21 CURVE"
);
},
{
closed = 1;
nodes = (
"137 -155 OFFCURVE",
"159 -175 OFFCURVE",
"191 -175 CURVE SMOOTH",
"234 -175 OFFCURVE",
"263 -145 OFFCURVE",
"263 -101 CURVE SMOOTH",
"263 -71 OFFCURVE",
"242 -51 OFFCURVE",
"211 -51 CURVE SMOOTH",
"167 -51 OFFCURVE",
"137 -81 OFFCURVE",
"137 -126 CURVE SMOOTH"
);
},
{
closed = 1;
nodes = (
"492 772 LINE",
"500 822 LINE",
"196 822 LINE",
"188 772 LINE"
);
}
);
width = 495;
}
);
note = Ldotbelowmacron;
rightKerningGroup = L;
unicode = 1E38;
},
{
glyphname = Llinebelow;
lastChange = "2018-03-13 07:06:37 +0000";
layers = (
{
anchors = (
{
name = bottom;
position = "{201, -110}";
},
{
name = center;
position = "{333, 350}";
},
{
name = top;
position = "{209, 700}";
},
{
name = topright;
position = "{546, 700}";
}
);
layerId = "E15D9244-BBAC-404B-AB85-99F8751F40D3";
paths = (
{
closed = 1;
nodes = (
"11 0 LINE",
"376 0 LINE SMOOTH",
"409 0 OFFCURVE",
"436 17 OFFCURVE",
"441 50 CURVE SMOOTH",
"442 57 OFFCURVE",
"443 67 OFFCURVE",
"441 76 CURVE",
"130 76 LINE",
"149 108 OFFCURVE",
"156 143 OFFCURVE",
"161 177 CURVE SMOOTH",
"244 702 LINE",
"234 705 OFFCURVE",
"223 706 OFFCURVE",
"215 706 CURVE SMOOTH",
"177 706 OFFCURVE",
"153 679 OFFCURVE",
"147 641 CURVE SMOOTH",
"73 177 LINE SMOOTH",
"61 98 OFFCURVE",
"47 62 OFFCURVE",
"6 21 CURVE"
);
},
{
closed = 1;
nodes = (
"351 -122 LINE",
"359 -72 LINE",
"55 -72 LINE",
"47 -122 LINE"
);
}
);
width = 495;
}
);
note = Llinebelow;
rightKerningGroup = L;
unicode = 1E3A;
},
{
glyphname = Lslash;
lastChange = "2018-03-13 07:06:37 +0000";
layers = (
{
anchors = (
{
name = bottom;
position = "{218, 0}";
},
{
name = center;
position = "{333, 350}";
},
{
name = top;
position = "{209, 700}";
},
{
name = topright;
position = "{546, 700}";
}
);
layerId = "E15D9244-BBAC-404B-AB85-99F8751F40D3";
paths = (
{
closed = 1;
nodes = (
"11 0 LINE",
"376 0 LINE SMOOTH",
"409 0 OFFCURVE",
"436 17 OFFCURVE",
"441 50 CURVE SMOOTH",
"442 57 OFFCURVE",
"443 67 OFFCURVE",
"441 76 CURVE",
"130 76 LINE",
"149 108 OFFCURVE",
"156 143 OFFCURVE",
"161 177 CURVE SMOOTH",
"193 379 LINE",
"380 440 LINE",
"389 500 LINE",
"202 439 LINE",
"244 702 LINE",
"234 705 OFFCURVE",
"223 706 OFFCURVE",
"215 706 CURVE SMOOTH",
"177 706 OFFCURVE",
"153 679 OFFCURVE",
"147 641 CURVE SMOOTH",
"110 409 LINE",
"20 380 LINE",
"11 320 LINE",
"100 349 LINE",
"73 177 LINE SMOOTH",
"61 98 OFFCURVE",
"47 62 OFFCURVE",
"6 21 CURVE"
);
}
);
width = 495;
}
);
note = Lslash;
rightMetricsKey = L;
unicode = 0141;
},
{
glyphname = M;
lastChange = "2018-03-13 07:06:37 +0000";
layers = (
{
anchors = (
{
name = bottom;
position = "{350, 0}";
},
{
name = top;
position = "{461, 700}";
}
);
layerId = "E15D9244-BBAC-404B-AB85-99F8751F40D3";
paths = (
{
closed = 1;
nodes = (
"48 -7 OFFCURVE",
"59 -8 OFFCURVE",
"67 -8 CURVE SMOOTH",
"104 -8 OFFCURVE",
"128 19 OFFCURVE",
"134 57 CURVE SMOOTH",
"213 554 LINE",
"348 70 LINE",
"380 70 LINE",
"631 490 LINE SMOOTH",
"649 520 OFFCURVE",
"661 541 OFFCURVE",
"671 556 CURVE",
"666 538 OFFCURVE",
"663 520 OFFCURVE",
"660 500 CURVE SMOOTH",
"581 -3 LINE",
"590 -7 OFFCURVE",
"601 -8 OFFCURVE",
"609 -8 CURVE SMOOTH",
"647 -8 OFFCURVE",
"670 19 OFFCURVE",
"676 57 CURVE SMOOTH",
"752 534 LINE SMOOTH",
"764 614 OFFCURVE",
"777 648 OFFCURVE",
"808 686 CURVE",
"805 704 LINE",
"782 704 OFFCURVE",
"757 710 OFFCURVE",
"733 710 CURVE SMOOTH",
"690 710 OFFCURVE",
"662 691 OFFCURVE",
"626 629 CURVE SMOOTH",
"390 234 LINE",
"259 701 LINE",
"247 707 OFFCURVE",
"232 708 OFFCURVE",
"223 708 CURVE SMOOTH",
"176 708 OFFCURVE",
"146 678 OFFCURVE",
"138 622 CURVE SMOOTH",
"39 -3 LINE"
);
}
);
width = 781;
}
);
leftKerningGroup = H;
leftMetricsKey = H;
note = M;
rightKerningGroup = M;
unicode = 004D;
},
{
glyphname = Mdotbelow;
lastChange = "2018-03-13 07:06:37 +0000";
layers = (
{
anchors = (
{
name = bottom;
position = "{322, -175}";
},
{
name = top;
position = "{461, 700}";
}
);
layerId = "E15D9244-BBAC-404B-AB85-99F8751F40D3";
paths = (
{
closed = 1;
nodes = (
"48 -7 OFFCURVE",
"59 -8 OFFCURVE",
"67 -8 CURVE SMOOTH",
"104 -8 OFFCURVE",
"128 19 OFFCURVE",
"134 57 CURVE SMOOTH",
"213 554 LINE",
"348 70 LINE",
"380 70 LINE",
"631 490 LINE SMOOTH",
"649 520 OFFCURVE",
"661 541 OFFCURVE",
"671 556 CURVE",
"666 538 OFFCURVE",
"663 520 OFFCURVE",
"660 500 CURVE SMOOTH",
"581 -3 LINE",
"590 -7 OFFCURVE",
"601 -8 OFFCURVE",
"609 -8 CURVE SMOOTH",
"647 -8 OFFCURVE",
"670 19 OFFCURVE",
"676 57 CURVE SMOOTH",
"752 534 LINE SMOOTH",
"764 614 OFFCURVE",
"777 648 OFFCURVE",
"808 686 CURVE",
"805 704 LINE",
"782 704 OFFCURVE",
"757 710 OFFCURVE",
"733 710 CURVE SMOOTH",
"690 710 OFFCURVE",
"662 691 OFFCURVE",
"626 629 CURVE SMOOTH",
"390 234 LINE",
"259 701 LINE",
"247 707 OFFCURVE",
"232 708 OFFCURVE",
"223 708 CURVE SMOOTH",
"176 708 OFFCURVE",
"146 678 OFFCURVE",
"138 622 CURVE SMOOTH",
"39 -3 LINE"
);
},
{
closed = 1;
nodes = (
"269 -155 OFFCURVE",
"291 -175 OFFCURVE",
"323 -175 CURVE SMOOTH",
"366 -175 OFFCURVE",
"395 -145 OFFCURVE",
"395 -101 CURVE SMOOTH",
"395 -71 OFFCURVE",
"374 -51 OFFCURVE",
"343 -51 CURVE SMOOTH",
"299 -51 OFFCURVE",
"269 -81 OFFCURVE",
"269 -126 CURVE SMOOTH"
);
}
);
width = 781;
}
);
note = Mdotbelow;
unicode = 1E42;
},
{
glyphname = N;
layers = (
{
anchors = (
{
name = bottom;
position = "{299, 0}";
},
{
name = top;
position = "{410, 700}";
}
);
layerId = "E15D9244-BBAC-404B-AB85-99F8751F40D3";
paths = (
{
closed = 1;
nodes = (
"48 -7 OFFCURVE",
"59 -8 OFFCURVE",
"67 -8 CURVE SMOOTH",
"104 -8 OFFCURVE",
"128 19 OFFCURVE",
"134 57 CURVE SMOOTH",
"215 570 LINE",
"430 -1 LINE",
"442 -7 OFFCURVE",
"457 -8 OFFCURVE",
"466 -8 CURVE SMOOTH",
"513 -8 OFFCURVE",
"542 22 OFFCURVE",
"551 78 CURVE SMOOTH",
"650 703 LINE",
"641 707 OFFCURVE",
"630 708 OFFCURVE",
"622 708 CURVE SMOOTH",
"585 708 OFFCURVE",
"561 681 OFFCURVE",
"555 643 CURVE SMOOTH",
"474 130 LINE",
"259 701 LINE",
"247 707 OFFCURVE",
"232 708 OFFCURVE",
"223 708 CURVE SMOOTH",
"176 708 OFFCURVE",
"146 678 OFFCURVE",
"138 622 CURVE SMOOTH",
"39 -3 LINE"
);
}
);
width = 659;
}
);
leftKerningGroup = H;
leftMetricsKey = "=|";
note = N;
rightKerningGroup = H;
rightMetricsKey = H;
unicode = 004E;
},
{
glyphname = Nacute;
layers = (
{
anchors = (
{
name = bottom;
position = "{299, 0}";
},
{
name = top;
position = "{487, 910}";
}
);
layerId = "E15D9244-BBAC-404B-AB85-99F8751F40D3";
paths = (
{
closed = 1;
nodes = (
"48 -7 OFFCURVE",
"59 -8 OFFCURVE",
"67 -8 CURVE SMOOTH",
"104 -8 OFFCURVE",
"128 19 OFFCURVE",
"134 57 CURVE SMOOTH",
"215 570 LINE",
"430 -1 LINE",
"442 -7 OFFCURVE",
"457 -8 OFFCURVE",
"466 -8 CURVE SMOOTH",
"513 -8 OFFCURVE",
"542 22 OFFCURVE",
"551 78 CURVE SMOOTH",
"650 703 LINE",
"641 707 OFFCURVE",
"630 708 OFFCURVE",
"622 708 CURVE SMOOTH",
"585 708 OFFCURVE",
"561 681 OFFCURVE",
"555 643 CURVE SMOOTH",
"474 130 LINE",
"259 701 LINE",
"247 707 OFFCURVE",
"232 708 OFFCURVE",
"223 708 CURVE SMOOTH",
"176 708 OFFCURVE",
"146 678 OFFCURVE",
"138 622 CURVE SMOOTH",
"39 -3 LINE"
);
},
{
closed = 1;
nodes = (
"405 752 LINE",
"537 910 LINE",
"441 910 LINE",
"365 752 LINE"
);
}
);
width = 659;
}
);
note = Nacute;
unicode = 0143;
},
{
glyphname = Ncaron;
layers = (
{
anchors = (
{
name = bottom;
position = "{299, 0}";
},
{
name = top;
position = "{443, 910}";
}
);
layerId = "E15D9244-BBAC-404B-AB85-99F8751F40D3";
paths = (
{
closed = 1;
nodes = (
"48 -7 OFFCURVE",
"59 -8 OFFCURVE",
"67 -8 CURVE SMOOTH",
"104 -8 OFFCURVE",
"128 19 OFFCURVE",
"134 57 CURVE SMOOTH",
"215 570 LINE",
"430 -1 LINE",
"442 -7 OFFCURVE",
"457 -8 OFFCURVE",
"466 -8 CURVE SMOOTH",
"513 -8 OFFCURVE",
"542 22 OFFCURVE",
"551 78 CURVE SMOOTH",
"650 703 LINE",
"641 707 OFFCURVE",
"630 708 OFFCURVE",
"622 708 CURVE SMOOTH",
"585 708 OFFCURVE",
"561 681 OFFCURVE",
"555 643 CURVE SMOOTH",
"474 130 LINE",
"259 701 LINE",
"247 707 OFFCURVE",
"232 708 OFFCURVE",
"223 708 CURVE SMOOTH",
"176 708 OFFCURVE",
"146 678 OFFCURVE",
"138 622 CURVE SMOOTH",
"39 -3 LINE"
);
},
{
closed = 1;
nodes = (
"378 752 LINE",
"458 752 LINE",
"601 900 LINE",
"561 900 LINE",
"425 812 LINE",
"321 900 LINE",
"281 900 LINE"
);
}
);
width = 659;
}
);
note = Ncaron;
unicode = 0147;
},
{
glyphname = Ncommaaccent;
layers = (
{
anchors = (
{
name = bottom;
position = "{252, -299}";
},
{
name = top;
position = "{410, 700}";
}
);
layerId = "E15D9244-BBAC-404B-AB85-99F8751F40D3";
paths = (
{
closed = 1;
nodes = (
"48 -7 OFFCURVE",
"59 -8 OFFCURVE",
"67 -8 CURVE SMOOTH",
"104 -8 OFFCURVE",
"128 19 OFFCURVE",
"134 57 CURVE SMOOTH",
"215 570 LINE",
"430 -1 LINE",
"442 -7 OFFCURVE",
"457 -8 OFFCURVE",
"466 -8 CURVE SMOOTH",
"513 -8 OFFCURVE",
"542 22 OFFCURVE",
"551 78 CURVE SMOOTH",
"650 703 LINE",
"641 707 OFFCURVE",
"630 708 OFFCURVE",
"622 708 CURVE SMOOTH",
"585 708 OFFCURVE",
"561 681 OFFCURVE",
"555 643 CURVE SMOOTH",
"474 130 LINE",
"259 701 LINE",
"247 707 OFFCURVE",
"232 708 OFFCURVE",
"223 708 CURVE SMOOTH",
"176 708 OFFCURVE",
"146 678 OFFCURVE",
"138 622 CURVE SMOOTH",
"39 -3 LINE"
);
},
{
closed = 1;
nodes = (
"229 -306 LINE",
"303 -263 OFFCURVE",
"343 -184 OFFCURVE",
"343 -124 CURVE SMOOTH",
"343 -80 OFFCURVE",
"314 -60 OFFCURVE",
"283 -60 CURVE SMOOTH",
"243 -60 OFFCURVE",
"214 -93 OFFCURVE",
"214 -133 CURVE SMOOTH",
"214 -162 OFFCURVE",
"236 -184 OFFCURVE",
"268 -184 CURVE",
"266 -221 OFFCURVE",
"244 -248 OFFCURVE",
"209 -272 CURVE"
);
}
);
width = 659;
}
);
note = Ncommaaccent;
unicode = 0145;
},
{
glyphname = Ndotaccent;
layers = (
{
anchors = (
{
name = bottom;
position = "{299, 0}";
},
{
name = top;
position = "{439, 877}";
}
);
layerId = "E15D9244-BBAC-404B-AB85-99F8751F40D3";
paths = (
{
closed = 1;
nodes = (
"48 -7 OFFCURVE",
"59 -8 OFFCURVE",
"67 -8 CURVE SMOOTH",
"104 -8 OFFCURVE",
"128 19 OFFCURVE",
"134 57 CURVE SMOOTH",
"215 570 LINE",
"430 -1 LINE",
"442 -7 OFFCURVE",
"457 -8 OFFCURVE",
"466 -8 CURVE SMOOTH",
"513 -8 OFFCURVE",
"542 22 OFFCURVE",
"551 78 CURVE SMOOTH",
"650 703 LINE",
"641 707 OFFCURVE",
"630 708 OFFCURVE",
"622 708 CURVE SMOOTH",
"585 708 OFFCURVE",
"561 681 OFFCURVE",
"555 643 CURVE SMOOTH",
"474 130 LINE",
"259 701 LINE",
"247 707 OFFCURVE",
"232 708 OFFCURVE",
"223 708 CURVE SMOOTH",
"176 708 OFFCURVE",
"146 678 OFFCURVE",
"138 622 CURVE SMOOTH",
"39 -3 LINE"
);
},
{
closed = 1;
nodes = (
"365 773 OFFCURVE",
"387 753 OFFCURVE",
"419 753 CURVE SMOOTH",
"462 753 OFFCURVE",
"491 783 OFFCURVE",
"491 827 CURVE SMOOTH",
"491 857 OFFCURVE",
"470 877 OFFCURVE",
"439 877 CURVE SMOOTH",
"395 877 OFFCURVE",
"365 847 OFFCURVE",
"365 802 CURVE SMOOTH"
);
}
);
width = 659;
}
);
note = Ndotaccent;
unicode = 1E44;
},
{
glyphname = Ndotbelow;
layers = (
{
anchors = (
{
name = bottom;
position = "{271, -175}";
},
{
name = top;
position = "{410, 700}";
}
);
layerId = "E15D9244-BBAC-404B-AB85-99F8751F40D3";
paths = (
{
closed = 1;
nodes = (
"48 -7 OFFCURVE",
"59 -8 OFFCURVE",
"67 -8 CURVE SMOOTH",
"104 -8 OFFCURVE",
"128 19 OFFCURVE",
"134 57 CURVE SMOOTH",
"215 570 LINE",
"430 -1 LINE",
"442 -7 OFFCURVE",
"457 -8 OFFCURVE",
"466 -8 CURVE SMOOTH",
"513 -8 OFFCURVE",
"542 22 OFFCURVE",
"551 78 CURVE SMOOTH",
"650 703 LINE",
"641 707 OFFCURVE",
"630 708 OFFCURVE",
"622 708 CURVE SMOOTH",
"585 708 OFFCURVE",
"561 681 OFFCURVE",
"555 643 CURVE SMOOTH",
"474 130 LINE",
"259 701 LINE",
"247 707 OFFCURVE",
"232 708 OFFCURVE",
"223 708 CURVE SMOOTH",
"176 708 OFFCURVE",
"146 678 OFFCURVE",
"138 622 CURVE SMOOTH",
"39 -3 LINE"
);
},
{
closed = 1;
nodes = (
"218 -155 OFFCURVE",
"240 -175 OFFCURVE",
"272 -175 CURVE SMOOTH",
"315 -175 OFFCURVE",
"344 -145 OFFCURVE",
"344 -101 CURVE SMOOTH",
"344 -71 OFFCURVE",
"323 -51 OFFCURVE",
"292 -51 CURVE SMOOTH",
"248 -51 OFFCURVE",
"218 -81 OFFCURVE",
"218 -126 CURVE SMOOTH"
);
}
);
width = 659;
}
);
note = uni1E46;
unicode = 1E46;
},
{
glyphname = Eng;
layers = (
{
anchors = (
{
name = bottom;
position = "{299, 0}";
},
{
name = top;
position = "{410, 700}";
}
);
layerId = "E15D9244-BBAC-404B-AB85-99F8751F40D3";
paths = (
{
closed = 1;
nodes = (
"48 -7 OFFCURVE",
"59 -8 OFFCURVE",
"67 -8 CURVE SMOOTH",
"104 -8 OFFCURVE",
"128 19 OFFCURVE",
"134 57 CURVE SMOOTH",
"215 570 LINE",
"430 -1 LINE",
"437 -5 OFFCURVE",
"445 -6 OFFCURVE",
"453 -7 CURVE",
"437 -106 LINE SMOOTH",
"429 -158 OFFCURVE",
"404 -187 OFFCURVE",
"365 -187 CURVE SMOOTH",
"348 -187 OFFCURVE",
"330 -184 OFFCURVE",
"313 -177 CURVE",
"298 -182 OFFCURVE",
"287 -196 OFFCURVE",
"284 -213 CURVE SMOOTH",
"279 -243 OFFCURVE",
"311 -262 OFFCURVE",
"364 -262 CURVE SMOOTH",
"447 -262 OFFCURVE",
"507 -201 OFFCURVE",
"522 -106 CURVE SMOOTH",
"650 703 LINE",
"641 707 OFFCURVE",
"630 708 OFFCURVE",
"622 708 CURVE SMOOTH",
"585 708 OFFCURVE",
"561 681 OFFCURVE",
"555 643 CURVE SMOOTH",
"474 130 LINE",
"259 701 LINE",
"247 707 OFFCURVE",
"232 708 OFFCURVE",
"223 708 CURVE SMOOTH",
"176 708 OFFCURVE",
"146 678 OFFCURVE",
"138 622 CURVE SMOOTH",
"39 -3 LINE"
);
}
);
width = 659;
}
);
leftMetricsKey = N;
note = Eng;
rightMetricsKey = N;
unicode = 014A;
},
{
glyphname = Nlinebelow;
layers = (
{
anchors = (
{
name = bottom;
position = "{282, -110}";
},
{
name = top;
position = "{410, 700}";
}
);
layerId = "E15D9244-BBAC-404B-AB85-99F8751F40D3";
paths = (
{
closed = 1;
nodes = (
"48 -7 OFFCURVE",
"59 -8 OFFCURVE",
"67 -8 CURVE SMOOTH",
"104 -8 OFFCURVE",
"128 19 OFFCURVE",
"134 57 CURVE SMOOTH",
"215 570 LINE",
"430 -1 LINE",
"442 -7 OFFCURVE",
"457 -8 OFFCURVE",
"466 -8 CURVE SMOOTH",
"513 -8 OFFCURVE",
"542 22 OFFCURVE",
"551 78 CURVE SMOOTH",
"650 703 LINE",
"641 707 OFFCURVE",
"630 708 OFFCURVE",
"622 708 CURVE SMOOTH",
"585 708 OFFCURVE",
"561 681 OFFCURVE",
"555 643 CURVE SMOOTH",
"474 130 LINE",
"259 701 LINE",
"247 707 OFFCURVE",
"232 708 OFFCURVE",
"223 708 CURVE SMOOTH",
"176 708 OFFCURVE",
"146 678 OFFCURVE",
"138 622 CURVE SMOOTH",
"39 -3 LINE"
);
},
{
closed = 1;
nodes = (
"432 -122 LINE",
"440 -72 LINE",
"136 -72 LINE",
"128 -122 LINE"
);
}
);
width = 659;
}
);
note = Nlinebelow;
unicode = 1E48;
},
{
glyphname = Ntilde;
layers = (
{
anchors = (
{
name = bottom;
position = "{299, 0}";
},
{
name = top;
position = "{438, 878}";
}
);
layerId = "E15D9244-BBAC-404B-AB85-99F8751F40D3";
paths = (
{
closed = 1;
nodes = (
"48 -7 OFFCURVE",
"59 -8 OFFCURVE",
"67 -8 CURVE SMOOTH",
"104 -8 OFFCURVE",
"128 19 OFFCURVE",
"134 57 CURVE SMOOTH",
"215 570 LINE",
"430 -1 LINE",
"442 -7 OFFCURVE",
"457 -8 OFFCURVE",
"466 -8 CURVE SMOOTH",
"513 -8 OFFCURVE",
"542 22 OFFCURVE",
"551 78 CURVE SMOOTH",
"650 703 LINE",
"641 707 OFFCURVE",
"630 708 OFFCURVE",
"622 708 CURVE SMOOTH",
"585 708 OFFCURVE",
"561 681 OFFCURVE",
"555 643 CURVE SMOOTH",
"474 130 LINE",
"259 701 LINE",
"247 707 OFFCURVE",
"232 708 OFFCURVE",
"223 708 CURVE SMOOTH",
"176 708 OFFCURVE",
"146 678 OFFCURVE",
"138 622 CURVE SMOOTH",
"39 -3 LINE"
);
},
{
closed = 1;
nodes = (
"307 752 LINE",
"325 784 OFFCURVE",
"343 802 OFFCURVE",
"368 802 CURVE SMOOTH",
"409 802 OFFCURVE",
"424 752 OFFCURVE",
"478 752 CURVE SMOOTH",
"523 752 OFFCURVE",
"572 786 OFFCURVE",
"590 868 CURVE",
"547 868 LINE",
"530 836 OFFCURVE",
"511 818 OFFCURVE",
"486 818 CURVE SMOOTH",
"444 818 OFFCURVE",
"430 868 OFFCURVE",
"377 868 CURVE SMOOTH",
"331 868 OFFCURVE",
"283 832 OFFCURVE",
"264 752 CURVE"
);
}
);
width = 659;
}
);
note = Ntilde;
unicode = 00D1;
},
{
glyphname = O;
layers = (
{
anchors = (
{
name = bottom;
position = "{331, 0}";
},
{
name = center;
position = "{386, 350}";
},
{
name = ogonek;
position = "{408, 10}";
},
{
name = top;
position = "{442, 700}";
},
{
name = topleft;
position = "{91, 700}";
},
{
name = topright;
position = "{638, 510}";
}
);
layerId = "E15D9244-BBAC-404B-AB85-99F8751F40D3";
paths = (
{
closed = 1;
nodes = (
"55 95 OFFCURVE",
"167 -12 OFFCURVE",
"340 -12 CURVE SMOOTH",
"576 -12 OFFCURVE",
"719 191 OFFCURVE",
"719 432 CURVE SMOOTH",
"719 607 OFFCURVE",
"604 714 OFFCURVE",
"431 714 CURVE SMOOTH",
"195 714 OFFCURVE",
"55 511 OFFCURVE",
"55 269 CURVE SMOOTH"
);
},
{
closed = 1;
nodes = (
"148 464 OFFCURVE",
"252 640 OFFCURVE",
"431 640 CURVE SMOOTH",
"553 640 OFFCURVE",
"626 558 OFFCURVE",
"626 421 CURVE SMOOTH",
"626 238 OFFCURVE",
"519 62 OFFCURVE",
"340 62 CURVE SMOOTH",
"218 62 OFFCURVE",
"148 145 OFFCURVE",
"148 279 CURVE SMOOTH"
);
}
);
width = 742;
}
);
leftKerningGroup = O;
note = O;
rightKerningGroup = O;
unicode = 004F;
},
{
glyphname = Oacute;
layers = (
{
anchors = (
{
name = bottom;
position = "{331, 0}";
},
{
name = center;
position = "{386, 350}";
},
{
name = ogonek;
position = "{408, 10}";
},
{
name = top;
position = "{519, 910}";
},
{
name = topleft;
position = "{91, 700}";
},
{
name = topright;
position = "{638, 510}";
}
);
layerId = "E15D9244-BBAC-404B-AB85-99F8751F40D3";
paths = (
{
closed = 1;
nodes = (
"55 95 OFFCURVE",
"167 -12 OFFCURVE",
"340 -12 CURVE SMOOTH",
"576 -12 OFFCURVE",
"719 191 OFFCURVE",
"719 432 CURVE SMOOTH",
"719 607 OFFCURVE",
"604 714 OFFCURVE",
"431 714 CURVE SMOOTH",
"195 714 OFFCURVE",
"55 511 OFFCURVE",
"55 269 CURVE SMOOTH"
);
},
{
closed = 1;
nodes = (
"148 464 OFFCURVE",
"252 640 OFFCURVE",
"431 640 CURVE SMOOTH",
"553 640 OFFCURVE",
"626 558 OFFCURVE",
"626 421 CURVE SMOOTH",
"626 238 OFFCURVE",
"519 62 OFFCURVE",
"340 62 CURVE SMOOTH",
"218 62 OFFCURVE",
"148 145 OFFCURVE",
"148 279 CURVE SMOOTH"
);
},
{
closed = 1;
nodes = (
"437 752 LINE",
"569 910 LINE",
"473 910 LINE",
"397 752 LINE"
);
}
);
width = 742;
}
);
leftKerningGroup = O;
note = Oacute;
rightKerningGroup = O;
unicode = 00D3;
},
{
glyphname = Obreve;
layers = (
{
anchors = (
{
name = bottom;
position = "{331, 0}";
},
{
name = center;
position = "{386, 350}";
},
{
name = ogonek;
position = "{408, 10}";
},
{
name = top;
position = "{472, 890}";
},
{
name = topleft;
position = "{91, 700}";
},
{
name = topright;
position = "{638, 510}";
}
);
layerId = "E15D9244-BBAC-404B-AB85-99F8751F40D3";
paths = (
{
closed = 1;
nodes = (
"55 95 OFFCURVE",
"167 -12 OFFCURVE",
"340 -12 CURVE SMOOTH",
"576 -12 OFFCURVE",
"719 191 OFFCURVE",
"719 432 CURVE SMOOTH",
"719 607 OFFCURVE",
"604 714 OFFCURVE",
"431 714 CURVE SMOOTH",
"195 714 OFFCURVE",
"55 511 OFFCURVE",
"55 269 CURVE SMOOTH"
);
},
{
closed = 1;
nodes = (
"148 464 OFFCURVE",
"252 640 OFFCURVE",
"431 640 CURVE SMOOTH",
"553 640 OFFCURVE",
"626 558 OFFCURVE",
"626 421 CURVE SMOOTH",
"626 238 OFFCURVE",
"519 62 OFFCURVE",
"340 62 CURVE SMOOTH",
"218 62 OFFCURVE",
"148 145 OFFCURVE",
"148 279 CURVE SMOOTH"
);
},
{
closed = 1;
nodes = (
"322 802 OFFCURVE",
"372 746 OFFCURVE",
"454 746 CURVE SMOOTH",
"539 746 OFFCURVE",
"597 802 OFFCURVE",
"612 890 CURVE",
"574 890 LINE",
"564 842 OFFCURVE",
"519 812 OFFCURVE",
"460 812 CURVE SMOOTH",
"403 812 OFFCURVE",
"367 842 OFFCURVE",
"370 890 CURVE",
"332 890 LINE"
);
}
);
width = 742;
}
);
leftKerningGroup = O;
note = Obreve;
rightKerningGroup = O;
unicode = 014E;
},
{
glyphname = Ocaron;
layers = (
{
anchors = (
{
name = bottom;
position = "{331, 0}";
},
{
name = center;
position = "{386, 350}";
},
{
name = ogonek;
position = "{408, 10}";
},
{
name = top;
position = "{475, 910}";
},
{
name = topleft;
position = "{91, 700}";
},
{
name = topright;
position = "{638, 510}";
}
);
layerId = "E15D9244-BBAC-404B-AB85-99F8751F40D3";
paths = (
{
closed = 1;
nodes = (
"55 95 OFFCURVE",
"167 -12 OFFCURVE",
"340 -12 CURVE SMOOTH",
"576 -12 OFFCURVE",
"719 191 OFFCURVE",
"719 432 CURVE SMOOTH",
"719 607 OFFCURVE",
"604 714 OFFCURVE",
"431 714 CURVE SMOOTH",
"195 714 OFFCURVE",
"55 511 OFFCURVE",
"55 269 CURVE SMOOTH"
);
},
{
closed = 1;
nodes = (
"148 464 OFFCURVE",
"252 640 OFFCURVE",
"431 640 CURVE SMOOTH",
"553 640 OFFCURVE",
"626 558 OFFCURVE",
"626 421 CURVE SMOOTH",
"626 238 OFFCURVE",
"519 62 OFFCURVE",
"340 62 CURVE SMOOTH",
"218 62 OFFCURVE",
"148 145 OFFCURVE",
"148 279 CURVE SMOOTH"
);
},
{
closed = 1;
nodes = (
"410 752 LINE",
"490 752 LINE",
"633 900 LINE",
"593 900 LINE",
"457 812 LINE",
"353 900 LINE",
"313 900 LINE"
);
}
);
width = 742;
}
);
leftKerningGroup = O;
note = Ocaron;
rightKerningGroup = O;
unicode = 01D1;
},
{
glyphname = Ocircumflex;
layers = (
{
anchors = (
{
name = bottom;
position = "{331, 0}";
},
{
name = center;
position = "{386, 350}";
},
{
name = ogonek;
position = "{408, 10}";
},
{
name = top;
position = "{473, 900}";
},
{
name = topleft;
position = "{91, 700}";
},
{
name = topright;
position = "{638, 510}";
}
);
layerId = "E15D9244-BBAC-404B-AB85-99F8751F40D3";
paths = (
{
closed = 1;
nodes = (
"55 95 OFFCURVE",
"167 -12 OFFCURVE",
"340 -12 CURVE SMOOTH",
"576 -12 OFFCURVE",
"719 191 OFFCURVE",
"719 432 CURVE SMOOTH",
"719 607 OFFCURVE",
"604 714 OFFCURVE",
"431 714 CURVE SMOOTH",
"195 714 OFFCURVE",
"55 511 OFFCURVE",
"55 269 CURVE SMOOTH"
);
},
{
closed = 1;
nodes = (
"148 464 OFFCURVE",
"252 640 OFFCURVE",
"431 640 CURVE SMOOTH",
"553 640 OFFCURVE",
"626 558 OFFCURVE",
"626 421 CURVE SMOOTH",
"626 238 OFFCURVE",
"519 62 OFFCURVE",
"340 62 CURVE SMOOTH",
"218 62 OFFCURVE",
"148 145 OFFCURVE",
"148 279 CURVE SMOOTH"
);
},
{
closed = 1;
nodes = (
"330 752 LINE",
"467 840 LINE",
"570 752 LINE",
"610 752 LINE",
"513 900 LINE",
"433 900 LINE",
"290 752 LINE"
);
}
);
width = 742;
}
);
leftKerningGroup = O;
note = Ocircumflex;
rightKerningGroup = O;
unicode = 00D4;
},
{
glyphname = Ocircumflexacute;
layers = (
{
anchors = (
{
name = bottom;
position = "{331, 0}";
},
{
name = center;
position = "{386, 350}";
},
{
name = ogonek;
position = "{408, 10}";
},
{
name = top;
position = "{488, 990}";
},
{
name = topleft;
position = "{91, 700}";
},
{
name = topright;
position = "{638, 510}";
}
);
layerId = "E15D9244-BBAC-404B-AB85-99F8751F40D3";
paths = (
{
closed = 1;
nodes = (
"55 95 OFFCURVE",
"167 -12 OFFCURVE",
"340 -12 CURVE SMOOTH",
"576 -12 OFFCURVE",
"719 191 OFFCURVE",
"719 432 CURVE SMOOTH",
"719 607 OFFCURVE",
"604 714 OFFCURVE",
"431 714 CURVE SMOOTH",
"195 714 OFFCURVE",
"55 511 OFFCURVE",
"55 269 CURVE SMOOTH"
);
},
{
closed = 1;
nodes = (
"148 464 OFFCURVE",
"252 640 OFFCURVE",
"431 640 CURVE SMOOTH",
"553 640 OFFCURVE",
"626 558 OFFCURVE",
"626 421 CURVE SMOOTH",
"626 238 OFFCURVE",
"519 62 OFFCURVE",
"340 62 CURVE SMOOTH",
"218 62 OFFCURVE",
"148 145 OFFCURVE",
"148 279 CURVE SMOOTH"
);
},
{
closed = 1;
nodes = (
"330 752 LINE",
"467 840 LINE",
"570 752 LINE",
"610 752 LINE",
"513 900 LINE",
"433 900 LINE",
"290 752 LINE"
);
},
{
closed = 1;
nodes = (
"608 857 LINE",
"714 983 LINE",
"637 983 LINE",
"576 857 LINE"
);
}
);
width = 742;
}
);
leftKerningGroup = O;
note = Ocircumflexacute;
rightKerningGroup = O;
unicode = 1ED0;
},
{
glyphname = Ocircumflexdotbelow;
layers = (
{
anchors = (
{
name = bottom;
position = "{303, -175}";
},
{
name = center;
position = "{386, 350}";
},
{
name = ogonek;
position = "{408, 10}";
},
{
name = top;
position = "{473, 900}";
},
{
name = topleft;
position = "{91, 700}";
},
{
name = topright;
position = "{638, 510}";
}
);
layerId = "E15D9244-BBAC-404B-AB85-99F8751F40D3";
paths = (
{
closed = 1;
nodes = (
"55 95 OFFCURVE",
"167 -12 OFFCURVE",
"340 -12 CURVE SMOOTH",
"576 -12 OFFCURVE",
"719 191 OFFCURVE",
"719 432 CURVE SMOOTH",
"719 607 OFFCURVE",
"604 714 OFFCURVE",
"431 714 CURVE SMOOTH",
"195 714 OFFCURVE",
"55 511 OFFCURVE",
"55 269 CURVE SMOOTH"
);
},
{
closed = 1;
nodes = (
"148 464 OFFCURVE",
"252 640 OFFCURVE",
"431 640 CURVE SMOOTH",
"553 640 OFFCURVE",
"626 558 OFFCURVE",
"626 421 CURVE SMOOTH",
"626 238 OFFCURVE",
"519 62 OFFCURVE",
"340 62 CURVE SMOOTH",
"218 62 OFFCURVE",
"148 145 OFFCURVE",
"148 279 CURVE SMOOTH"
);
},
{
closed = 1;
nodes = (
"250 -155 OFFCURVE",
"272 -175 OFFCURVE",
"304 -175 CURVE SMOOTH",
"347 -175 OFFCURVE",
"376 -145 OFFCURVE",
"376 -101 CURVE SMOOTH",
"376 -71 OFFCURVE",
"355 -51 OFFCURVE",
"324 -51 CURVE SMOOTH",
"280 -51 OFFCURVE",
"250 -81 OFFCURVE",
"250 -126 CURVE SMOOTH"
);
},
{
closed = 1;
nodes = (
"330 752 LINE",
"467 840 LINE",
"570 752 LINE",
"610 752 LINE",
"513 900 LINE",
"433 900 LINE",
"290 752 LINE"
);
}
);
width = 742;
}
);
leftKerningGroup = O;
note = Ocircumflexdotbelow;
rightKerningGroup = O;
unicode = 1ED8;
},
{
glyphname = Ocircumflexgrave;
layers = (
{
anchors = (
{
name = bottom;
position = "{331, 0}";
},
{
name = center;
position = "{386, 350}";
},
{
name = ogonek;
position = "{408, 10}";
},
{
name = top;
position = "{485, 974}";
},
{
name = topleft;
position = "{91, 700}";
},
{
name = topright;
position = "{638, 510}";
}
);
layerId = "E15D9244-BBAC-404B-AB85-99F8751F40D3";
paths = (
{
closed = 1;
nodes = (
"55 95 OFFCURVE",
"167 -12 OFFCURVE",
"340 -12 CURVE SMOOTH",
"576 -12 OFFCURVE",
"719 191 OFFCURVE",
"719 432 CURVE SMOOTH",
"719 607 OFFCURVE",
"604 714 OFFCURVE",
"431 714 CURVE SMOOTH",
"195 714 OFFCURVE",
"55 511 OFFCURVE",
"55 269 CURVE SMOOTH"
);
},
{
closed = 1;
nodes = (
"148 464 OFFCURVE",
"252 640 OFFCURVE",
"431 640 CURVE SMOOTH",
"553 640 OFFCURVE",
"626 558 OFFCURVE",
"626 421 CURVE SMOOTH",
"626 238 OFFCURVE",
"519 62 OFFCURVE",
"340 62 CURVE SMOOTH",
"218 62 OFFCURVE",
"148 145 OFFCURVE",
"148 279 CURVE SMOOTH"
);
},
{
closed = 1;
nodes = (
"330 752 LINE",
"467 840 LINE",
"570 752 LINE",
"610 752 LINE",
"513 900 LINE",
"433 900 LINE",
"290 752 LINE"
);
},
{
closed = 1;
nodes = (
"599 857 LINE",
"631 857 LINE",
"610 983 LINE",
"533 983 LINE"
);
}
);
width = 742;
}
);
leftKerningGroup = O;
note = Ocircumflexgrave;
rightKerningGroup = O;
unicode = 1ED2;
},
{
glyphname = Ocircumflexhookabove;
layers = (
{
anchors = (
{
name = bottom;
position = "{331, 0}";
},
{
name = center;
position = "{386, 350}";
},
{
name = ogonek;
position = "{408, 10}";
},
{
name = top;
position = "{489, 990}";
},
{
name = topleft;
position = "{91, 700}";
},
{
name = topright;
position = "{638, 510}";
}
);
layerId = "E15D9244-BBAC-404B-AB85-99F8751F40D3";
paths = (
{
closed = 1;
nodes = (
"55 95 OFFCURVE",
"167 -12 OFFCURVE",
"340 -12 CURVE SMOOTH",
"576 -12 OFFCURVE",
"719 191 OFFCURVE",
"719 432 CURVE SMOOTH",
"719 607 OFFCURVE",
"604 714 OFFCURVE",
"431 714 CURVE SMOOTH",
"195 714 OFFCURVE",
"55 511 OFFCURVE",
"55 269 CURVE SMOOTH"
);
},
{
closed = 1;
nodes = (
"148 464 OFFCURVE",
"252 640 OFFCURVE",
"431 640 CURVE SMOOTH",
"553 640 OFFCURVE",
"626 558 OFFCURVE",
"626 421 CURVE SMOOTH",
"626 238 OFFCURVE",
"519 62 OFFCURVE",
"340 62 CURVE SMOOTH",
"218 62 OFFCURVE",
"148 145 OFFCURVE",
"148 279 CURVE SMOOTH"
);
},
{
closed = 1;
nodes = (
"330 752 LINE",
"467 840 LINE",
"570 752 LINE",
"610 752 LINE",
"513 900 LINE",
"433 900 LINE",
"290 752 LINE"
);
},
{
closed = 1;
nodes = (
"577 958 OFFCURVE",
"587 960 OFFCURVE",
"597 960 CURVE SMOOTH",
"616 960 OFFCURVE",
"625 952 OFFCURVE",
"625 937 CURVE SMOOTH",
"625 911 OFFCURVE",
"605 877 OFFCURVE",
"570 857 CURVE",
"617 857 LINE",
"660 877 OFFCURVE",
"685 921 OFFCURVE",
"685 959 CURVE SMOOTH",
"685 990 OFFCURVE",
"664 1005 OFFCURVE",
"628 1005 CURVE SMOOTH",
"609 1005 OFFCURVE",
"591 1001 OFFCURVE",
"575 993 CURVE",
"569 955 LINE"
);
}
);
width = 742;
}
);
leftKerningGroup = O;
note = Ocircumflexhookabove;
rightKerningGroup = O;
unicode = 1ED4;
},
{
glyphname = Ocircumflextilde;
layers = (
{
anchors = (
{
name = bottom;
position = "{331, 0}";
},
{
name = center;
position = "{386, 350}";
},
{
name = ogonek;
position = "{408, 10}";
},
{
name = top;
position = "{504, 1091}";
},
{
name = topleft;
position = "{91, 700}";
},
{
name = topright;
position = "{638, 510}";
}
);
layerId = "E15D9244-BBAC-404B-AB85-99F8751F40D3";
paths = (
{
closed = 1;
nodes = (
"55 95 OFFCURVE",
"167 -12 OFFCURVE",
"340 -12 CURVE SMOOTH",
"576 -12 OFFCURVE",
"719 191 OFFCURVE",
"719 432 CURVE SMOOTH",
"719 607 OFFCURVE",
"604 714 OFFCURVE",
"431 714 CURVE SMOOTH",
"195 714 OFFCURVE",
"55 511 OFFCURVE",
"55 269 CURVE SMOOTH"
);
},
{
closed = 1;
nodes = (
"148 464 OFFCURVE",
"252 640 OFFCURVE",
"431 640 CURVE SMOOTH",
"553 640 OFFCURVE",
"626 558 OFFCURVE",
"626 421 CURVE SMOOTH",
"626 238 OFFCURVE",
"519 62 OFFCURVE",
"340 62 CURVE SMOOTH",
"218 62 OFFCURVE",
"148 145 OFFCURVE",
"148 279 CURVE SMOOTH"
);
},
{
closed = 1;
nodes = (
"330 752 LINE",
"467 840 LINE",
"570 752 LINE",
"610 752 LINE",
"513 900 LINE",
"433 900 LINE",
"290 752 LINE"
);
},
{
closed = 1;
nodes = (
"384 944 LINE",
"400 972 OFFCURVE",
"415 987 OFFCURVE",
"437 987 CURVE SMOOTH",
"472 987 OFFCURVE",
"485 944 OFFCURVE",
"531 944 CURVE SMOOTH",
"570 944 OFFCURVE",
"612 974 OFFCURVE",
"627 1044 CURVE",
"591 1044 LINE",
"576 1017 OFFCURVE",
"560 1001 OFFCURVE",
"538 1001 CURVE SMOOTH",
"502 1001 OFFCURVE",
"490 1044 OFFCURVE",
"444 1044 CURVE SMOOTH",
"405 1044 OFFCURVE",
"363 1013 OFFCURVE",
"347 944 CURVE"
);
}
);
width = 742;
}
);
leftKerningGroup = O;
note = Ocircumflextilde;
rightKerningGroup = O;
unicode = 1ED6;
},
{
glyphname = Odieresis;
layers = (
{
anchors = (
{
name = bottom;
position = "{331, 0}";
},
{
name = center;
position = "{386, 350}";
},
{
name = ogonek;
position = "{408, 10}";
},
{
name = top;
position = "{467, 858}";
},
{
name = topleft;
position = "{91, 700}";
},
{
name = topright;
position = "{638, 510}";
}
);
layerId = "E15D9244-BBAC-404B-AB85-99F8751F40D3";
paths = (
{
closed = 1;
nodes = (
"55 95 OFFCURVE",
"167 -12 OFFCURVE",
"340 -12 CURVE SMOOTH",
"576 -12 OFFCURVE",
"719 191 OFFCURVE",
"719 432 CURVE SMOOTH",
"719 607 OFFCURVE",
"604 714 OFFCURVE",
"431 714 CURVE SMOOTH",
"195 714 OFFCURVE",
"55 511 OFFCURVE",
"55 269 CURVE SMOOTH"
);
},
{
closed = 1;
nodes = (
"148 464 OFFCURVE",
"252 640 OFFCURVE",
"431 640 CURVE SMOOTH",
"553 640 OFFCURVE",
"626 558 OFFCURVE",
"626 421 CURVE SMOOTH",
"626 238 OFFCURVE",
"519 62 OFFCURVE",
"340 62 CURVE SMOOTH",
"218 62 OFFCURVE",
"148 145 OFFCURVE",
"148 279 CURVE SMOOTH"
);
},
{
closed = 1;
nodes = (
"321 769 OFFCURVE",
"340 752 OFFCURVE",
"368 752 CURVE SMOOTH",
"405 752 OFFCURVE",
"429 777 OFFCURVE",
"429 815 CURVE SMOOTH",
"429 841 OFFCURVE",
"411 858 OFFCURVE",
"385 858 CURVE SMOOTH",
"347 858 OFFCURVE",
"321 832 OFFCURVE",
"321 794 CURVE SMOOTH"
);
},
{
closed = 1;
nodes = (
"487 769 OFFCURVE",
"506 752 OFFCURVE",
"534 752 CURVE SMOOTH",
"571 752 OFFCURVE",
"595 777 OFFCURVE",
"595 815 CURVE SMOOTH",
"595 841 OFFCURVE",
"577 858 OFFCURVE",
"551 858 CURVE SMOOTH",
"513 858 OFFCURVE",
"487 832 OFFCURVE",
"487 794 CURVE SMOOTH"
);
}
);
width = 742;
}
);
leftKerningGroup = O;
note = Odieresis;
rightKerningGroup = O;
unicode = 00D6;
},
{
glyphname = Odotbelow;
layers = (
{
anchors = (
{
name = bottom;
position = "{303, -175}";
},
{
name = center;
position = "{386, 350}";
},
{
name = ogonek;
position = "{408, 10}";
},
{
name = top;
position = "{442, 700}";
},
{
name = topleft;
position = "{91, 700}";
},
{
name = topright;
position = "{638, 510}";
}
);
layerId = "E15D9244-BBAC-404B-AB85-99F8751F40D3";
paths = (
{
closed = 1;
nodes = (
"55 95 OFFCURVE",
"167 -12 OFFCURVE",
"340 -12 CURVE SMOOTH",
"576 -12 OFFCURVE",
"719 191 OFFCURVE",
"719 432 CURVE SMOOTH",
"719 607 OFFCURVE",
"604 714 OFFCURVE",
"431 714 CURVE SMOOTH",
"195 714 OFFCURVE",
"55 511 OFFCURVE",
"55 269 CURVE SMOOTH"
);
},
{
closed = 1;
nodes = (
"148 464 OFFCURVE",
"252 640 OFFCURVE",
"431 640 CURVE SMOOTH",
"553 640 OFFCURVE",
"626 558 OFFCURVE",
"626 421 CURVE SMOOTH",
"626 238 OFFCURVE",
"519 62 OFFCURVE",
"340 62 CURVE SMOOTH",
"218 62 OFFCURVE",
"148 145 OFFCURVE",
"148 279 CURVE SMOOTH"
);
},
{
closed = 1;
nodes = (
"250 -155 OFFCURVE",
"272 -175 OFFCURVE",
"304 -175 CURVE SMOOTH",
"347 -175 OFFCURVE",
"376 -145 OFFCURVE",
"376 -101 CURVE SMOOTH",
"376 -71 OFFCURVE",
"355 -51 OFFCURVE",
"324 -51 CURVE SMOOTH",
"280 -51 OFFCURVE",
"250 -81 OFFCURVE",
"250 -126 CURVE SMOOTH"
);
}
);
width = 742;
}
);
leftKerningGroup = O;
note = Odotbelow;
rightKerningGroup = O;
unicode = 1ECC;
},
{
glyphname = Ograve;
layers = (
{
anchors = (
{
name = bottom;
position = "{331, 0}";
},
{
name = center;
position = "{386, 350}";
},
{
name = ogonek;
position = "{408, 10}";
},
{
name = top;
position = "{445, 910}";
},
{
name = topleft;
position = "{91, 700}";
},
{
name = topright;
position = "{638, 510}";
}
);
layerId = "E15D9244-BBAC-404B-AB85-99F8751F40D3";
paths = (
{
closed = 1;
nodes = (
"55 95 OFFCURVE",
"167 -12 OFFCURVE",
"340 -12 CURVE SMOOTH",
"576 -12 OFFCURVE",
"719 191 OFFCURVE",
"719 432 CURVE SMOOTH",
"719 607 OFFCURVE",
"604 714 OFFCURVE",
"431 714 CURVE SMOOTH",
"195 714 OFFCURVE",
"55 511 OFFCURVE",
"55 269 CURVE SMOOTH"
);
},
{
closed = 1;
nodes = (
"148 464 OFFCURVE",
"252 640 OFFCURVE",
"431 640 CURVE SMOOTH",
"553 640 OFFCURVE",
"626 558 OFFCURVE",
"626 421 CURVE SMOOTH",
"626 238 OFFCURVE",
"519 62 OFFCURVE",
"340 62 CURVE SMOOTH",
"218 62 OFFCURVE",
"148 145 OFFCURVE",
"148 279 CURVE SMOOTH"
);
},
{
closed = 1;
nodes = (
"469 752 LINE",
"509 752 LINE",
"483 910 LINE",
"387 910 LINE"
);
}
);
width = 742;
}
);
leftKerningGroup = O;
note = Ograve;
rightKerningGroup = O;
unicode = 00D2;
},
{
glyphname = Ohookabove;
layers = (
{
anchors = (
{
name = bottom;
position = "{331, 0}";
},
{
name = center;
position = "{386, 350}";
},
{
name = ogonek;
position = "{408, 10}";
},
{
name = top;
position = "{483, 937}";
},
{
name = topleft;
position = "{91, 700}";
},
{
name = topright;
position = "{638, 510}";
}
);
layerId = "E15D9244-BBAC-404B-AB85-99F8751F40D3";
paths = (
{
closed = 1;
nodes = (
"55 95 OFFCURVE",
"167 -12 OFFCURVE",
"340 -12 CURVE SMOOTH",
"576 -12 OFFCURVE",
"719 191 OFFCURVE",
"719 432 CURVE SMOOTH",
"719 607 OFFCURVE",
"604 714 OFFCURVE",
"431 714 CURVE SMOOTH",
"195 714 OFFCURVE",
"55 511 OFFCURVE",
"55 269 CURVE SMOOTH"
);
},
{
closed = 1;
nodes = (
"148 464 OFFCURVE",
"252 640 OFFCURVE",
"431 640 CURVE SMOOTH",
"553 640 OFFCURVE",
"626 558 OFFCURVE",
"626 421 CURVE SMOOTH",
"626 238 OFFCURVE",
"519 62 OFFCURVE",
"340 62 CURVE SMOOTH",
"218 62 OFFCURVE",
"148 145 OFFCURVE",
"148 279 CURVE SMOOTH"
);
},
{
closed = 1;
nodes = (
"413 879 OFFCURVE",
"425 881 OFFCURVE",
"437 881 CURVE SMOOTH",
"461 881 OFFCURVE",
"472 871 OFFCURVE",
"472 853 CURVE SMOOTH",
"472 820 OFFCURVE",
"447 777 OFFCURVE",
"404 752 CURVE",
"462 752 LINE",
"516 778 OFFCURVE",
"548 833 OFFCURVE",
"548 880 CURVE SMOOTH",
"548 919 OFFCURVE",
"521 937 OFFCURVE",
"476 937 CURVE SMOOTH",
"452 937 OFFCURVE",
"430 932 OFFCURVE",
"410 922 CURVE",
"402 875 LINE"
);
}
);
width = 742;
}
);
leftKerningGroup = O;
note = Ohookabove;
rightKerningGroup = O;
unicode = 1ECE;
},
{
glyphname = Ohorn;
lastChange = "2018-03-13 07:06:37 +0000";
layers = (
{
anchors = (
{
name = bottom;
position = "{331, 0}";
},
{
name = center;
position = "{386, 350}";
},
{
name = ogonek;
position = "{408, 10}";
},
{
name = top;
position = "{442, 700}";
},
{
name = topleft;
position = "{91, 700}";
},
{
name = topright;
position = "{638, 510}";
}
);
layerId = "E15D9244-BBAC-404B-AB85-99F8751F40D3";
paths = (
{
closed = 1;
nodes = (
"55 95 OFFCURVE",
"167 -12 OFFCURVE",
"340 -12 CURVE SMOOTH",
"576 -12 OFFCURVE",
"719 191 OFFCURVE",
"719 432 CURVE SMOOTH",
"719 461 OFFCURVE",
"716 487 OFFCURVE",
"710 512 CURVE",
"802 554 OFFCURVE",
"846 629.009 OFFCURVE",
"846 686 CURVE SMOOTH",
"846 718 OFFCURVE",
"822 740 OFFCURVE",
"787 740 CURVE SMOOTH",
"753 740 OFFCURVE",
"726 717 OFFCURVE",
"726 677 CURVE SMOOTH",
"726 648 OFFCURVE",
"746 626 OFFCURVE",
"776 626 CURVE",
"772 601 OFFCURVE",
"742 570 OFFCURVE",
"699 548 CURVE",
"659 653 OFFCURVE",
"561 714 OFFCURVE",
"431 714 CURVE SMOOTH",
"195 714 OFFCURVE",
"55 511 OFFCURVE",
"55 269 CURVE SMOOTH"
);
},
{
closed = 1;
nodes = (
"148 464 OFFCURVE",
"252 640 OFFCURVE",
"431 640 CURVE SMOOTH",
"553 640 OFFCURVE",
"626 558 OFFCURVE",
"626 421 CURVE SMOOTH",
"626 238 OFFCURVE",
"519 62 OFFCURVE",
"340 62 CURVE SMOOTH",
"218 62 OFFCURVE",
"148 145 OFFCURVE",
"148 279 CURVE SMOOTH"
);
}
);
width = 789;
}
);
note = Ohorn;
unicode = 01A0;
},
{
glyphname = Ohornacute;
lastChange = "2018-03-13 07:06:37 +0000";
layers = (
{
anchors = (
{
name = bottom;
position = "{331, 0}";
},
{
name = center;
position = "{386, 350}";
},
{
name = ogonek;
position = "{408, 10}";
},
{
name = top;
position = "{519, 910}";
},
{
name = topleft;
position = "{91, 700}";
},
{
name = topright;
position = "{638, 510}";
}
);
layerId = "E15D9244-BBAC-404B-AB85-99F8751F40D3";
paths = (
{
closed = 1;
nodes = (
"55 95 OFFCURVE",
"167 -12 OFFCURVE",
"340 -12 CURVE SMOOTH",
"576 -12 OFFCURVE",
"719 191 OFFCURVE",
"719 432 CURVE SMOOTH",
"719 461 OFFCURVE",
"716 487 OFFCURVE",
"710 512 CURVE",
"802 554 OFFCURVE",
"846 629.009 OFFCURVE",
"846 686 CURVE SMOOTH",
"846 718 OFFCURVE",
"822 740 OFFCURVE",
"787 740 CURVE SMOOTH",
"753 740 OFFCURVE",
"726 717 OFFCURVE",
"726 677 CURVE SMOOTH",
"726 648 OFFCURVE",
"746 626 OFFCURVE",
"776 626 CURVE",
"772 601 OFFCURVE",
"742 570 OFFCURVE",
"699 548 CURVE",
"659 653 OFFCURVE",
"561 714 OFFCURVE",
"431 714 CURVE SMOOTH",
"195 714 OFFCURVE",
"55 511 OFFCURVE",
"55 269 CURVE SMOOTH"
);
},
{
closed = 1;
nodes = (
"148 464 OFFCURVE",
"252 640 OFFCURVE",
"431 640 CURVE SMOOTH",
"553 640 OFFCURVE",
"626 558 OFFCURVE",
"626 421 CURVE SMOOTH",
"626 238 OFFCURVE",
"519 62 OFFCURVE",
"340 62 CURVE SMOOTH",
"218 62 OFFCURVE",
"148 145 OFFCURVE",
"148 279 CURVE SMOOTH"
);
},
{
closed = 1;
nodes = (
"437 752 LINE",
"569 910 LINE",
"473 910 LINE",
"397 752 LINE"
);
}
);
width = 789;
}
);
leftKerningGroup = O;
note = Ohornacute;
rightKerningGroup = O;
unicode = 1EDA;
},
{
glyphname = Ohorndotbelow;
lastChange = "2018-03-13 07:06:37 +0000";
layers = (
{
anchors = (
{
name = bottom;
position = "{303, -175}";
},
{
name = center;
position = "{386, 350}";
},
{
name = ogonek;
position = "{408, 10}";
},
{
name = top;
position = "{442, 700}";
},
{
name = topleft;
position = "{91, 700}";
},
{
name = topright;
position = "{638, 510}";
}
);
layerId = "E15D9244-BBAC-404B-AB85-99F8751F40D3";
paths = (
{
closed = 1;
nodes = (
"55 95 OFFCURVE",
"167 -12 OFFCURVE",
"340 -12 CURVE SMOOTH",
"576 -12 OFFCURVE",
"719 191 OFFCURVE",
"719 432 CURVE SMOOTH",
"719 461 OFFCURVE",
"716 487 OFFCURVE",
"710 512 CURVE",
"802 554 OFFCURVE",
"846 629.009 OFFCURVE",
"846 686 CURVE SMOOTH",
"846 718 OFFCURVE",
"822 740 OFFCURVE",
"787 740 CURVE SMOOTH",
"753 740 OFFCURVE",
"726 717 OFFCURVE",
"726 677 CURVE SMOOTH",
"726 648 OFFCURVE",
"746 626 OFFCURVE",
"776 626 CURVE",
"772 601 OFFCURVE",
"742 570 OFFCURVE",
"699 548 CURVE",
"659 653 OFFCURVE",
"561 714 OFFCURVE",
"431 714 CURVE SMOOTH",
"195 714 OFFCURVE",
"55 511 OFFCURVE",
"55 269 CURVE SMOOTH"
);
},
{
closed = 1;
nodes = (
"148 464 OFFCURVE",
"252 640 OFFCURVE",
"431 640 CURVE SMOOTH",
"553 640 OFFCURVE",
"626 558 OFFCURVE",
"626 421 CURVE SMOOTH",
"626 238 OFFCURVE",
"519 62 OFFCURVE",
"340 62 CURVE SMOOTH",
"218 62 OFFCURVE",
"148 145 OFFCURVE",
"148 279 CURVE SMOOTH"
);
},
{
closed = 1;
nodes = (
"250 -155 OFFCURVE",
"272 -175 OFFCURVE",
"304 -175 CURVE SMOOTH",
"347 -175 OFFCURVE",
"376 -145 OFFCURVE",
"376 -101 CURVE SMOOTH",
"376 -71 OFFCURVE",
"355 -51 OFFCURVE",
"324 -51 CURVE SMOOTH",
"280 -51 OFFCURVE",
"250 -81 OFFCURVE",
"250 -126 CURVE SMOOTH"
);
}
);
width = 789;
}
);
leftKerningGroup = O;
note = Ohorndotbelow;
rightKerningGroup = O;
unicode = 1EE2;
},
{
glyphname = Ohorngrave;
lastChange = "2018-03-13 07:06:37 +0000";
layers = (
{
anchors = (
{
name = bottom;
position = "{331, 0}";
},
{
name = center;
position = "{386, 350}";
},
{
name = ogonek;
position = "{408, 10}";
},
{
name = top;
position = "{445, 910}";
},
{
name = topleft;
position = "{91, 700}";
},
{
name = topright;
position = "{638, 510}";
}
);
layerId = "E15D9244-BBAC-404B-AB85-99F8751F40D3";
paths = (
{
closed = 1;
nodes = (
"55 95 OFFCURVE",
"167 -12 OFFCURVE",
"340 -12 CURVE SMOOTH",
"576 -12 OFFCURVE",
"719 191 OFFCURVE",
"719 432 CURVE SMOOTH",
"719 461 OFFCURVE",
"716 487 OFFCURVE",
"710 512 CURVE",
"802 554 OFFCURVE",
"846 629.009 OFFCURVE",
"846 686 CURVE SMOOTH",
"846 718 OFFCURVE",
"822 740 OFFCURVE",
"787 740 CURVE SMOOTH",
"753 740 OFFCURVE",
"726 717 OFFCURVE",
"726 677 CURVE SMOOTH",
"726 648 OFFCURVE",
"746 626 OFFCURVE",
"776 626 CURVE",
"772 601 OFFCURVE",
"742 570 OFFCURVE",
"699 548 CURVE",
"659 653 OFFCURVE",
"561 714 OFFCURVE",
"431 714 CURVE SMOOTH",
"195 714 OFFCURVE",
"55 511 OFFCURVE",
"55 269 CURVE SMOOTH"
);
},
{
closed = 1;
nodes = (
"148 464 OFFCURVE",
"252 640 OFFCURVE",
"431 640 CURVE SMOOTH",
"553 640 OFFCURVE",
"626 558 OFFCURVE",
"626 421 CURVE SMOOTH",
"626 238 OFFCURVE",
"519 62 OFFCURVE",
"340 62 CURVE SMOOTH",
"218 62 OFFCURVE",
"148 145 OFFCURVE",
"148 279 CURVE SMOOTH"
);
},
{
closed = 1;
nodes = (
"469 752 LINE",
"509 752 LINE",
"483 910 LINE",
"387 910 LINE"
);
}
);
width = 789;
}
);
leftKerningGroup = O;
note = Ohorngrave;
rightKerningGroup = O;
unicode = 1EDC;
},
{
glyphname = Ohornhookabove;
lastChange = "2018-03-13 07:06:37 +0000";
layers = (
{
anchors = (
{
name = bottom;
position = "{331, 0}";
},
{
name = center;
position = "{386, 350}";
},
{
name = ogonek;
position = "{408, 10}";
},
{
name = top;
position = "{483, 937}";
},
{
name = topleft;
position = "{91, 700}";
},
{
name = topright;
position = "{638, 510}";
}
);
layerId = "E15D9244-BBAC-404B-AB85-99F8751F40D3";
paths = (
{
closed = 1;
nodes = (
"55 95 OFFCURVE",
"167 -12 OFFCURVE",
"340 -12 CURVE SMOOTH",
"576 -12 OFFCURVE",
"719 191 OFFCURVE",
"719 432 CURVE SMOOTH",
"719 461 OFFCURVE",
"716 487 OFFCURVE",
"710 512 CURVE",
"802 554 OFFCURVE",
"846 629.009 OFFCURVE",
"846 686 CURVE SMOOTH",
"846 718 OFFCURVE",
"822 740 OFFCURVE",
"787 740 CURVE SMOOTH",
"753 740 OFFCURVE",
"726 717 OFFCURVE",
"726 677 CURVE SMOOTH",
"726 648 OFFCURVE",
"746 626 OFFCURVE",
"776 626 CURVE",
"772 601 OFFCURVE",
"742 570 OFFCURVE",
"699 548 CURVE",
"659 653 OFFCURVE",
"561 714 OFFCURVE",
"431 714 CURVE SMOOTH",
"195 714 OFFCURVE",
"55 511 OFFCURVE",
"55 269 CURVE SMOOTH"
);
},
{
closed = 1;
nodes = (
"148 464 OFFCURVE",
"252 640 OFFCURVE",
"431 640 CURVE SMOOTH",
"553 640 OFFCURVE",
"626 558 OFFCURVE",
"626 421 CURVE SMOOTH",
"626 238 OFFCURVE",
"519 62 OFFCURVE",
"340 62 CURVE SMOOTH",
"218 62 OFFCURVE",
"148 145 OFFCURVE",
"148 279 CURVE SMOOTH"
);
},
{
closed = 1;
nodes = (
"413 879 OFFCURVE",
"425 881 OFFCURVE",
"437 881 CURVE SMOOTH",
"461 881 OFFCURVE",
"472 871 OFFCURVE",
"472 853 CURVE SMOOTH",
"472 820 OFFCURVE",
"447 777 OFFCURVE",
"404 752 CURVE",
"462 752 LINE",
"516 778 OFFCURVE",
"548 833 OFFCURVE",
"548 880 CURVE SMOOTH",
"548 919 OFFCURVE",
"521 937 OFFCURVE",
"476 937 CURVE SMOOTH",
"452 937 OFFCURVE",
"430 932 OFFCURVE",
"410 922 CURVE",
"402 875 LINE"
);
}
);
width = 789;
}
);
leftKerningGroup = O;
note = Ohornhookabove;
rightKerningGroup = O;
unicode = 1EDE;
},
{
glyphname = Ohorntilde;
lastChange = "2018-03-13 07:06:37 +0000";
layers = (
{
anchors = (
{
name = bottom;
position = "{331, 0}";
},
{
name = center;
position = "{386, 350}";
},
{
name = ogonek;
position = "{408, 10}";
},
{
name = top;
position = "{470, 878}";
},
{
name = topleft;
position = "{91, 700}";
},
{
name = topright;
position = "{638, 510}";
}
);
layerId = "E15D9244-BBAC-404B-AB85-99F8751F40D3";
paths = (
{
closed = 1;
nodes = (
"55 95 OFFCURVE",
"167 -12 OFFCURVE",
"340 -12 CURVE SMOOTH",
"576 -12 OFFCURVE",
"719 191 OFFCURVE",
"719 432 CURVE SMOOTH",
"719 461 OFFCURVE",
"716 487 OFFCURVE",
"710 512 CURVE",
"802 554 OFFCURVE",
"846 629.009 OFFCURVE",
"846 686 CURVE SMOOTH",
"846 718 OFFCURVE",
"822 740 OFFCURVE",
"787 740 CURVE SMOOTH",
"753 740 OFFCURVE",
"726 717 OFFCURVE",
"726 677 CURVE SMOOTH",
"726 648 OFFCURVE",
"746 626 OFFCURVE",
"776 626 CURVE",
"772 601 OFFCURVE",
"742 570 OFFCURVE",
"699 548 CURVE",
"659 653 OFFCURVE",
"561 714 OFFCURVE",
"431 714 CURVE SMOOTH",
"195 714 OFFCURVE",
"55 511 OFFCURVE",
"55 269 CURVE SMOOTH"
);
},
{
closed = 1;
nodes = (
"148 464 OFFCURVE",
"252 640 OFFCURVE",
"431 640 CURVE SMOOTH",
"553 640 OFFCURVE",
"626 558 OFFCURVE",
"626 421 CURVE SMOOTH",
"626 238 OFFCURVE",
"519 62 OFFCURVE",
"340 62 CURVE SMOOTH",
"218 62 OFFCURVE",
"148 145 OFFCURVE",
"148 279 CURVE SMOOTH"
);
},
{
closed = 1;
nodes = (
"339 752 LINE",
"357 784 OFFCURVE",
"375 802 OFFCURVE",
"400 802 CURVE SMOOTH",
"441 802 OFFCURVE",
"456 752 OFFCURVE",
"510 752 CURVE SMOOTH",
"555 752 OFFCURVE",
"604 786 OFFCURVE",
"622 868 CURVE",
"579 868 LINE",
"562 836 OFFCURVE",
"543 818 OFFCURVE",
"518 818 CURVE SMOOTH",
"476 818 OFFCURVE",
"462 868 OFFCURVE",
"409 868 CURVE SMOOTH",
"363 868 OFFCURVE",
"315 832 OFFCURVE",
"296 752 CURVE"
);
}
);
width = 789;
}
);
leftKerningGroup = O;
note = Ohorntilde;
rightKerningGroup = O;
unicode = 1EE0;
},
{
glyphname = Ohungarumlaut;
layers = (
{
anchors = (
{
name = bottom;
position = "{331, 0}";
},
{
name = center;
position = "{386, 350}";
},
{
name = ogonek;
position = "{408, 10}";
},
{
name = top;
position = "{524, 910}";
},
{
name = topleft;
position = "{91, 700}";
},
{
name = topright;
position = "{638, 510}";
}
);
layerId = "E15D9244-BBAC-404B-AB85-99F8751F40D3";
paths = (
{
closed = 1;
nodes = (
"55 95 OFFCURVE",
"167 -12 OFFCURVE",
"340 -12 CURVE SMOOTH",
"576 -12 OFFCURVE",
"719 191 OFFCURVE",
"719 432 CURVE SMOOTH",
"719 607 OFFCURVE",
"604 714 OFFCURVE",
"431 714 CURVE SMOOTH",
"195 714 OFFCURVE",
"55 511 OFFCURVE",
"55 269 CURVE SMOOTH"
);
},
{
closed = 1;
nodes = (
"148 464 OFFCURVE",
"252 640 OFFCURVE",
"431 640 CURVE SMOOTH",
"553 640 OFFCURVE",
"626 558 OFFCURVE",
"626 421 CURVE SMOOTH",
"626 238 OFFCURVE",
"519 62 OFFCURVE",
"340 62 CURVE SMOOTH",
"218 62 OFFCURVE",
"148 145 OFFCURVE",
"148 279 CURVE SMOOTH"
);
},
{
closed = 1;
nodes = (
"392 752 LINE",
"504 910 LINE",
"408 910 LINE",
"352 752 LINE"
);
},
{
closed = 1;
nodes = (
"539 752 LINE",
"651 910 LINE",
"555 910 LINE",
"499 752 LINE"
);
}
);
width = 742;
}
);
leftKerningGroup = O;
note = Ohungarumlaut;
rightKerningGroup = O;
unicode = 0150;
},
{
glyphname = Omacron;
layers = (
{
anchors = (
{
name = bottom;
position = "{331, 0}";
},
{
name = center;
position = "{386, 350}";
},
{
name = ogonek;
position = "{408, 10}";
},
{
name = top;
position = "{461, 823}";
},
{
name = topleft;
position = "{91, 700}";
},
{
name = topright;
position = "{638, 510}";
}
);
layerId = "E15D9244-BBAC-404B-AB85-99F8751F40D3";
paths = (
{
closed = 1;
nodes = (
"55 95 OFFCURVE",
"167 -12 OFFCURVE",
"340 -12 CURVE SMOOTH",
"576 -12 OFFCURVE",
"719 191 OFFCURVE",
"719 432 CURVE SMOOTH",
"719 607 OFFCURVE",
"604 714 OFFCURVE",
"431 714 CURVE SMOOTH",
"195 714 OFFCURVE",
"55 511 OFFCURVE",
"55 269 CURVE SMOOTH"
);
},
{
closed = 1;
nodes = (
"148 464 OFFCURVE",
"252 640 OFFCURVE",
"431 640 CURVE SMOOTH",
"553 640 OFFCURVE",
"626 558 OFFCURVE",
"626 421 CURVE SMOOTH",
"626 238 OFFCURVE",
"519 62 OFFCURVE",
"340 62 CURVE SMOOTH",
"218 62 OFFCURVE",
"148 145 OFFCURVE",
"148 279 CURVE SMOOTH"
);
},
{
closed = 1;
nodes = (
"605 772 LINE",
"613 822 LINE",
"309 822 LINE",
"301 772 LINE"
);
}
);
width = 742;
}
);
leftKerningGroup = O;
note = Omacron;
rightKerningGroup = O;
unicode = 014C;
},
{
glyphname = Oslash;
lastChange = "2018-03-13 07:06:37 +0000";
layers = (
{
anchors = (
{
name = bottom;
position = "{331, 0}";
},
{
name = center;
position = "{386, 350}";
},
{
name = ogonek;
position = "{408, 10}";
},
{
name = top;
position = "{442, 700}";
},
{
name = topleft;
position = "{91, 700}";
},
{
name = topright;
position = "{638, 510}";
}
);
layerId = "E15D9244-BBAC-404B-AB85-99F8751F40D3";
paths = (
{
closed = 1;
nodes = (
"55 166 OFFCURVE",
"94 87 OFFCURVE",
"161 39 CURVE",
"95 -60 LINE",
"155 -60 LINE",
"205 15 LINE",
"244 -3 OFFCURVE",
"289 -12 OFFCURVE",
"340 -12 CURVE SMOOTH",
"576 -12 OFFCURVE",
"719 191 OFFCURVE",
"719 432 CURVE SMOOTH",
"719 526 OFFCURVE",
"686 601 OFFCURVE",
"628 650 CURVE",
"701 760 LINE",
"641 760 LINE",
"586 678 LINE",
"543 701 OFFCURVE",
"490 714 OFFCURVE",
"431 714 CURVE SMOOTH",
"195 714 OFFCURVE",
"55 511 OFFCURVE",
"55 269 CURVE SMOOTH"
);
},
{
closed = 1;
nodes = (
"148 464 OFFCURVE",
"252 640 OFFCURVE",
"431 640 CURVE SMOOTH",
"474 640 OFFCURVE",
"511 630 OFFCURVE",
"541 610 CURVE",
"208 110 LINE",
"169 147 OFFCURVE",
"148 206 OFFCURVE",
"148 279 CURVE SMOOTH"
);
},
{
closed = 1;
nodes = (
"579 577 LINE",
"609 539 OFFCURVE",
"626 486 OFFCURVE",
"626 421 CURVE SMOOTH",
"626 238 OFFCURVE",
"519 62 OFFCURVE",
"340 62 CURVE SMOOTH",
"305 62 OFFCURVE",
"275 69 OFFCURVE",
"249 81 CURVE"
);
}
);
width = 742;
}
);
leftMetricsKey = O;
note = Oslash;
rightMetricsKey = O;
unicode = 00D8;
},
{
glyphname = Oslashacute;
lastChange = "2018-03-13 07:06:37 +0000";
layers = (
{
anchors = (
{
name = bottom;
position = "{331, 0}";
},
{
name = center;
position = "{386, 350}";
},
{
name = ogonek;
position = "{408, 10}";
},
{
name = top;
position = "{519, 910}";
},
{
name = topleft;
position = "{91, 700}";
},
{
name = topright;
position = "{638, 510}";
}
);
layerId = "E15D9244-BBAC-404B-AB85-99F8751F40D3";
paths = (
{
closed = 1;
nodes = (
"55 166 OFFCURVE",
"94 87 OFFCURVE",
"161 39 CURVE",
"95 -60 LINE",
"155 -60 LINE",
"205 15 LINE",
"244 -3 OFFCURVE",
"289 -12 OFFCURVE",
"340 -12 CURVE SMOOTH",
"576 -12 OFFCURVE",
"719 191 OFFCURVE",
"719 432 CURVE SMOOTH",
"719 526 OFFCURVE",
"686 601 OFFCURVE",
"628 650 CURVE",
"701 760 LINE",
"641 760 LINE",
"586 678 LINE",
"543 701 OFFCURVE",
"490 714 OFFCURVE",
"431 714 CURVE SMOOTH",
"195 714 OFFCURVE",
"55 511 OFFCURVE",
"55 269 CURVE SMOOTH"
);
},
{
closed = 1;
nodes = (
"148 464 OFFCURVE",
"252 640 OFFCURVE",
"431 640 CURVE SMOOTH",
"474 640 OFFCURVE",
"511 630 OFFCURVE",
"541 610 CURVE",
"208 110 LINE",
"169 147 OFFCURVE",
"148 206 OFFCURVE",
"148 279 CURVE SMOOTH"
);
},
{
closed = 1;
nodes = (
"579 577 LINE",
"609 539 OFFCURVE",
"626 486 OFFCURVE",
"626 421 CURVE SMOOTH",
"626 238 OFFCURVE",
"519 62 OFFCURVE",
"340 62 CURVE SMOOTH",
"305 62 OFFCURVE",
"275 69 OFFCURVE",
"249 81 CURVE"
);
},
{
closed = 1;
nodes = (
"437 752 LINE",
"569 910 LINE",
"473 910 LINE",
"397 752 LINE"
);
}
);
width = 742;
}
);
leftKerningGroup = O;
note = Oslashacute;
rightKerningGroup = O;
unicode = 01FE;
},
{
glyphname = Otilde;
layers = (
{
anchors = (
{
name = bottom;
position = "{331, 0}";
},
{
name = center;
position = "{386, 350}";
},
{
name = ogonek;
position = "{408, 10}";
},
{
name = top;
position = "{470, 878}";
},
{
name = topleft;
position = "{91, 700}";
},
{
name = topright;
position = "{638, 510}";
}
);
layerId = "E15D9244-BBAC-404B-AB85-99F8751F40D3";
paths = (
{
closed = 1;
nodes = (
"55 95 OFFCURVE",
"167 -12 OFFCURVE",
"340 -12 CURVE SMOOTH",
"576 -12 OFFCURVE",
"719 191 OFFCURVE",
"719 432 CURVE SMOOTH",
"719 607 OFFCURVE",
"604 714 OFFCURVE",
"431 714 CURVE SMOOTH",
"195 714 OFFCURVE",
"55 511 OFFCURVE",
"55 269 CURVE SMOOTH"
);
},
{
closed = 1;
nodes = (
"148 464 OFFCURVE",
"252 640 OFFCURVE",
"431 640 CURVE SMOOTH",
"553 640 OFFCURVE",
"626 558 OFFCURVE",
"626 421 CURVE SMOOTH",
"626 238 OFFCURVE",
"519 62 OFFCURVE",
"340 62 CURVE SMOOTH",
"218 62 OFFCURVE",
"148 145 OFFCURVE",
"148 279 CURVE SMOOTH"
);
},
{
closed = 1;
nodes = (
"339 752 LINE",
"357 784 OFFCURVE",
"375 802 OFFCURVE",
"400 802 CURVE SMOOTH",
"441 802 OFFCURVE",
"456 752 OFFCURVE",
"510 752 CURVE SMOOTH",
"555 752 OFFCURVE",
"604 786 OFFCURVE",
"622 868 CURVE",
"579 868 LINE",
"562 836 OFFCURVE",
"543 818 OFFCURVE",
"518 818 CURVE SMOOTH",
"476 818 OFFCURVE",
"462 868 OFFCURVE",
"409 868 CURVE SMOOTH",
"363 868 OFFCURVE",
"315 832 OFFCURVE",
"296 752 CURVE"
);
}
);
width = 742;
}
);
leftKerningGroup = O;
note = Otilde;
rightKerningGroup = O;
unicode = 00D5;
},
{
glyphname = OE;
layers = (
{
anchors = (
{
name = bottom;
position = "{484, 0}";
},
{
name = top;
position = "{595, 700}";
}
);
layerId = "E15D9244-BBAC-404B-AB85-99F8751F40D3";
paths = (
{
closed = 1;
nodes = (
"55 91 OFFCURVE",
"155 -12 OFFCURVE",
"327 -12 CURVE SMOOTH",
"434 -12 OFFCURVE",
"521 28 OFFCURVE",
"584 100 CURVE",
"573 68 OFFCURVE",
"559 46 OFFCURVE",
"534 21 CURVE",
"539 0 LINE",
"920 0 LINE SMOOTH",
"958 0 OFFCURVE",
"986 22 OFFCURVE",
"986 64 CURVE SMOOTH",
"986 68 OFFCURVE",
"986 72 OFFCURVE",
"985 76 CURVE",
"658 76 LINE",
"678 111 OFFCURVE",
"683 139 OFFCURVE",
"689 177 CURVE SMOOTH",
"712 320 LINE",
"923 320 LINE SMOOTH",
"960 320 OFFCURVE",
"989 341 OFFCURVE",
"989 382 CURVE SMOOTH",
"989 387 OFFCURVE",
"989 392 OFFCURVE",
"988 396 CURVE",
"724 396 LINE",
"744 523 LINE SMOOTH",
"747 543 OFFCURVE",
"750 563 OFFCURVE",
"750 582 CURVE SMOOTH",
"750 597 OFFCURVE",
"748 611 OFFCURVE",
"745 624 CURVE",
"1003 624 LINE SMOOTH",
"1040 624 OFFCURVE",
"1069 645 OFFCURVE",
"1069 686 CURVE SMOOTH",
"1069 691 OFFCURVE",
"1069 696 OFFCURVE",
"1068 700 CURVE",
"650 700 LINE",
"639 679 LINE",
"655 655 OFFCURVE",
"662 633 OFFCURVE",
"663 603 CURVE",
"625 671 OFFCURVE",
"552 714 OFFCURVE",
"444 714 CURVE SMOOTH",
"207 714 OFFCURVE",
"55 507 OFFCURVE",
"55 277 CURVE SMOOTH"
);
},
{
closed = 1;
nodes = (
"148 461 OFFCURVE",
"252 640 OFFCURVE",
"432 640 CURVE SMOOTH",
"553 640 OFFCURVE",
"626 560 OFFCURVE",
"626 415 CURVE SMOOTH",
"626 240 OFFCURVE",
"519 62 OFFCURVE",
"339 62 CURVE SMOOTH",
"218 62 OFFCURVE",
"148 142 OFFCURVE",
"148 286 CURVE SMOOTH"
);
}
);
width = 1047;
}
);
leftMetricsKey = O;
note = OE;
rightMetricsKey = E;
unicode = 0152;
},
{
glyphname = P;
lastChange = "2018-03-13 07:06:37 +0000";
layers = (
{
anchors = (
{
name = bottom;
position = "{88, 0}";
},
{
name = top;
position = "{342, 700}";
}
);
layerId = "E15D9244-BBAC-404B-AB85-99F8751F40D3";
paths = (
{
closed = 1;
nodes = (
"55 -5 OFFCURVE",
"65 -6 OFFCURVE",
"73 -6 CURVE SMOOTH",
"111 -6 OFFCURVE",
"136 20 OFFCURVE",
"142 59 CURVE SMOOTH",
"178 284 LINE",
"266 284 LINE SMOOTH",
"429 284 OFFCURVE",
"555 382 OFFCURVE",
"555 535 CURVE SMOOTH",
"555 646 OFFCURVE",
"469 714 OFFCURVE",
"318 714 CURVE SMOOTH",
"260 714 OFFCURVE",
"193 704 OFFCURVE",
"123 704 CURVE",
"111 683 LINE",
"128 658 OFFCURVE",
"135 634 OFFCURVE",
"135 600 CURVE SMOOTH",
"135 577 OFFCURVE",
"132 549 OFFCURVE",
"126 514 CURVE SMOOTH",
"45 -2 LINE"
);
},
{
closed = 1;
nodes = (
"214 514 LINE SMOOTH",
"218 540 OFFCURVE",
"222 567 OFFCURVE",
"222 593 CURVE SMOOTH",
"222 607 OFFCURVE",
"221 620 OFFCURVE",
"218 633 CURVE",
"252 636 OFFCURVE",
"284 640 OFFCURVE",
"317 640 CURVE SMOOTH",
"418 640 OFFCURVE",
"464 600 OFFCURVE",
"464 528 CURVE SMOOTH",
"464 419 OFFCURVE",
"393 356 OFFCURVE",
"275 356 CURVE SMOOTH",
"188.998 356 LINE"
);
}
);
width = 541;
}
);
leftKerningGroup = F;
leftMetricsKey = F;
note = P;
rightKerningGroup = P;
unicode = 0050;
},
{
glyphname = Thorn;
lastChange = "2018-03-13 07:06:37 +0000";
layers = (
{
layerId = "E15D9244-BBAC-404B-AB85-99F8751F40D3";
paths = (
{
closed = 1;
nodes = (
"49 -5 OFFCURVE",
"59 -6 OFFCURVE",
"67 -6 CURVE SMOOTH",
"105 -6 OFFCURVE",
"130 20 OFFCURVE",
"136 59 CURVE SMOOTH",
"152 160 LINE",
"282 160 LINE SMOOTH",
"429 160 OFFCURVE",
"531 245 OFFCURVE",
"531 387 CURVE SMOOTH",
"531 487 OFFCURVE",
"461 560 OFFCURVE",
"322 560 CURVE SMOOTH",
"215 560 LINE",
"240 716 LINE",
"230 719 OFFCURVE",
"219 720 OFFCURVE",
"211 720 CURVE SMOOTH",
"173 720 OFFCURVE",
"149 693 OFFCURVE",
"143 655 CURVE SMOOTH",
"39 -2 LINE"
);
},
{
closed = 1;
nodes = (
"204 486 LINE",
"322 486 LINE SMOOTH",
"399 486 OFFCURVE",
"440 451 OFFCURVE",
"440 387 CURVE SMOOTH",
"440 295 OFFCURVE",
"381 234 OFFCURVE",
"282 234 CURVE SMOOTH",
"164 234 LINE"
);
}
);
width = 541;
}
);
leftMetricsKey = H;
note = Thorn;
rightMetricsKey = P;
unicode = 00DE;
},
{
glyphname = Q;
lastChange = "2018-03-13 07:06:37 +0000";
layers = (
{
anchors = (
{
name = bottom;
position = "{306, -161}";
},
{
name = top;
position = "{442, 700}";
}
);
layerId = "E15D9244-BBAC-404B-AB85-99F8751F40D3";
paths = (
{
closed = 1;
nodes = (
"55 178 OFFCURVE",
"86 103 OFFCURVE",
"143 53 CURVE",
"293 -95 OFFCURVE",
"425 -168 OFFCURVE",
"511 -168 CURVE SMOOTH",
"552 -168 OFFCURVE",
"574 -151 OFFCURVE",
"580 -114 CURVE",
"516 -105 OFFCURVE",
"434 -79 OFFCURVE",
"333 -12 CURVE",
"336 -12 LINE SMOOTH",
"572 -12 OFFCURVE",
"719 188 OFFCURVE",
"719 429 CURVE SMOOTH",
"719 604 OFFCURVE",
"608 714 OFFCURVE",
"435 714 CURVE SMOOTH",
"199 714 OFFCURVE",
"55 514 OFFCURVE",
"55 272 CURVE SMOOTH"
);
},
{
closed = 1;
nodes = (
"148 464 OFFCURVE",
"252 640 OFFCURVE",
"431 640 CURVE SMOOTH",
"553 640 OFFCURVE",
"626 558 OFFCURVE",
"626 421 CURVE SMOOTH",
"626 238 OFFCURVE",
"519 62 OFFCURVE",
"340 62 CURVE SMOOTH",
"218 62 OFFCURVE",
"148 145 OFFCURVE",
"148 279 CURVE SMOOTH"
);
}
);
width = 743;
}
);
leftKerningGroup = O;
leftMetricsKey = O;
note = Q;
rightKerningGroup = O;
rightMetricsKey = O;
unicode = 0051;
},
{
glyphname = R;
lastChange = "2018-03-13 07:06:37 +0000";
layers = (
{
anchors = (
{
name = bottom;
position = "{249, 0}";
},
{
name = top;
position = "{330, 700}";
}
);
layerId = "E15D9244-BBAC-404B-AB85-99F8751F40D3";
paths = (
{
closed = 1;
nodes = (
"55 -5 OFFCURVE",
"65 -6 OFFCURVE",
"73 -6 CURVE SMOOTH",
"111 -6 OFFCURVE",
"136 20 OFFCURVE",
"142 59 CURVE SMOOTH",
"180 300 LINE",
"287 300 LINE",
"299 300 LINE",
"343 275 OFFCURVE",
"355 233 OFFCURVE",
"375 145 CURVE SMOOTH",
"401 30 OFFCURVE",
"410 -6 OFFCURVE",
"464 -6 CURVE SMOOTH",
"480 -6 OFFCURVE",
"499 -3 OFFCURVE",
"515 3 CURVE",
"517 12 LINE",
"497 29 OFFCURVE",
"490 57 OFFCURVE",
"463 172 CURVE SMOOTH",
"444 254 OFFCURVE",
"429 294 OFFCURVE",
"392 316 CURVE",
"491 348 OFFCURVE",
"556 426 OFFCURVE",
"556 535 CURVE SMOOTH",
"556 640 OFFCURVE",
"471 714 OFFCURVE",
"321 714 CURVE SMOOTH",
"264 714 OFFCURVE",
"191 704 OFFCURVE",
"123 704 CURVE",
"111 683 LINE",
"128 658 OFFCURVE",
"135 634 OFFCURVE",
"135 600 CURVE SMOOTH",
"135 577 OFFCURVE",
"132 549 OFFCURVE",
"126 514 CURVE SMOOTH",
"45 -2 LINE"
);
},
{
closed = 1;
nodes = (
"214 514 LINE SMOOTH",
"218 540 OFFCURVE",
"222 567 OFFCURVE",
"222 593 CURVE SMOOTH",
"222 607 OFFCURVE",
"221 620 OFFCURVE",
"218 633 CURVE",
"253 636 OFFCURVE",
"288 640 OFFCURVE",
"320 640 CURVE SMOOTH",
"419 640 OFFCURVE",
"465 597 OFFCURVE",
"465 531 CURVE SMOOTH",
"465 431 OFFCURVE",
"395 372 OFFCURVE",
"285 372 CURVE SMOOTH",
"192 372 LINE"
);
}
);
width = 577;
}
);
leftKerningGroup = F;
leftMetricsKey = F;
note = R;
rightKerningGroup = R;
unicode = 0052;
},
{
glyphname = Racute;
lastChange = "2018-03-13 07:06:37 +0000";
layers = (
{
anchors = (
{
name = bottom;
position = "{249, 0}";
},
{
name = top;
position = "{407, 910}";
}
);
layerId = "E15D9244-BBAC-404B-AB85-99F8751F40D3";
paths = (
{
closed = 1;
nodes = (
"55 -5 OFFCURVE",
"65 -6 OFFCURVE",
"73 -6 CURVE SMOOTH",
"111 -6 OFFCURVE",
"136 20 OFFCURVE",
"142 59 CURVE SMOOTH",
"180 300 LINE",
"287 300 LINE",
"299 300 LINE",
"343 275 OFFCURVE",
"355 233 OFFCURVE",
"375 145 CURVE SMOOTH",
"401 30 OFFCURVE",
"410 -6 OFFCURVE",
"464 -6 CURVE SMOOTH",
"480 -6 OFFCURVE",
"499 -3 OFFCURVE",
"515 3 CURVE",
"517 12 LINE",
"497 29 OFFCURVE",
"490 57 OFFCURVE",
"463 172 CURVE SMOOTH",
"444 254 OFFCURVE",
"429 294 OFFCURVE",
"392 316 CURVE",
"491 348 OFFCURVE",
"556 426 OFFCURVE",
"556 535 CURVE SMOOTH",
"556 640 OFFCURVE",
"471 714 OFFCURVE",
"321 714 CURVE SMOOTH",
"264 714 OFFCURVE",
"191 704 OFFCURVE",
"123 704 CURVE",
"111 683 LINE",
"128 658 OFFCURVE",
"135 634 OFFCURVE",
"135 600 CURVE SMOOTH",
"135 577 OFFCURVE",
"132 549 OFFCURVE",
"126 514 CURVE SMOOTH",
"45 -2 LINE"
);
},
{
closed = 1;
nodes = (
"214 514 LINE SMOOTH",
"218 540 OFFCURVE",
"222 567 OFFCURVE",
"222 593 CURVE SMOOTH",
"222 607 OFFCURVE",
"221 620 OFFCURVE",
"218 633 CURVE",
"253 636 OFFCURVE",
"288 640 OFFCURVE",
"320 640 CURVE SMOOTH",
"419 640 OFFCURVE",
"465 597 OFFCURVE",
"465 531 CURVE SMOOTH",
"465 431 OFFCURVE",
"395 372 OFFCURVE",
"285 372 CURVE SMOOTH",
"192 372 LINE"
);
},
{
closed = 1;
nodes = (
"325 752 LINE",
"457 910 LINE",
"361 910 LINE",
"285 752 LINE"
);
}
);
width = 577;
}
);
note = Racute;
rightKerningGroup = R;
unicode = 0154;
},
{
glyphname = Rcaron;
lastChange = "2018-03-13 07:06:37 +0000";
layers = (
{
anchors = (
{
name = bottom;
position = "{249, 0}";
},
{
name = top;
position = "{363, 910}";
}
);
layerId = "E15D9244-BBAC-404B-AB85-99F8751F40D3";
paths = (
{
closed = 1;
nodes = (
"55 -5 OFFCURVE",
"65 -6 OFFCURVE",
"73 -6 CURVE SMOOTH",
"111 -6 OFFCURVE",
"136 20 OFFCURVE",
"142 59 CURVE SMOOTH",
"180 300 LINE",
"287 300 LINE",
"299 300 LINE",
"343 275 OFFCURVE",
"355 233 OFFCURVE",
"375 145 CURVE SMOOTH",
"401 30 OFFCURVE",
"410 -6 OFFCURVE",
"464 -6 CURVE SMOOTH",
"480 -6 OFFCURVE",
"499 -3 OFFCURVE",
"515 3 CURVE",
"517 12 LINE",
"497 29 OFFCURVE",
"490 57 OFFCURVE",
"463 172 CURVE SMOOTH",
"444 254 OFFCURVE",
"429 294 OFFCURVE",
"392 316 CURVE",
"491 348 OFFCURVE",
"556 426 OFFCURVE",
"556 535 CURVE SMOOTH",
"556 640 OFFCURVE",
"471 714 OFFCURVE",
"321 714 CURVE SMOOTH",
"264 714 OFFCURVE",
"191 704 OFFCURVE",
"123 704 CURVE",
"111 683 LINE",
"128 658 OFFCURVE",
"135 634 OFFCURVE",
"135 600 CURVE SMOOTH",
"135 577 OFFCURVE",
"132 549 OFFCURVE",
"126 514 CURVE SMOOTH",
"45 -2 LINE"
);
},
{
closed = 1;
nodes = (
"214 514 LINE SMOOTH",
"218 540 OFFCURVE",
"222 567 OFFCURVE",
"222 593 CURVE SMOOTH",
"222 607 OFFCURVE",
"221 620 OFFCURVE",
"218 633 CURVE",
"253 636 OFFCURVE",
"288 640 OFFCURVE",
"320 640 CURVE SMOOTH",
"419 640 OFFCURVE",
"465 597 OFFCURVE",
"465 531 CURVE SMOOTH",
"465 431 OFFCURVE",
"395 372 OFFCURVE",
"285 372 CURVE SMOOTH",
"192 372 LINE"
);
},
{
closed = 1;
nodes = (
"298 752 LINE",
"378 752 LINE",
"521 900 LINE",
"481 900 LINE",
"345 812 LINE",
"241 900 LINE",
"201 900 LINE"
);
}
);
width = 577;
}
);
note = Rcaron;
rightKerningGroup = R;
unicode = 0158;
},
{
glyphname = Rcommaaccent;
lastChange = "2018-03-13 07:06:37 +0000";
layers = (
{
anchors = (
{
name = bottom;
position = "{202, -299}";
},
{
name = top;
position = "{330, 700}";
}
);
layerId = "E15D9244-BBAC-404B-AB85-99F8751F40D3";
paths = (
{
closed = 1;
nodes = (
"55 -5 OFFCURVE",
"65 -6 OFFCURVE",
"73 -6 CURVE SMOOTH",
"111 -6 OFFCURVE",
"136 20 OFFCURVE",
"142 59 CURVE SMOOTH",
"180 300 LINE",
"287 300 LINE",
"299 300 LINE",
"343 275 OFFCURVE",
"355 233 OFFCURVE",
"375 145 CURVE SMOOTH",
"401 30 OFFCURVE",
"410 -6 OFFCURVE",
"464 -6 CURVE SMOOTH",
"480 -6 OFFCURVE",
"499 -3 OFFCURVE",
"515 3 CURVE",
"517 12 LINE",
"497 29 OFFCURVE",
"490 57 OFFCURVE",
"463 172 CURVE SMOOTH",
"444 254 OFFCURVE",
"429 294 OFFCURVE",
"392 316 CURVE",
"491 348 OFFCURVE",
"556 426 OFFCURVE",
"556 535 CURVE SMOOTH",
"556 640 OFFCURVE",
"471 714 OFFCURVE",
"321 714 CURVE SMOOTH",
"264 714 OFFCURVE",
"191 704 OFFCURVE",
"123 704 CURVE",
"111 683 LINE",
"128 658 OFFCURVE",
"135 634 OFFCURVE",
"135 600 CURVE SMOOTH",
"135 577 OFFCURVE",
"132 549 OFFCURVE",
"126 514 CURVE SMOOTH",
"45 -2 LINE"
);
},
{
closed = 1;
nodes = (
"179 -306 LINE",
"253 -263 OFFCURVE",
"293 -184 OFFCURVE",
"293 -124 CURVE SMOOTH",
"293 -80 OFFCURVE",
"264 -60 OFFCURVE",
"233 -60 CURVE SMOOTH",
"193 -60 OFFCURVE",
"164 -93 OFFCURVE",
"164 -133 CURVE SMOOTH",
"164 -162 OFFCURVE",
"186 -184 OFFCURVE",
"218 -184 CURVE",
"216 -221 OFFCURVE",
"194 -248 OFFCURVE",
"159 -272 CURVE"
);
},
{
closed = 1;
nodes = (
"214 514 LINE SMOOTH",
"218 540 OFFCURVE",
"222 567 OFFCURVE",
"222 593 CURVE SMOOTH",
"222 607 OFFCURVE",
"221 620 OFFCURVE",
"218 633 CURVE",
"253 636 OFFCURVE",
"288 640 OFFCURVE",
"320 640 CURVE SMOOTH",
"419 640 OFFCURVE",
"465 597 OFFCURVE",
"465 531 CURVE SMOOTH",
"465 431 OFFCURVE",
"395 372 OFFCURVE",
"285 372 CURVE SMOOTH",
"192 372 LINE"
);
}
);
width = 577;
}
);
note = Rcommaaccent;
rightKerningGroup = R;
unicode = 0156;
},
{
glyphname = Rdotbelow;
lastChange = "2018-03-13 07:06:37 +0000";
layers = (
{
anchors = (
{
name = bottom;
position = "{221, -175}";
},
{
name = top;
position = "{330, 700}";
}
);
layerId = "E15D9244-BBAC-404B-AB85-99F8751F40D3";
paths = (
{
closed = 1;
nodes = (
"55 -5 OFFCURVE",
"65 -6 OFFCURVE",
"73 -6 CURVE SMOOTH",
"111 -6 OFFCURVE",
"136 20 OFFCURVE",
"142 59 CURVE SMOOTH",
"180 300 LINE",
"287 300 LINE",
"299 300 LINE",
"343 275 OFFCURVE",
"355 233 OFFCURVE",
"375 145 CURVE SMOOTH",
"401 30 OFFCURVE",
"410 -6 OFFCURVE",
"464 -6 CURVE SMOOTH",
"480 -6 OFFCURVE",
"499 -3 OFFCURVE",
"515 3 CURVE",
"517 12 LINE",
"497 29 OFFCURVE",
"490 57 OFFCURVE",
"463 172 CURVE SMOOTH",
"444 254 OFFCURVE",
"429 294 OFFCURVE",
"392 316 CURVE",
"491 348 OFFCURVE",
"556 426 OFFCURVE",
"556 535 CURVE SMOOTH",
"556 640 OFFCURVE",
"471 714 OFFCURVE",
"321 714 CURVE SMOOTH",
"264 714 OFFCURVE",
"191 704 OFFCURVE",
"123 704 CURVE",
"111 683 LINE",
"128 658 OFFCURVE",
"135 634 OFFCURVE",
"135 600 CURVE SMOOTH",
"135 577 OFFCURVE",
"132 549 OFFCURVE",
"126 514 CURVE SMOOTH",
"45 -2 LINE"
);
},
{
closed = 1;
nodes = (
"168 -155 OFFCURVE",
"190 -175 OFFCURVE",
"222 -175 CURVE SMOOTH",
"265 -175 OFFCURVE",
"294 -145 OFFCURVE",
"294 -101 CURVE SMOOTH",
"294 -71 OFFCURVE",
"273 -51 OFFCURVE",
"242 -51 CURVE SMOOTH",
"198 -51 OFFCURVE",
"168 -81 OFFCURVE",
"168 -126 CURVE SMOOTH"
);
},
{
closed = 1;
nodes = (
"214 514 LINE SMOOTH",
"218 540 OFFCURVE",
"222 567 OFFCURVE",
"222 593 CURVE SMOOTH",
"222 607 OFFCURVE",
"221 620 OFFCURVE",
"218 633 CURVE",
"253 636 OFFCURVE",
"288 640 OFFCURVE",
"320 640 CURVE SMOOTH",
"419 640 OFFCURVE",
"465 597 OFFCURVE",
"465 531 CURVE SMOOTH",
"465 431 OFFCURVE",
"395 372 OFFCURVE",
"285 372 CURVE SMOOTH",
"192 372 LINE"
);
}
);
width = 577;
}
);
note = Rdotbelow;
rightKerningGroup = R;
unicode = 1E5A;
},
{
glyphname = Rdotbelowmacron;
lastChange = "2018-03-13 07:06:37 +0000";
layers = (
{
anchors = (
{
name = bottom;
position = "{221, -175}";
},
{
name = top;
position = "{349, 823}";
}
);
layerId = "E15D9244-BBAC-404B-AB85-99F8751F40D3";
paths = (
{
closed = 1;
nodes = (
"55 -5 OFFCURVE",
"65 -6 OFFCURVE",
"73 -6 CURVE SMOOTH",
"111 -6 OFFCURVE",
"136 20 OFFCURVE",
"142 59 CURVE SMOOTH",
"180 300 LINE",
"287 300 LINE",
"299 300 LINE",
"343 275 OFFCURVE",
"355 233 OFFCURVE",
"375 145 CURVE SMOOTH",
"401 30 OFFCURVE",
"410 -6 OFFCURVE",
"464 -6 CURVE SMOOTH",
"480 -6 OFFCURVE",
"499 -3 OFFCURVE",
"515 3 CURVE",
"517 12 LINE",
"497 29 OFFCURVE",
"490 57 OFFCURVE",
"463 172 CURVE SMOOTH",
"444 254 OFFCURVE",
"429 294 OFFCURVE",
"392 316 CURVE",
"491 348 OFFCURVE",
"556 426 OFFCURVE",
"556 535 CURVE SMOOTH",
"556 640 OFFCURVE",
"471 714 OFFCURVE",
"321 714 CURVE SMOOTH",
"264 714 OFFCURVE",
"191 704 OFFCURVE",
"123 704 CURVE",
"111 683 LINE",
"128 658 OFFCURVE",
"135 634 OFFCURVE",
"135 600 CURVE SMOOTH",
"135 577 OFFCURVE",
"132 549 OFFCURVE",
"126 514 CURVE SMOOTH",
"45 -2 LINE"
);
},
{
closed = 1;
nodes = (
"168 -155 OFFCURVE",
"190 -175 OFFCURVE",
"222 -175 CURVE SMOOTH",
"265 -175 OFFCURVE",
"294 -145 OFFCURVE",
"294 -101 CURVE SMOOTH",
"294 -71 OFFCURVE",
"273 -51 OFFCURVE",
"242 -51 CURVE SMOOTH",
"198 -51 OFFCURVE",
"168 -81 OFFCURVE",
"168 -126 CURVE SMOOTH"
);
},
{
closed = 1;
nodes = (
"493 772 LINE",
"501 822 LINE",
"197 822 LINE",
"189 772 LINE"
);
},
{
closed = 1;
nodes = (
"214 514 LINE SMOOTH",
"218 540 OFFCURVE",
"222 567 OFFCURVE",
"222 593 CURVE SMOOTH",
"222 607 OFFCURVE",
"221 620 OFFCURVE",
"218 633 CURVE",
"253 636 OFFCURVE",
"288 640 OFFCURVE",
"320 640 CURVE SMOOTH",
"419 640 OFFCURVE",
"465 597 OFFCURVE",
"465 531 CURVE SMOOTH",
"465 431 OFFCURVE",
"395 372 OFFCURVE",
"285 372 CURVE SMOOTH",
"192 372 LINE"
);
}
);
width = 577;
}
);
note = Rdotbelowmacron;
rightKerningGroup = R;
unicode = 1E5C;
},
{
glyphname = Rlinebelow;
lastChange = "2018-03-13 07:06:37 +0000";
layers = (
{
anchors = (
{
name = bottom;
position = "{232, -110}";
},
{
name = top;
position = "{330, 700}";
}
);
layerId = "E15D9244-BBAC-404B-AB85-99F8751F40D3";
paths = (
{
closed = 1;
nodes = (
"55 -5 OFFCURVE",
"65 -6 OFFCURVE",
"73 -6 CURVE SMOOTH",
"111 -6 OFFCURVE",
"136 20 OFFCURVE",
"142 59 CURVE SMOOTH",
"180 300 LINE",
"287 300 LINE",
"299 300 LINE",
"343 275 OFFCURVE",
"355 233 OFFCURVE",
"375 145 CURVE SMOOTH",
"401 30 OFFCURVE",
"410 -6 OFFCURVE",
"464 -6 CURVE SMOOTH",
"480 -6 OFFCURVE",
"499 -3 OFFCURVE",
"515 3 CURVE",
"517 12 LINE",
"497 29 OFFCURVE",
"490 57 OFFCURVE",
"463 172 CURVE SMOOTH",
"444 254 OFFCURVE",
"429 294 OFFCURVE",
"392 316 CURVE",
"491 348 OFFCURVE",
"556 426 OFFCURVE",
"556 535 CURVE SMOOTH",
"556 640 OFFCURVE",
"471 714 OFFCURVE",
"321 714 CURVE SMOOTH",
"264 714 OFFCURVE",
"191 704 OFFCURVE",
"123 704 CURVE",
"111 683 LINE",
"128 658 OFFCURVE",
"135 634 OFFCURVE",
"135 600 CURVE SMOOTH",
"135 577 OFFCURVE",
"132 549 OFFCURVE",
"126 514 CURVE SMOOTH",
"45 -2 LINE"
);
},
{
closed = 1;
nodes = (
"382 -122 LINE",
"390 -72 LINE",
"86 -72 LINE",
"78 -122 LINE"
);
},
{
closed = 1;
nodes = (
"214 514 LINE SMOOTH",
"218 540 OFFCURVE",
"222 567 OFFCURVE",
"222 593 CURVE SMOOTH",
"222 607 OFFCURVE",
"221 620 OFFCURVE",
"218 633 CURVE",
"253 636 OFFCURVE",
"288 640 OFFCURVE",
"320 640 CURVE SMOOTH",
"419 640 OFFCURVE",
"465 597 OFFCURVE",
"465 531 CURVE SMOOTH",
"465 431 OFFCURVE",
"395 372 OFFCURVE",
"285 372 CURVE SMOOTH",
"192 372 LINE"
);
}
);
width = 577;
}
);
note = Rlinebelow;
rightKerningGroup = R;
unicode = 1E5E;
},
{
glyphname = S;
layers = (
{
anchors = (
{
name = bottom;
position = "{238, 0}";
},
{
name = top;
position = "{349, 700}";
}
);
layerId = "E15D9244-BBAC-404B-AB85-99F8751F40D3";
paths = (
{
closed = 1;
nodes = (
"16 40 OFFCURVE",
"115 -12 OFFCURVE",
"245 -12 CURVE SMOOTH",
"406 -12 OFFCURVE",
"508 59 OFFCURVE",
"508 215 CURVE SMOOTH",
"508 316 OFFCURVE",
"428 358 OFFCURVE",
"316 402 CURVE SMOOTH",
"245 430 OFFCURVE",
"187 454 OFFCURVE",
"187 519 CURVE SMOOTH",
"187 595 OFFCURVE",
"245 640 OFFCURVE",
"334 640 CURVE SMOOTH",
"430 640 OFFCURVE",
"478 594 OFFCURVE",
"507 533 CURVE",
"550 545 OFFCURVE",
"553 581 OFFCURVE",
"553 598 CURVE SMOOTH",
"553 662 OFFCURVE",
"464 714 OFFCURVE",
"341 714 CURVE SMOOTH",
"195 714 OFFCURVE",
"103 644 OFFCURVE",
"103 503 CURVE SMOOTH",
"103 407 OFFCURVE",
"177 359 OFFCURVE",
"277 322 CURVE SMOOTH",
"368 288 OFFCURVE",
"423 266 OFFCURVE",
"423 201 CURVE SMOOTH",
"423 113 OFFCURVE",
"352 62 OFFCURVE",
"250 62 CURVE SMOOTH",
"147 62 OFFCURVE",
"91 109 OFFCURVE",
"62 169 CURVE",
"20 157 OFFCURVE",
"16 121 OFFCURVE",
"16 106 CURVE SMOOTH"
);
}
);
width = 556;
}
);
leftKerningGroup = S;
note = S;
rightKerningGroup = S;
unicode = 0053;
},
{
glyphname = Sacute;
layers = (
{
anchors = (
{
name = bottom;
position = "{238, 0}";
},
{
name = top;
position = "{426, 910}";
}
);
layerId = "E15D9244-BBAC-404B-AB85-99F8751F40D3";
paths = (
{
closed = 1;
nodes = (
"16 40 OFFCURVE",
"115 -12 OFFCURVE",
"245 -12 CURVE SMOOTH",
"406 -12 OFFCURVE",
"508 59 OFFCURVE",
"508 215 CURVE SMOOTH",
"508 316 OFFCURVE",
"428 358 OFFCURVE",
"316 402 CURVE SMOOTH",
"245 430 OFFCURVE",
"187 454 OFFCURVE",
"187 519 CURVE SMOOTH",
"187 595 OFFCURVE",
"245 640 OFFCURVE",
"334 640 CURVE SMOOTH",
"430 640 OFFCURVE",
"478 594 OFFCURVE",
"507 533 CURVE",
"550 545 OFFCURVE",
"553 581 OFFCURVE",
"553 598 CURVE SMOOTH",
"553 662 OFFCURVE",
"464 714 OFFCURVE",
"341 714 CURVE SMOOTH",
"195 714 OFFCURVE",
"103 644 OFFCURVE",
"103 503 CURVE SMOOTH",
"103 407 OFFCURVE",
"177 359 OFFCURVE",
"277 322 CURVE SMOOTH",
"368 288 OFFCURVE",
"423 266 OFFCURVE",
"423 201 CURVE SMOOTH",
"423 113 OFFCURVE",
"352 62 OFFCURVE",
"250 62 CURVE SMOOTH",
"147 62 OFFCURVE",
"91 109 OFFCURVE",
"62 169 CURVE",
"20 157 OFFCURVE",
"16 121 OFFCURVE",
"16 106 CURVE SMOOTH"
);
},
{
closed = 1;
nodes = (
"344 752 LINE",
"476 910 LINE",
"380 910 LINE",
"304 752 LINE"
);
}
);
width = 556;
}
);
leftKerningGroup = S;
note = Sacute;
rightKerningGroup = S;
unicode = 015A;
},
{
glyphname = Scaron;
layers = (
{
anchors = (
{
name = bottom;
position = "{238, 0}";
},
{
name = top;
position = "{382, 910}";
}
);
layerId = "E15D9244-BBAC-404B-AB85-99F8751F40D3";
paths = (
{
closed = 1;
nodes = (
"16 40 OFFCURVE",
"115 -12 OFFCURVE",
"245 -12 CURVE SMOOTH",
"406 -12 OFFCURVE",
"508 59 OFFCURVE",
"508 215 CURVE SMOOTH",
"508 316 OFFCURVE",
"428 358 OFFCURVE",
"316 402 CURVE SMOOTH",
"245 430 OFFCURVE",
"187 454 OFFCURVE",
"187 519 CURVE SMOOTH",
"187 595 OFFCURVE",
"245 640 OFFCURVE",
"334 640 CURVE SMOOTH",
"430 640 OFFCURVE",
"478 594 OFFCURVE",
"507 533 CURVE",
"550 545 OFFCURVE",
"553 581 OFFCURVE",
"553 598 CURVE SMOOTH",
"553 662 OFFCURVE",
"464 714 OFFCURVE",
"341 714 CURVE SMOOTH",
"195 714 OFFCURVE",
"103 644 OFFCURVE",
"103 503 CURVE SMOOTH",
"103 407 OFFCURVE",
"177 359 OFFCURVE",
"277 322 CURVE SMOOTH",
"368 288 OFFCURVE",
"423 266 OFFCURVE",
"423 201 CURVE SMOOTH",
"423 113 OFFCURVE",
"352 62 OFFCURVE",
"250 62 CURVE SMOOTH",
"147 62 OFFCURVE",
"91 109 OFFCURVE",
"62 169 CURVE",
"20 157 OFFCURVE",
"16 121 OFFCURVE",
"16 106 CURVE SMOOTH"
);
},
{
closed = 1;
nodes = (
"317 752 LINE",
"397 752 LINE",
"540 900 LINE",
"500 900 LINE",
"364 812 LINE",
"260 900 LINE",
"220 900 LINE"
);
}
);
width = 556;
}
);
leftKerningGroup = S;
note = Scaron;
rightKerningGroup = S;
unicode = 0160;
},
{
glyphname = Scedilla;
lastChange = "2018-03-13 07:06:37 +0000";
layers = (
{
anchors = (
{
name = bottom;
position = "{185, -195}";
},
{
name = top;
position = "{349, 700}";
}
);
layerId = "E15D9244-BBAC-404B-AB85-99F8751F40D3";
paths = (
{
closed = 1;
nodes = (
"16 47 OFFCURVE",
"95 -1 OFFCURVE",
"205 -10 CURVE",
"148 -74 LINE",
"160 -91 LINE",
"172 -88 OFFCURVE",
"183 -86 OFFCURVE",
"195 -86 CURVE SMOOTH",
"224 -86 OFFCURVE",
"234 -99 OFFCURVE",
"234 -114 CURVE SMOOTH",
"234 -140 OFFCURVE",
"205 -151 OFFCURVE",
"173 -151 CURVE SMOOTH",
"150 -151 OFFCURVE",
"132 -145 OFFCURVE",
"114 -138 CURVE",
"109 -173 LINE",
"126 -185 OFFCURVE",
"148 -195 OFFCURVE",
"185 -195 CURVE SMOOTH",
"254 -195 OFFCURVE",
"302 -162 OFFCURVE",
"302 -114 CURVE SMOOTH",
"302 -74 OFFCURVE",
"270 -51 OFFCURVE",
"216 -51 CURVE",
"252 -12 LINE",
"409 -10 OFFCURVE",
"508 61 OFFCURVE",
"508 215 CURVE SMOOTH",
"508 316 OFFCURVE",
"428 358 OFFCURVE",
"316 402 CURVE SMOOTH",
"245 430 OFFCURVE",
"187 454 OFFCURVE",
"187 519 CURVE SMOOTH",
"187 595 OFFCURVE",
"245 640 OFFCURVE",
"334 640 CURVE SMOOTH",
"430 640 OFFCURVE",
"478 594 OFFCURVE",
"507 533 CURVE",
"550 545 OFFCURVE",
"553 581 OFFCURVE",
"553 598 CURVE SMOOTH",
"553 662 OFFCURVE",
"464 714 OFFCURVE",
"341 714 CURVE SMOOTH",
"195 714 OFFCURVE",
"103 644 OFFCURVE",
"103 503 CURVE SMOOTH",
"103 407 OFFCURVE",
"177 359 OFFCURVE",
"277 322 CURVE SMOOTH",
"368 288 OFFCURVE",
"423 266 OFFCURVE",
"423 201 CURVE SMOOTH",
"423 113 OFFCURVE",
"352 62 OFFCURVE",
"250 62 CURVE SMOOTH",
"147 62 OFFCURVE",
"91 109 OFFCURVE",
"62 169 CURVE",
"20 157 OFFCURVE",
"16 121 OFFCURVE",
"16 106 CURVE SMOOTH"
);
}
);
width = 556;
}
);
leftKerningGroup = S;
note = Scedilla;
rightKerningGroup = S;
unicode = 015E;
},
{
glyphname = Scircumflex;
layers = (
{
anchors = (
{
name = bottom;
position = "{238, 0}";
},
{
name = top;
position = "{380, 900}";
}
);
layerId = "E15D9244-BBAC-404B-AB85-99F8751F40D3";
paths = (
{
closed = 1;
nodes = (
"16 40 OFFCURVE",
"115 -12 OFFCURVE",
"245 -12 CURVE SMOOTH",
"406 -12 OFFCURVE",
"508 59 OFFCURVE",
"508 215 CURVE SMOOTH",
"508 316 OFFCURVE",
"428 358 OFFCURVE",
"316 402 CURVE SMOOTH",
"245 430 OFFCURVE",
"187 454 OFFCURVE",
"187 519 CURVE SMOOTH",
"187 595 OFFCURVE",
"245 640 OFFCURVE",
"334 640 CURVE SMOOTH",
"430 640 OFFCURVE",
"478 594 OFFCURVE",
"507 533 CURVE",
"550 545 OFFCURVE",
"553 581 OFFCURVE",
"553 598 CURVE SMOOTH",
"553 662 OFFCURVE",
"464 714 OFFCURVE",
"341 714 CURVE SMOOTH",
"195 714 OFFCURVE",
"103 644 OFFCURVE",
"103 503 CURVE SMOOTH",
"103 407 OFFCURVE",
"177 359 OFFCURVE",
"277 322 CURVE SMOOTH",
"368 288 OFFCURVE",
"423 266 OFFCURVE",
"423 201 CURVE SMOOTH",
"423 113 OFFCURVE",
"352 62 OFFCURVE",
"250 62 CURVE SMOOTH",
"147 62 OFFCURVE",
"91 109 OFFCURVE",
"62 169 CURVE",
"20 157 OFFCURVE",
"16 121 OFFCURVE",
"16 106 CURVE SMOOTH"
);
},
{
closed = 1;
nodes = (
"237 752 LINE",
"374 840 LINE",
"477 752 LINE",
"517 752 LINE",
"420 900 LINE",
"340 900 LINE",
"197 752 LINE"
);
}
);
width = 556;
}
);
leftKerningGroup = S;
note = Scircumflex;
rightKerningGroup = S;
unicode = 015C;
},
{
glyphname = Scommaaccent;
layers = (
{
anchors = (
{
name = bottom;
position = "{191, -299}";
},
{
name = top;
position = "{349, 700}";
}
);
layerId = "E15D9244-BBAC-404B-AB85-99F8751F40D3";
paths = (
{
closed = 1;
nodes = (
"16 40 OFFCURVE",
"115 -12 OFFCURVE",
"245 -12 CURVE SMOOTH",
"406 -12 OFFCURVE",
"508 59 OFFCURVE",
"508 215 CURVE SMOOTH",
"508 316 OFFCURVE",
"428 358 OFFCURVE",
"316 402 CURVE SMOOTH",
"245 430 OFFCURVE",
"187 454 OFFCURVE",
"187 519 CURVE SMOOTH",
"187 595 OFFCURVE",
"245 640 OFFCURVE",
"334 640 CURVE SMOOTH",
"430 640 OFFCURVE",
"478 594 OFFCURVE",
"507 533 CURVE",
"550 545 OFFCURVE",
"553 581 OFFCURVE",
"553 598 CURVE SMOOTH",
"553 662 OFFCURVE",
"464 714 OFFCURVE",
"341 714 CURVE SMOOTH",
"195 714 OFFCURVE",
"103 644 OFFCURVE",
"103 503 CURVE SMOOTH",
"103 407 OFFCURVE",
"177 359 OFFCURVE",
"277 322 CURVE SMOOTH",
"368 288 OFFCURVE",
"423 266 OFFCURVE",
"423 201 CURVE SMOOTH",
"423 113 OFFCURVE",
"352 62 OFFCURVE",
"250 62 CURVE SMOOTH",
"147 62 OFFCURVE",
"91 109 OFFCURVE",
"62 169 CURVE",
"20 157 OFFCURVE",
"16 121 OFFCURVE",
"16 106 CURVE SMOOTH"
);
},
{
closed = 1;
nodes = (
"168 -306 LINE",
"242 -263 OFFCURVE",
"282 -184 OFFCURVE",
"282 -124 CURVE SMOOTH",
"282 -80 OFFCURVE",
"253 -60 OFFCURVE",
"222 -60 CURVE SMOOTH",
"182 -60 OFFCURVE",
"153 -93 OFFCURVE",
"153 -133 CURVE SMOOTH",
"153 -162 OFFCURVE",
"175 -184 OFFCURVE",
"207 -184 CURVE",
"205 -221 OFFCURVE",
"183 -248 OFFCURVE",
"148 -272 CURVE"
);
}
);
width = 556;
}
);
leftKerningGroup = S;
note = Scommaaccent;
rightKerningGroup = S;
unicode = 0218;
},
{
glyphname = Sdotaccent;
layers = (
{
anchors = (
{
name = bottom;
position = "{238, 0}";
},
{
name = top;
position = "{378, 877}";
}
);
layerId = "E15D9244-BBAC-404B-AB85-99F8751F40D3";
paths = (
{
closed = 1;
nodes = (
"16 40 OFFCURVE",
"115 -12 OFFCURVE",
"245 -12 CURVE SMOOTH",
"406 -12 OFFCURVE",
"508 59 OFFCURVE",
"508 215 CURVE SMOOTH",
"508 316 OFFCURVE",
"428 358 OFFCURVE",
"316 402 CURVE SMOOTH",
"245 430 OFFCURVE",
"187 454 OFFCURVE",
"187 519 CURVE SMOOTH",
"187 595 OFFCURVE",
"245 640 OFFCURVE",
"334 640 CURVE SMOOTH",
"430 640 OFFCURVE",
"478 594 OFFCURVE",
"507 533 CURVE",
"550 545 OFFCURVE",
"553 581 OFFCURVE",
"553 598 CURVE SMOOTH",
"553 662 OFFCURVE",
"464 714 OFFCURVE",
"341 714 CURVE SMOOTH",
"195 714 OFFCURVE",
"103 644 OFFCURVE",
"103 503 CURVE SMOOTH",
"103 407 OFFCURVE",
"177 359 OFFCURVE",
"277 322 CURVE SMOOTH",
"368 288 OFFCURVE",
"423 266 OFFCURVE",
"423 201 CURVE SMOOTH",
"423 113 OFFCURVE",
"352 62 OFFCURVE",
"250 62 CURVE SMOOTH",
"147 62 OFFCURVE",
"91 109 OFFCURVE",
"62 169 CURVE",
"20 157 OFFCURVE",
"16 121 OFFCURVE",
"16 106 CURVE SMOOTH"
);
},
{
closed = 1;
nodes = (
"304 773 OFFCURVE",
"326 753 OFFCURVE",
"358 753 CURVE SMOOTH",
"401 753 OFFCURVE",
"430 783 OFFCURVE",
"430 827 CURVE SMOOTH",
"430 857 OFFCURVE",
"409 877 OFFCURVE",
"378 877 CURVE SMOOTH",
"334 877 OFFCURVE",
"304 847 OFFCURVE",
"304 802 CURVE SMOOTH"
);
}
);
width = 556;
}
);
leftKerningGroup = S;
note = Sdotaccent;
rightKerningGroup = S;
unicode = 1E60;
},
{
glyphname = Sdotbelow;
layers = (
{
anchors = (
{
name = bottom;
position = "{210, -175}";
},
{
name = top;
position = "{349, 700}";
}
);
layerId = "E15D9244-BBAC-404B-AB85-99F8751F40D3";
paths = (
{
closed = 1;
nodes = (
"16 40 OFFCURVE",
"115 -12 OFFCURVE",
"245 -12 CURVE SMOOTH",
"406 -12 OFFCURVE",
"508 59 OFFCURVE",
"508 215 CURVE SMOOTH",
"508 316 OFFCURVE",
"428 358 OFFCURVE",
"316 402 CURVE SMOOTH",
"245 430 OFFCURVE",
"187 454 OFFCURVE",
"187 519 CURVE SMOOTH",
"187 595 OFFCURVE",
"245 640 OFFCURVE",
"334 640 CURVE SMOOTH",
"430 640 OFFCURVE",
"478 594 OFFCURVE",
"507 533 CURVE",
"550 545 OFFCURVE",
"553 581 OFFCURVE",
"553 598 CURVE SMOOTH",
"553 662 OFFCURVE",
"464 714 OFFCURVE",
"341 714 CURVE SMOOTH",
"195 714 OFFCURVE",
"103 644 OFFCURVE",
"103 503 CURVE SMOOTH",
"103 407 OFFCURVE",
"177 359 OFFCURVE",
"277 322 CURVE SMOOTH",
"368 288 OFFCURVE",
"423 266 OFFCURVE",
"423 201 CURVE SMOOTH",
"423 113 OFFCURVE",
"352 62 OFFCURVE",
"250 62 CURVE SMOOTH",
"147 62 OFFCURVE",
"91 109 OFFCURVE",
"62 169 CURVE",
"20 157 OFFCURVE",
"16 121 OFFCURVE",
"16 106 CURVE SMOOTH"
);
},
{
closed = 1;
nodes = (
"157 -155 OFFCURVE",
"179 -175 OFFCURVE",
"211 -175 CURVE SMOOTH",
"254 -175 OFFCURVE",
"283 -145 OFFCURVE",
"283 -101 CURVE SMOOTH",
"283 -71 OFFCURVE",
"262 -51 OFFCURVE",
"231 -51 CURVE SMOOTH",
"187 -51 OFFCURVE",
"157 -81 OFFCURVE",
"157 -126 CURVE SMOOTH"
);
}
);
width = 556;
}
);
leftKerningGroup = S;
note = Sdotbelow;
rightKerningGroup = S;
unicode = 1E62;
},
{
glyphname = Germandbls;
layers = (
{
layerId = "E15D9244-BBAC-404B-AB85-99F8751F40D3";
paths = (
{
closed = 1;
nodes = (
"47 -5 OFFCURVE",
"57 -6 OFFCURVE",
"65 -6 CURVE SMOOTH",
"103 -6 OFFCURVE",
"128 20 OFFCURVE",
"134 59 CURVE SMOOTH",
"202 489 LINE SMOOTH",
"220 599 OFFCURVE",
"282 640 OFFCURVE",
"380 640 CURVE SMOOTH",
"466 640 OFFCURVE",
"509 608 OFFCURVE",
"518 549 CURVE",
"312 399 LINE",
"302 332 LINE",
"364 332 LINE SMOOTH",
"466 332 OFFCURVE",
"521 294 OFFCURVE",
"521 226 CURVE SMOOTH",
"521 144 OFFCURVE",
"452 56 OFFCURVE",
"346 56 CURVE SMOOTH",
"288 56 OFFCURVE",
"239 85 OFFCURVE",
"226 131 CURVE",
"201 118 OFFCURVE",
"194 89 OFFCURVE",
"194 71 CURVE SMOOTH",
"194 11 OFFCURVE",
"269 -10 OFFCURVE",
"344 -10 CURVE SMOOTH",
"504 -10 OFFCURVE",
"614 85 OFFCURVE",
"614 232 CURVE SMOOTH",
"614 324 OFFCURVE",
"554 391 OFFCURVE",
"422 403 CURVE",
"612 541 LINE",
"588 650 OFFCURVE",
"532 714 OFFCURVE",
"393 714 CURVE SMOOTH",
"225 714 OFFCURVE",
"135 621 OFFCURVE",
"112 474 CURVE SMOOTH",
"37 -2 LINE"
);
}
);
width = 662;
}
);
note = uni1E9E;
rightMetricsKey = B;
unicode = 1E9E;
},
{
glyphname = Schwa;
layers = (
{
layerId = "E15D9244-BBAC-404B-AB85-99F8751F40D3";
paths = (
{
closed = 1;
nodes = (
"37 81 OFFCURVE",
"126 -12 OFFCURVE",
"276 -12 CURVE SMOOTH",
"506 -12 OFFCURVE",
"632 209 OFFCURVE",
"632 423 CURVE SMOOTH",
"632 617 OFFCURVE",
"529 711 OFFCURVE",
"370 711 CURVE SMOOTH",
"230 711 OFFCURVE",
"109 639 OFFCURVE",
"108 564 CURVE SMOOTH",
"108 546 OFFCURVE",
"115 530 OFFCURVE",
"139 520 CURVE",
"187 583 OFFCURVE",
"272 632 OFFCURVE",
"362 632 CURVE SMOOTH",
"476 632 OFFCURVE",
"538 552 OFFCURVE",
"538 436 CURVE SMOOTH",
"538 415 OFFCURVE",
"536 396 OFFCURVE",
"533 376 CURVE",
"62 376 LINE",
"44 338 OFFCURVE",
"37 287 OFFCURVE",
"37 242 CURVE SMOOTH"
);
},
{
closed = 1;
nodes = (
"128 257 OFFCURVE",
"129 278 OFFCURVE",
"132 299 CURVE",
"519 300 LINE",
"478 160 OFFCURVE",
"397 62 OFFCURVE",
"276 62 CURVE SMOOTH",
"173 62 OFFCURVE",
"128 132 OFFCURVE",
"128 241 CURVE SMOOTH"
);
}
);
width = 645;
}
);
note = uni018F;
unicode = 018F;
},
{
glyphname = T;
lastChange = "2018-03-13 07:06:37 +0000";
layers = (
{
anchors = (
{
name = bottom;
position = "{218, 10}";
},
{
name = center;
position = "{271, 350}";
},
{
name = top;
position = "{327, 700}";
}
);
layerId = "E15D9244-BBAC-404B-AB85-99F8751F40D3";
paths = (
{
closed = 1;
nodes = (
"270 624 LINE",
"172 -2 LINE",
"182 -5 OFFCURVE",
"192 -6 OFFCURVE",
"200 -6 CURVE SMOOTH",
"238 -6 OFFCURVE",
"263 20 OFFCURVE",
"269 59 CURVE SMOOTH",
"358 624 LINE",
"492 624 LINE SMOOTH",
"525 624 OFFCURVE",
"552 641 OFFCURVE",
"557 674 CURVE SMOOTH",
"558 681 OFFCURVE",
"558 691 OFFCURVE",
"557 700 CURVE",
"150 700 LINE SMOOTH",
"117 700 OFFCURVE",
"90 683 OFFCURVE",
"85 650 CURVE SMOOTH",
"84 643 OFFCURVE",
"83 633 OFFCURVE",
"85 624 CURVE"
);
}
);
width = 512;
}
);
leftKerningGroup = T;
note = T;
rightKerningGroup = T;
unicode = 0054;
},
